{"glyphs":{"0":{"ha":972,"x_min":56,"x_max":918,"o":"m 169 738 q 226 795 169 738 q 486 853 283 853 q 803 738 689 853 q 917 417 917 622 q 803 96 917 211 q 486 -19 689 -19 q 255 32 351 -19 q 107 182 158 83 q 56 417 56 281 q 169 738 56 622 m 588 686 q 570 735 588 686 q 486 783 551 783 q 384 686 421 783 q 347 446 347 589 q 364 219 347 303 q 486 50 397 50 q 588 147 551 50 q 625 417 625 244 q 588 686 625 589 z "},"1":{"ha":564,"x_min":35,"x_max":531,"o":"m 64 14 q 118 36 96 14 q 140 89 140 58 l 140 746 q 103 810 140 788 q 64 819 85 819 l 35 819 l 35 833 l 531 833 l 529 819 l 501 819 q 435 783 457 819 q 424 746 425 767 l 424 88 q 463 24 424 46 q 501 14 481 14 l 529 14 l 531 0 l 35 0 l 35 14 l 64 14 z "},"2":{"ha":914,"x_min":40,"x_max":867,"o":"m 42 782 q 200 856 100 829 q 409 882 300 882 q 608 852 518 882 q 750 764 697 822 q 803 626 803 706 q 760 496 803 564 q 653 390 736 457 q 503 299 601 349 q 399 244 406 249 l 663 244 q 770 277 724 244 q 853 379 817 310 l 867 379 l 772 0 l 50 0 l 50 13 q 171 147 96 67 q 297 284 246 228 q 399 407 347 340 q 504 658 504 543 q 459 776 504 735 q 347 817 414 817 q 197 744 244 817 q 149 544 149 671 l 135 544 l 42 782 z "},"3":{"ha":836,"x_min":40,"x_max":782,"o":"m 388 850 q 647 788 554 850 q 740 611 740 725 q 631 429 740 482 q 553 410 594 411 q 744 285 682 385 q 781 139 781 226 q 710 -68 781 21 q 308 -236 576 -236 q 54 -183 172 -236 l 57 -169 q 72 -169 64 -169 q 270 -131 176 -169 q 423 -15 364 -93 q 482 161 482 63 q 367 361 482 300 q 225 394 304 393 l 228 408 q 236 408 232 408 q 392 473 328 408 q 456 622 456 538 q 399 753 456 714 q 306 782 360 782 q 167 708 207 782 q 135 535 135 649 q 135 511 135 524 l 121 511 l 42 751 q 187 823 96 796 q 388 850 278 850 z "},"4":{"ha":893,"x_min":-21,"x_max":874,"o":"m 710 124 l 710 -51 q 749 -115 710 -93 q 786 -125 765 -125 l 801 -125 l 801 -139 l 332 -139 l 333 -125 l 347 -125 q 401 -104 379 -125 q 425 -53 424 -83 l 425 124 l -21 124 l -21 138 l 696 853 l 710 853 l 710 269 l 769 269 q 826 283 806 269 q 860 325 846 296 l 874 325 l 831 124 l 710 124 m 425 269 l 425 474 l 214 269 l 425 269 z "},"5":{"ha":822,"x_min":13,"x_max":753,"o":"m 211 450 q 383 472 310 472 q 513 457 457 472 q 692 341 633 424 q 751 150 751 258 q 711 -17 751 56 q 610 -135 671 -90 q 271 -240 467 -240 q 14 -182 124 -240 l 17 -168 q 42 -168 22 -168 q 110 -161 63 -168 q 216 -133 157 -154 q 324 -82 275 -112 q 408 -3 374 -51 q 447 120 447 53 q 401 232 447 188 q 267 279 351 279 q 82 242 182 279 l 69 250 l 185 783 l 599 818 q 708 888 674 818 l 722 888 l 664 600 l 238 565 l 211 450 z "},"6":{"ha":938,"x_min":56,"x_max":883,"o":"m 414 518 q 464 582 429 556 q 540 618 499 608 q 604 628 581 628 q 725 606 679 628 q 807 547 771 583 q 882 333 882 474 q 782 81 882 178 q 467 -21 676 -21 q 56 438 56 -21 q 233 899 56 740 q 640 1029 379 1029 q 776 1019 706 1029 l 782 1010 q 603 939 657 971 q 518 885 549 907 q 465 833 488 863 q 426 778 443 804 q 399 717 410 753 q 383 651 389 681 q 372 576 376 621 q 368 424 368 507 q 369 301 368 340 q 373 217 369 263 q 383 148 376 171 q 401 101 389 125 q 467 63 422 63 q 536 81 511 63 q 575 136 561 100 q 597 307 597 200 q 579 461 597 414 q 490 529 554 529 q 424 507 458 529 l 414 518 z "},"7":{"ha":794,"x_min":6,"x_max":782,"o":"m 125 590 q 61 570 85 590 q 21 507 38 550 l 7 507 l 46 831 l 782 831 l 604 421 q 504 150 564 329 q 414 -139 444 -29 l 178 -139 q 351 160 246 -28 q 497 436 456 347 l 569 590 l 125 590 z "},"8":{"ha":883,"x_min":35,"x_max":849,"o":"m 849 278 q 732 58 849 135 q 414 -19 615 -19 q 58 121 133 -19 q 35 221 35 165 q 89 369 35 314 q 222 453 143 425 q 94 694 94 553 q 190 914 94 836 q 432 992 286 992 q 679 925 578 992 q 781 756 781 858 q 728 637 781 685 q 597 569 676 589 q 803 425 760 485 q 849 278 849 361 m 432 921 q 406 921 432 921 q 351 889 379 921 q 324 803 324 857 q 363 711 324 749 q 517 613 401 674 q 550 760 550 675 q 518 876 550 835 q 432 921 485 921 m 447 49 q 547 81 501 49 q 593 163 593 113 q 546 257 593 214 q 408 346 499 300 q 301 401 318 392 q 269 256 269 344 q 310 113 269 167 q 447 49 357 49 z "},"9":{"ha":938,"x_min":54,"x_max":882,"o":"m 524 310 q 474 246 508 272 q 398 210 439 219 q 333 200 357 200 q 213 222 258 200 q 131 281 167 244 q 56 496 56 354 q 156 747 56 650 q 471 849 261 849 q 882 390 882 849 q 703 -71 882 88 q 297 -200 558 -200 q 161 -192 232 -200 l 156 -182 q 335 -111 281 -143 q 419 -57 389 -79 q 472 -6 450 -35 q 511 49 494 24 q 538 111 528 75 q 555 177 549 147 q 564 251 561 207 q 569 390 569 321 q 569 485 569 460 q 568 544 569 511 q 565 597 567 576 q 561 641 564 617 q 554 679 558 665 q 544 709 550 693 q 531 734 539 725 q 514 751 524 743 q 461 765 496 765 q 401 747 426 765 q 363 692 375 728 q 340 522 340 628 q 358 367 340 415 q 447 299 385 299 q 514 321 479 299 l 524 310 z "}," ":{"ha":347,"x_min":0,"x_max":0,"o":""},"!":{"ha":410,"x_min":63,"x_max":347,"o":"m 315 504 l 253 319 l 156 319 l 93 504 l 63 975 l 347 975 l 315 504 m 290 17 q 272 -1 290 17 q 202 -19 254 -19 q 113 17 150 -19 q 76 106 76 54 q 113 194 76 157 q 202 231 150 231 q 290 194 254 231 q 326 106 326 157 q 290 17 326 54 z "},"\"":{"ha":547,"x_min":42,"x_max":507,"o":"m 42 701 q 89 893 89 819 q 82 972 89 929 l 265 992 q 265 970 265 986 q 257 917 265 954 q 228 835 249 881 q 165 751 208 790 q 65 694 122 711 l 42 701 m 283 701 q 331 893 331 819 q 324 972 331 929 l 506 992 q 506 970 506 986 q 498 917 506 954 q 469 835 490 881 q 406 751 449 790 q 307 694 364 711 l 283 701 z "},"#":{"ha":833,"x_min":28,"x_max":758,"o":"m 758 607 l 594 607 l 556 385 l 697 385 l 697 301 l 540 301 l 488 0 l 401 0 l 454 301 l 263 301 l 210 0 l 124 0 l 176 301 l 28 301 l 28 385 l 192 385 l 231 607 l 89 607 l 89 690 l 246 690 l 294 972 l 381 972 l 332 690 l 524 690 l 572 972 l 658 972 l 610 690 l 758 690 l 758 607 m 469 385 l 508 607 l 317 607 l 278 385 l 469 385 z "},"$":{"ha":854,"x_min":47,"x_max":828,"o":"m 828 319 q 828 238 828 319 q 724 75 828 157 q 446 -18 619 -7 l 436 -142 l 369 -137 l 379 -19 q 183 7 267 -18 q 61 71 99 32 q 49 137 49 101 q 54 206 49 172 q 106 333 69 288 l 118 333 q 117 315 117 325 q 188 142 117 221 q 385 51 258 63 l 408 367 l 242 444 q 103 565 146 488 q 68 700 68 626 q 169 928 68 850 q 394 992 254 992 q 456 990 418 992 l 464 1094 l 531 1093 l 522 986 q 629 978 581 982 l 738 978 l 707 751 l 693 751 q 592 900 693 856 q 518 919 558 914 l 496 635 l 667 556 q 828 319 828 482 m 283 795 q 283 776 283 795 q 313 731 283 757 q 407 676 343 704 l 431 664 l 450 922 q 307 863 350 915 q 283 795 283 833 m 474 338 l 451 51 q 573 97 531 58 q 615 182 615 135 q 582 265 615 229 q 474 338 549 301 z "},"%":{"ha":1079,"x_min":26,"x_max":1028,"o":"m 504 892 q 526 808 526 847 q 524 746 526 768 q 434 566 511 631 q 238 501 357 501 q 67 569 119 501 q 28 701 28 621 q 124 931 28 853 q 318 992 200 992 l 319 992 q 347 992 322 992 q 409 982 371 992 q 467 960 447 972 q 582 924 529 924 q 726 969 640 924 q 756 985 749 981 l 810 961 l 293 -26 l 231 0 l 711 907 q 607 874 660 874 q 504 892 554 874 m 217 656 q 217 606 217 656 q 252 558 217 557 q 312 608 288 558 q 344 725 336 657 q 351 831 351 793 q 313 936 351 936 q 246 849 274 936 q 217 656 217 754 m 625 410 q 814 471 701 471 q 976 411 926 471 q 1026 260 1026 351 q 943 50 1026 119 q 740 -19 860 -19 q 568 49 621 -19 q 529 179 529 100 q 625 410 529 331 m 708 131 q 746 36 708 36 q 803 85 779 36 q 836 203 828 135 q 844 310 844 272 q 804 415 844 415 q 752 365 775 415 q 719 243 729 315 q 708 131 708 171 z "},"&":{"ha":1275,"x_min":35,"x_max":1693,"o":"m 1693 -181 q 1194 -196 1449 -276 q 961 -71 1067 -154 l 825 36 q 574 -14 706 -14 q 303 24 438 -14 q 57 197 117 76 q 35 297 35 243 q 54 395 35 351 q 107 469 74 439 q 256 551 171 528 q 196 728 196 649 q 228 858 196 807 q 317 938 261 910 q 569 992 425 992 q 752 967 668 992 q 868 893 836 943 l 803 667 l 790 667 q 629 922 788 922 q 527 883 567 922 q 488 777 488 844 q 544 641 488 710 q 707 482 601 572 q 985 249 813 392 q 1138 619 1138 414 q 1122 744 1138 674 q 1042 908 1107 815 q 871 1083 978 1001 l 881 1092 q 1100 874 1021 996 q 1192 575 1192 729 q 1049 196 1192 360 q 1100 151 1060 186 q 1166 93 1140 115 q 1239 33 1192 71 q 1318 -26 1286 -6 q 1399 -75 1350 -47 q 1489 -118 1447 -103 q 1692 -165 1593 -156 l 1693 -181 m 342 440 q 331 376 331 404 q 517 85 331 144 q 623 69 564 69 q 751 94 682 69 l 510 285 q 342 440 407 367 z "},"'":{"ha":306,"x_min":42,"x_max":265,"o":"m 42 701 q 89 893 89 819 q 82 972 89 929 l 265 992 q 265 970 265 986 q 257 917 265 954 q 228 835 249 881 q 165 751 208 790 q 65 694 122 711 l 42 701 z "},"(":{"ha":664,"x_min":125,"x_max":624,"o":"m 403 492 q 621 -126 403 26 l 613 -139 q 392 -49 488 -110 q 240 93 297 13 q 125 464 125 254 q 240 835 125 688 q 615 1017 363 989 l 624 1006 q 403 492 403 900 z "},")":{"ha":664,"x_min":42,"x_max":540,"o":"m 44 -126 q 263 492 263 26 q 42 1006 263 900 l 50 1017 q 424 835 303 989 q 540 464 540 688 q 425 93 540 254 q 272 -49 367 13 q 53 -139 176 -110 l 44 -126 z "},"*":{"ha":542,"x_min":49,"x_max":494,"o":"m 281 840 l 374 797 l 456 717 l 407 658 l 336 631 l 283 732 l 271 833 l 260 732 l 208 631 l 138 658 l 89 717 l 169 797 l 261 840 l 161 821 l 49 839 l 53 914 l 94 978 l 196 926 l 265 853 l 217 942 l 197 1054 l 271 1074 l 344 1054 l 328 942 l 278 851 l 347 926 l 449 979 l 490 915 l 494 839 l 381 821 l 281 840 z "},"+":{"ha":668,"x_min":54,"x_max":614,"o":"m 614 475 l 614 385 l 379 385 l 379 151 l 289 151 l 289 385 l 56 385 l 56 475 l 289 475 l 289 710 l 379 710 l 379 475 l 614 475 z "},",":{"ha":361,"x_min":47,"x_max":314,"o":"m 57 -161 q 114 -101 99 -143 q 119 -72 119 -85 q 84 13 119 -28 q 49 106 49 54 q 94 207 49 174 q 154 231 125 231 q 292 150 256 231 q 313 49 313 99 q 290 -47 313 -1 q 157 -174 243 -144 q 104 -183 128 -183 q 63 -179 81 -183 l 57 -161 z "},"-":{"ha":528,"x_min":42,"x_max":486,"o":"m 42 406 l 56 461 l 472 461 l 486 406 l 472 349 l 56 349 l 42 406 z "},".":{"ha":347,"x_min":49,"x_max":299,"o":"m 262 17 q 243 -1 262 17 q 174 -19 225 -19 q 85 17 122 -19 q 49 106 49 54 q 85 194 49 157 q 174 231 122 231 q 262 194 225 231 q 299 106 299 157 q 262 17 299 54 z "},"/":{"ha":610,"x_min":14,"x_max":597,"o":"m 14 19 l 515 1004 l 597 967 l 96 -19 l 14 19 z "},":":{"ha":347,"x_min":49,"x_max":299,"o":"m 262 549 q 243 531 262 549 q 174 513 225 513 q 85 549 122 513 q 49 637 49 585 q 85 726 49 689 q 174 763 122 763 q 262 726 225 763 q 299 637 299 689 q 262 549 299 585 m 262 17 q 243 -1 262 17 q 174 -19 225 -19 q 85 17 122 -19 q 49 106 49 54 q 85 194 49 157 q 174 231 122 231 q 262 194 225 231 q 299 106 299 157 q 262 17 299 54 z "},";":{"ha":361,"x_min":47,"x_max":314,"o":"m 262 588 q 243 570 262 588 q 174 551 225 551 q 85 588 122 551 q 49 677 49 625 q 85 765 49 729 q 174 801 122 801 q 262 765 225 801 q 299 677 299 729 q 262 588 299 625 m 57 -161 q 114 -101 99 -143 q 119 -72 119 -85 q 84 13 119 -28 q 49 106 49 54 q 94 207 49 174 q 154 231 125 231 q 292 150 256 231 q 313 49 313 99 q 290 -47 313 -1 q 157 -174 243 -144 q 104 -183 128 -183 q 63 -179 81 -183 l 57 -161 z "},"<":{"ha":696,"x_min":56,"x_max":614,"o":"m 614 731 l 614 632 l 185 431 l 614 228 l 614 129 l 56 389 l 56 471 l 614 731 z "},"=":{"ha":668,"x_min":56,"x_max":614,"o":"m 56 492 l 56 582 l 614 582 l 614 492 l 56 492 m 56 249 l 56 339 l 614 339 l 614 249 l 56 249 z "},">":{"ha":668,"x_min":56,"x_max":614,"o":"m 56 731 l 614 471 l 614 389 l 56 129 l 56 228 l 485 431 l 56 632 l 56 731 z "},"?":{"ha":685,"x_min":0,"x_max":643,"o":"m 344 749 q 218 922 344 922 q 83 708 83 922 l 69 708 l 0 868 q 113 958 32 924 q 307 992 194 992 q 556 928 469 992 q 643 746 643 864 q 598 608 643 665 q 439 468 553 551 q 358 386 367 415 q 368 307 347 349 l 356 299 q 231 390 265 322 q 215 441 215 419 q 217 482 215 463 q 235 527 219 501 q 268 572 250 553 q 304 614 286 592 q 344 749 344 664 m 438 106 q 438 80 438 106 q 401 17 438 54 q 313 -19 365 -19 q 224 17 261 -19 q 188 106 188 54 q 224 194 188 157 q 313 231 261 231 q 401 194 365 231 q 438 106 438 157 z "},"@":{"ha":1386,"x_min":28,"x_max":1353,"o":"m 117 158 q 28 371 28 235 q 65 549 28 451 q 246 789 122 688 q 535 935 369 890 q 729 964 643 964 q 1238 782 1081 964 q 1353 454 1353 647 q 1215 58 1353 225 q 843 -160 1078 -110 q 699 -175 775 -175 q 289 -87 515 -175 l 283 -74 q 564 -135 432 -135 q 876 -47 739 -135 q 1058 157 990 28 q 1139 474 1139 306 q 1078 743 1139 642 q 868 892 1008 860 q 783 901 814 901 q 746 901 753 901 q 493 808 625 899 q 281 542 364 719 q 208 276 208 392 q 231 191 208 217 q 278 164 253 165 q 322 169 303 163 q 357 188 340 176 q 391 215 374 199 q 424 249 408 232 q 455 288 439 267 q 485 328 471 310 q 540 404 519 378 l 717 644 q 793 751 781 724 l 801 751 l 918 190 q 974 125 931 125 l 981 125 l 978 115 l 647 115 l 649 125 l 658 125 q 698 142 679 125 q 717 172 717 158 q 715 190 717 185 l 704 264 l 515 264 q 397 140 449 178 q 263 101 342 101 q 117 158 183 101 m 671 481 l 553 313 l 697 313 l 671 481 z "},"A":{"ha":975,"x_min":-56,"x_max":1358,"o":"m 1358 -237 q 1140 -300 1251 -300 q 930 -258 1029 -300 q 735 -113 831 -217 q 579 139 640 -10 l 542 231 l 244 231 l 189 101 q 182 72 182 83 q 187 48 182 61 q 208 24 192 35 q 242 14 224 14 l 254 14 l 254 0 l -56 0 l -56 14 l -43 14 q 20 33 -11 14 q 72 89 51 51 l 356 711 q 287 866 314 826 q 242 926 260 906 q 158 983 208 965 q 113 990 139 990 q 53 978 86 990 l 50 992 q 263 1057 161 1057 q 533 910 413 1057 q 643 725 594 833 l 865 215 q 956 27 926 75 q 1008 -55 985 -21 q 1053 -114 1031 -89 q 1101 -162 1075 -139 q 1217 -225 1147 -204 q 1281 -235 1246 -235 q 1356 -224 1317 -235 l 1358 -237 m 275 300 l 514 300 l 426 515 q 400 586 415 540 l 275 300 z "},"B":{"ha":1049,"x_min":-14,"x_max":1050,"o":"m 557 -22 q -14 446 -14 -22 q -10 528 -14 486 l 4 529 q 175 143 4 271 l 175 872 q 147 934 174 910 q 86 958 121 958 l 68 958 l 68 972 l 496 972 q 843 865 732 972 q 903 725 903 807 q 843 574 903 635 q 783 532 817 544 q 797 532 790 532 q 971 467 892 532 q 1050 290 1050 401 q 971 106 1050 179 q 557 -22 836 -22 m 604 675 l 604 717 q 568 851 600 807 q 460 901 536 896 l 460 53 q 654 120 585 54 q 724 293 724 186 q 658 464 724 411 q 507 517 593 517 l 507 529 q 556 545 536 529 q 586 585 576 561 q 604 675 604 636 z "},"C":{"ha":1153,"x_min":13,"x_max":1140,"o":"m 1132 558 q 1140 440 1140 503 q 1124 311 1140 378 q 872 19 1071 101 q 664 -19 778 -19 q 183 117 351 -19 q 14 484 14 253 q 189 853 14 715 q 664 992 364 992 q 1022 928 872 992 l 1008 663 l 996 663 q 671 922 924 922 q 411 809 503 922 q 319 496 319 696 q 415 176 319 296 q 692 50 511 56 q 1006 178 890 50 q 1121 525 1121 307 q 1121 558 1121 542 l 1132 558 z "},"D":{"ha":1219,"x_min":-140,"x_max":1172,"o":"m 618 0 l 92 0 l 92 14 l 110 14 q 172 40 146 14 q 199 101 197 65 l 199 894 q -22 813 53 879 q -125 667 -86 756 l -139 672 q 5 897 -111 822 q 296 972 121 972 l 618 972 q 1026 844 879 972 q 1172 486 1172 715 q 1025 128 1172 257 q 618 0 878 0 m 483 69 l 590 69 q 590 69 590 69 q 793 180 719 69 q 867 486 867 290 q 793 792 867 682 q 590 903 719 903 l 483 900 l 483 69 z "},"E":{"ha":989,"x_min":42,"x_max":990,"o":"m 60 14 q 122 40 96 14 q 149 101 147 65 l 149 871 q 111 942 147 915 q 60 958 89 958 l 42 958 l 42 972 l 504 972 q 610 982 564 972 q 669 997 657 992 l 669 711 l 656 711 l 656 722 q 610 851 656 804 q 482 901 564 899 l 433 901 l 433 514 l 626 514 q 735 558 693 515 q 776 667 776 600 l 776 672 l 790 672 l 790 286 l 776 286 l 776 293 q 735 401 776 358 q 628 444 693 443 l 433 444 l 433 71 l 688 71 q 867 138 789 71 q 976 322 944 204 l 990 322 l 938 0 l 42 0 l 42 14 l 60 14 z "},"F":{"ha":985,"x_min":40,"x_max":972,"o":"m 433 444 l 433 101 q 460 40 433 65 q 522 14 486 14 l 540 14 l 540 0 l 42 0 l 42 14 l 60 14 q 122 40 96 14 q 149 101 147 65 l 149 871 q 122 933 147 908 q 60 958 96 958 l 42 958 l 42 972 l 657 972 q 751 981 700 972 q 822 997 801 989 l 822 711 l 808 711 l 808 722 q 763 851 808 804 q 635 901 717 899 l 433 901 l 433 514 l 807 514 q 915 558 874 515 q 957 667 957 600 l 957 672 l 971 672 l 971 286 l 957 286 l 957 293 q 915 401 957 358 q 808 444 874 443 l 433 444 z "},"G":{"ha":1211,"x_min":14,"x_max":1553,"o":"m 1315 -294 q 1249 -290 1282 -294 q 1008 -186 1110 -268 q 857 18 907 -104 q 603 -19 736 -19 q 177 120 340 -19 q 14 488 14 260 q 181 853 14 715 q 619 992 347 992 q 925 960 776 992 q 1033 929 992 946 l 1019 663 l 1007 663 q 876 858 974 793 q 639 922 778 922 q 410 800 500 922 q 319 478 319 678 q 358 254 319 351 q 469 103 397 157 q 630 50 542 50 q 769 91 718 50 q 819 199 819 132 l 819 388 q 802 435 821 418 q 749 451 783 451 l 728 451 l 728 465 l 1194 465 l 1194 451 l 1172 451 q 1121 435 1139 451 q 1104 388 1103 418 l 1104 163 q 1136 3 1104 82 q 1367 -222 1208 -172 q 1458 -236 1413 -236 q 1549 -226 1504 -236 l 1551 -240 q 1315 -294 1426 -294 z "},"H":{"ha":1240,"x_min":-35,"x_max":1269,"o":"m 715 14 q 778 40 753 14 q 806 101 804 65 l 806 451 l 433 451 l 433 97 q 367 -147 433 -40 q 146 -276 297 -260 q 113 -279 131 -279 q -33 -253 47 -279 l -33 -239 q 114 -119 78 -196 q 143 -26 139 -68 q 149 97 149 28 l 149 872 q 122 933 147 908 q 60 958 96 958 l 42 958 l 42 972 l 540 972 l 540 958 l 522 958 q 447 917 472 958 q 433 874 435 897 l 433 521 l 806 521 l 806 847 q 839 1000 806 926 q 933 1126 872 1074 q 1161 1211 1029 1211 q 1269 1197 1213 1211 l 1269 1183 q 1156 1115 1203 1163 q 1104 1015 1126 1088 q 1092 933 1093 979 q 1090 847 1090 886 l 1090 101 q 1133 26 1090 53 q 1179 14 1154 14 l 1196 14 l 1196 0 l 699 0 l 699 14 l 715 14 z "},"I":{"ha":692,"x_min":-57,"x_max":654,"o":"m 633 14 l 651 14 l 651 0 l 153 0 l 153 14 l 171 14 q 233 40 207 14 q 260 101 258 65 l 260 903 l 139 899 q 14 813 22 894 q 14 804 14 808 q 40 742 14 765 q 107 718 67 718 q 124 718 115 718 l 124 710 q 63 693 93 693 q 3 711 33 693 q -56 814 -56 746 q -6 920 -56 878 q 151 967 44 963 q 249 971 167 968 q 392 975 332 974 q 651 1000 564 983 l 654 986 q 556 919 576 974 q 544 853 546 893 l 544 101 q 571 40 544 65 q 633 14 597 14 z "},"J":{"ha":589,"x_min":-104,"x_max":549,"o":"m 529 958 q 453 915 479 958 q 440 871 442 896 l 440 111 q 405 -93 440 0 q 300 -246 369 -186 q 127 -306 229 -306 q -104 -236 25 -306 l -101 -224 q -57 -228 -79 -228 q -5 -222 -35 -228 q 51 -197 25 -215 q 97 -147 78 -178 q 128 -85 117 -117 q 144 -17 139 -54 q 156 115 156 44 l 156 871 q 128 933 154 907 q 67 958 103 958 l 49 958 l 49 972 l 547 972 l 547 958 l 529 958 z "},"K":{"ha":1142,"x_min":40,"x_max":1536,"o":"m 60 14 q 122 40 96 14 q 149 101 147 65 l 149 872 q 122 933 147 908 q 60 958 96 958 l 42 958 l 42 972 l 540 972 l 540 958 l 522 958 q 460 933 486 958 q 433 872 435 908 l 433 101 q 460 40 433 65 q 522 14 486 14 l 540 14 l 540 0 l 42 0 l 42 14 l 60 14 m 1535 -246 q 1269 -324 1397 -324 q 915 -143 1089 -324 q 783 18 851 -76 l 478 442 l 810 894 q 819 919 819 908 q 815 939 819 931 q 776 960 806 960 l 763 960 l 763 972 l 1097 972 l 1097 960 l 1092 960 q 939 892 999 960 l 701 604 l 1019 157 q 1280 -137 1171 -56 q 1532 -231 1389 -219 l 1535 -246 z "},"L":{"ha":618,"x_min":40,"x_max":1522,"o":"m 1269 -185 q 1510 -125 1443 -185 l 1521 -135 q 1346 -331 1460 -267 q 1138 -369 1275 -369 q 1090 -368 1124 -369 q 980 -345 1056 -367 q 853 -306 904 -324 q 724 -253 801 -289 q 538 -160 626 -207 q 408 -93 449 -114 q 322 -53 367 -72 q 200 -17 278 -35 q 42 0 122 0 l 42 14 l 60 14 q 136 57 110 14 q 149 101 147 76 l 149 871 q 103 947 147 922 q 60 958 83 958 l 42 958 l 42 972 l 540 972 l 540 958 l 528 958 q 461 933 488 958 q 433 871 435 908 l 433 63 q 486 -19 433 -3 q 1269 -185 1024 -185 z "},"M":{"ha":1379,"x_min":-160,"x_max":1658,"o":"m -160 1036 q 34 1089 -61 1089 q 208 1049 129 1089 q 479 781 367 967 l 728 376 l 1140 992 l 1153 992 l 1310 179 q 1450 -168 1357 -71 q 1638 -244 1524 -244 q 1658 -244 1647 -244 l 1658 -258 q 1479 -294 1572 -294 q 1158 -150 1294 -294 q 999 188 1044 -31 l 935 481 l 697 128 q 656 47 674 94 q 639 -33 638 0 l 626 -33 l 289 544 l 219 78 l 219 72 q 235 31 219 50 q 274 13 251 13 l 294 13 l 294 0 l -10 0 l -10 14 l 13 14 q 78 37 50 14 q 114 99 107 60 l 210 694 q 53 914 139 818 q -144 1022 -46 1022 q -156 1022 -150 1022 l -160 1036 z "},"N":{"ha":1224,"x_min":-321,"x_max":1586,"o":"m 1585 -187 q 1401 -240 1500 -240 q 1222 -189 1315 -240 q 1035 -43 1126 -137 l 425 588 l 425 99 q 450 38 425 63 q 510 14 475 14 l 536 14 l 536 0 l 28 0 l 28 14 l 54 14 q 114 38 89 14 q 139 99 139 63 l 139 885 q -236 1113 -75 1113 q -314 1099 -276 1113 l -321 1111 q -153 1167 -243 1167 q -31 1144 -93 1167 q 76 1092 31 1121 q 229 967 163 1035 l 800 376 l 800 874 q 774 934 799 910 q 714 958 749 958 l 688 958 l 688 972 l 1196 972 l 1196 958 l 1171 958 q 1111 934 1136 958 q 1085 875 1086 910 l 1085 82 l 1110 56 q 1142 21 1110 56 q 1187 -25 1175 -14 q 1235 -69 1199 -36 q 1293 -115 1271 -101 q 1354 -149 1315 -128 q 1425 -176 1393 -171 q 1501 -185 1461 -185 q 1579 -174 1542 -185 l 1585 -187 z "},"O":{"ha":1293,"x_min":14,"x_max":1279,"o":"m 510 601 q 467 754 467 674 q 550 935 467 865 q 674 992 600 978 q 745 999 718 999 q 803 998 772 999 q 892 979 833 997 q 1007 935 951 961 q 1112 865 1063 910 q 1199 768 1161 821 q 1279 493 1279 654 q 1106 120 1279 260 q 649 -19 933 -19 q 189 121 364 -19 q 14 490 14 261 q 131 815 14 679 q 438 982 249 950 l 446 968 q 355 791 389 908 q 321 538 321 674 q 410 183 321 317 q 647 50 499 50 q 883 171 794 50 q 972 493 972 292 q 937 722 972 621 q 839 874 901 824 q 707 924 776 924 q 568 869 617 924 q 511 714 511 807 q 526 601 511 661 l 510 601 z "},"P":{"ha":1056,"x_min":47,"x_max":1015,"o":"m 156 833 q 75 914 154 914 q 50 913 68 914 l 47 925 q 329 961 164 933 q 537 993 494 989 q 615 997 579 997 q 791 977 726 997 q 904 925 856 957 q 982 838 953 893 q 1014 708 1014 776 q 996 586 1014 639 q 944 496 978 533 q 689 382 844 382 q 590 399 635 382 q 485 507 508 429 l 499 515 q 563 488 518 488 q 683 568 631 488 q 715 704 715 619 q 656 879 715 822 q 543 922 611 922 q 508 919 526 922 l 440 910 l 440 101 q 467 40 442 65 q 529 14 493 14 l 547 14 l 547 0 l 49 0 l 49 14 l 67 14 q 128 40 103 14 q 156 101 154 65 l 156 833 z "},"Q":{"ha":1290,"x_min":6,"x_max":2194,"o":"m 1804 -414 q 1679 -418 1756 -418 q 1461 -394 1603 -418 q 1176 -310 1319 -369 q 540 -19 1032 -251 l 540 -6 q 818 97 693 -6 q 921 236 879 149 q 969 476 969 342 q 900 765 969 638 q 796 879 861 835 q 625 931 722 931 q 399 820 493 931 q 306 488 306 710 q 358 235 306 333 q 540 125 417 125 q 636 149 596 125 q 722 300 713 192 l 738 301 q 739 251 739 285 q 722 174 739 218 q 518 60 681 60 q 421 69 475 60 q 124 219 242 103 q 7 508 7 335 q 51 700 7 610 q 378 963 143 889 q 635 999 494 999 q 1093 858 919 999 q 1267 496 1267 718 q 1227 302 1267 393 q 1119 146 1188 211 q 783 -25 979 10 q 1253 -97 1026 -53 q 1528 -149 1481 -140 q 1660 -171 1575 -158 q 1890 -193 1799 -193 q 2022 -185 1981 -193 q 2185 -117 2128 -165 l 2194 -121 q 2053 -325 2158 -250 q 1804 -414 1949 -400 z "},"R":{"ha":1088,"x_min":49,"x_max":1631,"o":"m 1001 700 q 960 562 1001 625 q 861 473 919 499 q 746 447 803 447 q 714 449 729 447 q 874 340 801 431 q 949 237 907 300 q 1007 150 990 174 q 1174 -44 1090 31 q 1631 -222 1351 -206 l 1631 -236 q 1439 -314 1554 -290 q 1303 -328 1371 -328 q 1161 -308 1236 -328 q 1014 -250 1086 -289 q 867 -137 942 -211 q 746 13 793 -64 q 664 160 699 90 q 598 299 629 231 q 560 382 567 367 q 488 475 519 465 l 488 489 l 510 489 q 658 560 600 489 q 697 644 692 600 q 703 700 703 688 q 642 852 703 804 q 503 900 581 900 l 442 900 l 442 101 q 468 40 442 65 q 531 14 494 14 l 547 14 l 547 0 l 49 0 l 49 14 l 67 14 q 128 39 103 14 q 156 100 154 64 l 156 871 q 111 947 154 922 q 67 958 90 958 l 50 958 l 50 972 l 592 972 q 906 900 799 972 q 1001 700 1001 835 z "},"S":{"ha":932,"x_min":19,"x_max":900,"o":"m 899 236 q 872 109 899 176 q 788 -15 846 42 q 638 -108 729 -72 q 438 -144 546 -144 q 243 -110 329 -144 q 33 114 82 -46 q 21 194 21 157 q 94 421 21 315 l 107 411 q 61 253 61 329 q 108 86 61 158 q 235 -26 156 14 q 397 -67 314 -67 q 536 -40 479 -67 q 619 31 593 -14 q 646 124 646 75 q 611 223 646 172 q 508 311 576 274 l 282 444 q 110 706 110 546 q 210 926 110 849 q 436 992 293 992 q 669 978 528 992 l 778 978 l 749 751 l 735 751 q 675 875 735 828 q 522 922 615 922 q 379 890 429 922 q 325 806 329 858 q 344 744 321 769 q 386 710 365 722 q 424 689 407 699 q 447 676 440 679 l 707 528 q 843 407 794 479 q 899 236 899 325 z "},"T":{"ha":1042,"x_min":-92,"x_max":1029,"o":"m -6 617 q -90 778 -90 692 q -25 914 -90 858 q 156 974 44 974 l 865 974 q 958 982 908 974 q 1029 999 1008 990 l 1029 713 l 1015 714 l 1015 724 q 932 882 1015 836 q 836 904 892 903 l 700 904 l 700 100 q 727 39 701 64 q 789 14 753 14 l 807 14 l 807 0 l 308 0 l 308 14 l 326 14 q 388 39 363 14 q 415 99 414 64 l 415 904 l 156 904 q 26 867 78 904 q -33 759 -33 824 q 10 624 -33 694 l -6 617 z "},"U":{"ha":1183,"x_min":42,"x_max":1331,"o":"m 1292 1282 q 1331 1279 1311 1282 l 1331 1265 q 1142 1147 1206 1250 q 1078 875 1078 1044 l 1078 357 q 960 77 1075 174 q 621 -19 846 -19 q 267 81 396 -19 q 138 347 138 181 q 138 356 138 351 l 138 890 q 116 939 138 919 q 64 958 94 958 l 42 958 l 42 972 l 518 972 l 518 958 l 496 958 q 432 925 453 958 q 422 893 424 910 l 422 361 q 495 134 422 217 q 689 51 568 51 q 691 51 690 51 q 693 51 692 51 q 883 128 808 51 q 957 343 957 206 l 957 875 q 1057 1171 957 1047 q 1167 1255 1104 1228 q 1292 1282 1231 1282 z "},"V":{"ha":1000,"x_min":-56,"x_max":1342,"o":"m 951 1133 q 978 1168 951 1133 q 1056 1242 1006 1203 q 1169 1300 1106 1281 q 1274 1319 1233 1319 q 1342 1315 1314 1319 l 1342 1301 q 1192 1256 1256 1296 q 1091 1171 1121 1210 q 1044 1109 1061 1132 q 1011 1056 1026 1086 q 967 968 985 1008 l 604 174 q 525 -33 531 18 l 513 -33 l 72 882 q -44 958 29 958 l -56 958 l -56 972 l 471 972 l 471 958 l 458 958 q 415 940 429 958 q 400 904 400 921 q 406 871 400 888 l 604 394 l 854 968 q 951 1133 896 1064 z "},"W":{"ha":1339,"x_min":-71,"x_max":1665,"o":"m 1489 1304 q 1589 1317 1549 1317 q 1664 1313 1629 1317 l 1664 1299 q 1286 964 1382 1278 l 1028 124 q 1008 -31 1008 56 l 994 -31 l 675 572 l 417 44 q 338 -86 376 -40 q 272 -160 300 -132 q 214 -207 243 -187 q 72 -257 135 -257 q 1 -250 39 -257 l 1 -236 q 165 -146 94 -219 q 271 -10 239 -68 q 343 132 315 71 l 61 879 q 9 939 42 919 q -58 958 -24 958 l -69 958 l -69 972 l 429 972 l 429 958 l 417 958 q 361 919 375 958 q 360 900 360 911 q 365 872 360 889 l 517 494 l 757 994 l 769 993 l 1044 485 l 1178 964 q 1285 1174 1211 1085 q 1489 1304 1372 1279 z "},"X":{"ha":1074,"x_min":-242,"x_max":1235,"o":"m 1106 14 l 1125 14 l 1125 0 l 564 0 l 564 14 l 582 14 q 629 43 611 14 q 638 71 638 57 q 629 100 638 85 l 449 376 l 178 0 q -169 -215 22 -215 q -242 -208 -206 -215 l -242 -194 q -72 -131 -135 -182 q -16 -76 -39 -103 q 43 0 7 -49 l 388 471 l 122 878 q 61 935 99 911 q -18 958 24 958 l -37 958 l -37 972 l 521 972 l 521 958 l 504 958 q 457 929 474 958 q 447 901 447 915 q 457 872 447 886 l 614 632 l 839 972 q 1000 1139 904 1069 q 1199 1206 1092 1206 q 1233 1203 1217 1206 l 1233 1189 q 1083 1113 1153 1188 q 974 972 1031 1056 l 679 532 l 965 94 q 1050 25 997 47 q 1106 14 1078 14 z "},"Y":{"ha":971,"x_min":-118,"x_max":1028,"o":"m -40 1057 q 319 963 163 1057 q 581 640 504 850 q 757 931 636 804 q 881 1023 815 990 q 1008 1056 947 1056 q 1028 1054 1018 1056 l 1028 1040 q 894 973 964 1038 q 769 816 824 908 q 676 624 715 724 q 626 447 636 524 l 626 101 q 669 26 626 51 q 715 14 690 14 l 732 14 l 733 0 l 235 0 l 235 14 l 253 14 q 315 40 289 14 q 342 101 340 65 l 342 447 q 236 738 311 593 q 144 881 194 817 q 25 990 94 944 q -118 1040 -44 1035 l -118 1054 q -40 1057 -78 1057 z "},"Z":{"ha":915,"x_min":49,"x_max":1521,"o":"m 638 -55 q 718 -76 638 -55 q 905 -124 799 -97 q 1126 -174 1011 -151 q 1338 -196 1242 -196 q 1510 -167 1433 -196 l 1521 -176 q 1363 -306 1450 -262 q 1181 -351 1271 -351 q 994 -330 1092 -351 q 803 -267 897 -308 q 604 -181 708 -226 q 410 -94 500 -136 q 49 0 200 0 l 49 13 l 510 904 l 260 904 q 103 819 147 903 q 82 724 82 779 l 82 713 l 68 713 l 68 999 q 141 982 89 990 q 215 974 193 974 q 236 974 236 974 l 715 974 q 803 979 757 974 q 863 992 850 985 l 863 979 l 365 13 q 638 -55 478 -12 z "},"[":{"ha":656,"x_min":167,"x_max":601,"o":"m 167 -125 l 167 1003 l 596 1003 l 596 989 l 451 919 l 451 -42 l 600 -111 l 600 -125 l 167 -125 z "},"\\":{"ha":610,"x_min":14,"x_max":597,"o":"m 14 967 l 96 1004 l 597 19 l 515 -19 l 14 967 z "},"]":{"ha":503,"x_min":54,"x_max":490,"o":"m 60 1003 l 489 1003 l 489 -125 l 56 -125 l 56 -111 l 204 -42 l 204 919 l 60 989 l 60 1003 z "},"^":{"ha":794,"x_min":47,"x_max":747,"o":"m 351 529 l 446 529 l 747 239 l 624 239 l 399 451 l 172 239 l 49 239 l 351 529 z "},"_":{"ha":694,"x_min":0,"x_max":694,"o":"m 0 -153 l 0 -83 l 694 -83 l 694 -153 l 0 -153 z "},"`":{"ha":833,"x_min":74,"x_max":408,"o":"m 408 1042 l 399 1032 q 235 1078 325 1040 q 75 1161 144 1115 q 193 1300 104 1263 q 317 1176 253 1249 q 408 1042 382 1103 z "},"a":{"ha":1000,"x_min":-57,"x_max":1057,"o":"m 1044 14 l 1056 14 l 1056 0 l 529 0 l 529 14 l 542 14 q 588 33 572 14 q 603 67 603 51 q 596 101 603 83 l 542 231 l 244 231 l 189 101 q 182 72 182 83 q 187 48 182 61 q 208 24 192 35 q 242 14 224 14 l 254 14 l 254 0 l -56 0 l -56 14 l -43 14 q 20 33 -11 14 q 72 89 51 51 l 396 799 q 475 1006 469 954 l 488 1006 l 928 90 q 1044 14 972 14 m 275 300 l 513 300 l 396 578 l 275 300 z "},"b":{"ha":1014,"x_min":42,"x_max":982,"o":"m 547 0 l 42 0 l 42 14 l 60 14 q 136 57 110 14 q 149 100 147 76 l 149 872 q 104 947 147 922 q 60 958 83 958 l 42 958 l 42 972 l 525 972 q 911 731 911 972 q 797 543 911 590 q 729 529 765 531 q 909 456 836 524 q 982 278 982 389 q 864 69 982 139 q 547 0 746 0 m 453 72 q 599 126 543 72 q 656 291 656 181 q 611 458 656 401 q 481 514 567 514 l 481 526 q 613 715 613 526 q 451 903 613 903 q 451 903 451 903 l 433 903 l 433 72 l 451 72 q 453 72 453 72 z "},"c":{"ha":1101,"x_min":47,"x_max":1047,"o":"m 49 488 q 121 758 49 644 q 330 932 193 872 q 665 992 467 992 q 1014 928 864 992 l 1000 663 l 988 663 q 871 863 947 803 q 681 922 794 922 q 440 808 526 922 q 354 491 354 694 q 434 171 354 288 q 656 50 514 54 q 893 128 819 50 q 1001 406 963 200 l 1013 406 l 1046 153 q 658 -19 943 -19 q 210 115 372 -18 q 49 488 49 247 z "},"d":{"ha":1169,"x_min":40,"x_max":1122,"o":"m 568 972 q 976 844 829 972 q 1122 486 1122 715 q 976 128 1122 257 q 568 0 829 0 l 42 0 l 42 14 l 60 14 q 122 40 96 14 q 149 101 147 65 l 149 879 q 122 935 149 913 q 60 958 94 958 l 43 958 l 42 972 l 568 972 m 433 903 l 433 69 l 540 69 q 743 180 669 69 q 817 486 817 290 q 743 792 817 682 q 540 903 669 903 l 433 903 z "},"e":{"ha":925,"x_min":42,"x_max":907,"o":"m 60 14 q 122 40 96 14 q 149 101 147 65 l 149 871 q 111 942 147 915 q 60 958 89 958 l 42 958 l 42 972 l 657 972 q 763 982 717 972 q 822 997 810 992 l 822 711 l 808 711 l 808 722 q 728 878 808 833 q 635 901 689 900 l 433 901 l 433 514 l 585 514 q 693 558 651 515 q 735 667 735 600 l 735 672 l 749 672 l 749 286 l 735 286 l 735 293 q 693 401 735 358 q 586 444 651 443 l 433 444 l 433 71 l 604 71 q 783 138 706 71 q 893 322 861 204 l 907 322 l 854 0 l 42 0 l 42 14 l 60 14 z "},"f":{"ha":876,"x_min":40,"x_max":822,"o":"m 433 901 l 433 514 l 585 514 q 693 558 651 515 q 735 665 735 600 l 735 672 l 749 672 l 749 286 l 735 286 l 735 293 q 693 401 735 358 q 586 444 651 443 l 433 444 l 433 101 q 460 40 433 65 q 522 14 486 14 l 540 14 l 540 0 l 42 0 l 42 14 l 60 14 q 122 40 96 14 q 149 101 147 65 l 149 871 q 122 933 147 907 q 60 958 96 958 l 42 958 l 42 972 l 657 972 q 763 982 717 972 q 822 997 808 992 l 822 711 l 808 711 l 808 722 q 728 878 808 833 q 635 901 689 900 l 433 901 z "},"g":{"ha":1196,"x_min":47,"x_max":1179,"o":"m 590 -19 q 195 116 342 -19 q 49 488 49 251 q 196 858 49 725 q 604 992 343 992 q 836 973 717 992 q 1018 928 956 954 l 1004 663 l 992 663 q 674 922 919 922 q 354 475 354 922 q 420 161 354 272 q 621 50 486 50 q 749 90 694 50 q 804 199 804 129 l 806 389 q 787 435 806 419 q 735 451 768 451 l 713 451 l 713 465 l 1179 465 l 1179 451 l 1158 451 q 1106 435 1124 451 q 1089 389 1088 419 l 1089 160 q 807 8 1011 61 q 590 -19 701 -19 z "},"h":{"ha":1240,"x_min":40,"x_max":1200,"o":"m 718 14 q 780 39 754 14 q 807 100 806 64 l 807 451 l 433 451 l 433 101 q 478 25 435 50 q 522 14 499 14 l 540 14 l 540 0 l 42 0 l 42 14 l 60 14 q 122 40 96 14 q 149 101 147 65 l 149 872 q 122 933 147 908 q 60 958 96 958 l 42 958 l 42 972 l 540 972 l 540 958 l 522 958 q 460 933 486 958 q 433 872 435 908 l 433 521 l 807 521 l 807 872 q 780 933 806 908 q 718 958 754 958 l 700 958 l 700 972 l 1199 972 l 1199 958 l 1181 958 q 1104 915 1131 958 q 1092 871 1093 894 l 1092 101 q 1119 40 1093 65 q 1181 14 1144 14 l 1199 14 l 1199 0 l 700 0 l 700 14 l 718 14 z "},"i":{"ha":581,"x_min":40,"x_max":540,"o":"m 60 14 q 122 40 96 14 q 149 101 147 65 l 149 872 q 122 933 147 908 q 60 958 96 958 l 42 958 l 42 972 l 540 972 l 540 958 l 522 958 q 460 933 486 958 q 433 872 435 908 l 433 101 q 460 40 433 65 q 522 14 486 14 l 540 14 l 540 0 l 42 0 l 42 14 l 60 14 z "},"j":{"ha":589,"x_min":-7,"x_max":549,"o":"m 529 958 q 453 915 479 958 q 440 871 442 896 l 440 69 q 376 -131 440 -44 q 208 -254 311 -217 q 56 -282 135 -282 q -7 -278 25 -282 l -7 -265 q 156 74 156 -192 l 156 871 q 128 933 154 907 q 67 958 103 958 l 49 958 l 49 972 l 547 972 l 547 958 l 529 958 z "},"k":{"ha":1140,"x_min":40,"x_max":1178,"o":"m 60 14 q 122 40 96 14 q 149 101 147 65 l 149 872 q 122 933 147 908 q 60 958 96 958 l 42 958 l 42 972 l 540 972 l 540 958 l 522 958 q 460 933 486 958 q 433 872 435 908 l 433 101 q 460 40 433 65 q 522 14 486 14 l 540 14 l 540 0 l 42 0 l 42 14 l 60 14 m 1178 0 l 1028 0 q 671 139 772 0 q 553 317 629 194 q 478 442 478 440 l 810 894 q 819 919 819 908 q 815 939 819 931 q 776 960 806 960 l 763 960 l 763 972 l 1097 972 l 1097 960 l 1092 960 q 939 892 999 960 l 704 608 l 1029 119 q 1178 14 1097 17 l 1178 0 z "},"l":{"ha":906,"x_min":42,"x_max":907,"o":"m 60 14 q 122 40 96 14 q 149 101 147 65 l 149 871 q 104 947 147 922 q 60 958 83 958 l 42 958 l 42 972 l 540 972 l 540 958 l 522 958 q 460 933 486 958 q 433 871 433 907 l 433 71 l 604 71 q 783 138 706 71 q 893 322 861 204 l 907 322 l 854 0 l 42 0 l 42 14 l 60 14 z "},"m":{"ha":1344,"x_min":-36,"x_max":1381,"o":"m 1358 14 l 1381 14 l 1381 0 l 888 0 l 888 13 l 910 13 q 949 31 932 13 q 964 72 967 50 l 911 478 l 675 128 q 633 47 651 94 q 617 -33 615 0 l 604 -33 l 243 465 l 194 72 q 209 31 192 50 q 249 13 226 13 l 271 13 l 271 0 l -35 0 l -35 14 l -12 14 q 55 38 26 14 q 89 101 83 61 l 211 992 l 224 992 l 690 354 l 1118 992 l 1131 992 l 1257 101 q 1292 38 1264 61 q 1358 14 1319 14 z "},"n":{"ha":1224,"x_min":26,"x_max":1197,"o":"m 1171 958 q 1111 934 1136 958 q 1085 875 1086 910 l 1085 158 q 1099 0 1085 56 l 1103 -19 l 1090 -19 l 425 572 l 425 99 q 468 25 425 49 q 510 14 488 14 l 536 14 l 536 0 l 28 0 l 28 14 l 54 14 q 114 38 89 14 q 139 99 139 63 l 139 819 q 125 974 139 917 l 121 993 l 135 993 l 800 401 l 800 874 q 774 934 799 910 q 714 958 749 958 l 688 958 l 688 972 l 1196 972 l 1196 958 l 1171 958 z "},"o":{"ha":1250,"x_min":47,"x_max":1203,"o":"m 625 992 q 934 932 804 992 q 1133 758 1064 872 q 1203 486 1203 643 q 1049 115 1203 249 q 625 -19 894 -19 q 202 115 356 -19 q 49 486 49 249 q 202 858 49 724 q 625 992 356 992 m 427 165 q 463 108 427 165 q 626 50 499 50 q 824 165 753 50 q 896 486 896 281 q 824 807 896 692 q 626 922 753 922 q 427 807 499 922 q 356 486 356 692 q 427 165 356 281 z "},"p":{"ha":982,"x_min":49,"x_max":963,"o":"m 963 688 q 937 563 963 624 q 863 464 911 503 q 676 393 775 393 q 488 457 576 393 l 488 471 q 563 497 538 479 q 604 532 589 515 q 651 619 639 569 q 663 690 663 669 q 615 851 663 800 q 489 903 568 903 l 440 903 l 440 101 q 467 40 442 65 q 529 14 493 14 l 547 14 l 547 0 l 49 0 l 49 14 l 67 14 q 143 57 117 14 q 156 101 156 78 l 156 878 q 128 935 156 911 q 67 958 101 958 l 50 958 l 49 972 l 578 972 q 869 893 768 972 q 963 688 963 822 z "},"q":{"ha":1267,"x_min":54,"x_max":1911,"o":"m 1763 -367 q 1518 -425 1663 -425 q 1368 -402 1468 -425 q 1171 -326 1268 -379 q 993 -215 1074 -272 q 863 -119 913 -158 q 750 -51 813 -81 q 629 -19 688 -21 q 208 115 361 -18 q 56 486 56 249 q 209 858 56 724 q 632 992 363 992 q 941 932 811 992 q 1140 758 1071 872 q 1210 486 1210 643 q 1056 114 1210 247 q 874 15 981 49 q 1078 -34 990 -4 q 1279 -106 1165 -64 q 1625 -174 1467 -174 q 1901 -89 1783 -174 l 1911 -93 q 1873 -253 1911 -182 q 1763 -367 1835 -325 m 434 807 q 398 749 434 807 q 363 486 363 692 q 434 165 363 281 q 633 50 506 50 q 831 165 760 50 q 903 486 903 281 q 831 807 903 692 q 633 922 760 922 q 434 807 506 922 z "},"r":{"ha":1100,"x_min":49,"x_max":1186,"o":"m 938 819 q 960 719 960 771 q 949 627 960 667 q 914 549 938 588 q 738 446 863 465 q 835 392 792 431 q 921 283 881 353 q 1081 54 1025 106 q 1186 14 1122 15 l 1186 0 l 1013 0 q 754 40 832 0 q 596 236 643 97 q 574 321 583 276 q 559 385 565 365 q 544 423 553 406 q 526 450 536 440 q 488 475 510 467 l 488 489 l 510 489 q 631 563 590 489 q 656 647 651 601 q 661 703 661 692 q 661 717 661 714 q 503 900 651 900 l 442 900 l 442 101 q 468 40 442 65 q 531 14 494 14 l 547 14 l 547 0 l 49 0 l 49 14 l 67 14 q 128 39 103 14 q 156 100 154 64 l 156 871 q 111 947 154 922 q 67 958 90 958 l 49 958 l 49 972 l 592 972 q 938 819 864 972 z "},"s":{"ha":896,"x_min":61,"x_max":842,"o":"m 842 314 q 842 230 842 314 q 722 63 842 146 q 404 -19 603 -19 q 201 6 289 -19 q 75 71 114 32 q 63 137 63 101 q 68 206 63 172 q 119 333 83 288 l 132 333 q 131 315 131 325 q 212 131 131 213 q 433 50 293 50 q 578 90 528 50 q 629 180 629 129 q 594 267 629 231 q 482 339 560 303 l 256 444 q 117 565 160 488 q 82 700 82 626 q 183 928 82 850 q 408 992 268 992 q 643 978 500 992 l 751 978 l 721 751 l 707 751 q 647 875 707 828 q 495 922 588 922 q 352 890 403 922 q 297 806 301 858 q 381 694 292 740 q 421 676 396 686 l 681 556 q 842 314 842 482 z "},"t":{"ha":969,"x_min":13,"x_max":957,"o":"m 628 904 l 628 100 q 655 39 629 64 q 717 14 681 14 l 735 14 l 735 0 l 236 0 l 236 14 l 254 14 q 316 39 290 14 q 343 99 342 64 l 343 904 l 206 904 q 75 855 122 903 q 28 724 28 807 l 28 714 l 14 713 l 14 999 q 84 982 33 990 q 178 974 135 974 l 793 974 q 886 982 836 974 q 957 999 936 990 l 957 713 l 943 714 l 943 724 q 860 882 943 836 q 764 904 819 903 l 628 904 z "},"u":{"ha":1174,"x_min":40,"x_max":1147,"o":"m 1146 958 l 1124 958 q 1073 940 1094 958 q 1050 893 1051 921 l 1050 357 q 941 81 1050 181 q 635 -19 832 -19 q 261 78 385 -19 q 138 356 138 175 l 138 889 q 116 939 138 919 q 64 958 94 958 l 42 958 l 42 972 l 518 972 l 518 958 l 496 958 q 444 940 465 958 q 422 892 424 921 l 422 361 q 489 133 422 215 q 675 51 556 51 q 862 128 794 51 q 929 343 929 206 l 929 892 q 907 940 928 921 q 856 958 886 958 l 833 958 l 833 972 l 1146 972 l 1146 958 z "},"v":{"ha":1000,"x_min":-56,"x_max":1057,"o":"m 1056 958 l 1043 958 q 928 883 971 958 l 604 174 q 525 -33 531 18 l 513 -33 l 72 882 q -44 958 29 958 l -56 958 l -56 972 l 471 972 l 471 958 l 458 958 q 415 940 429 958 q 400 904 400 921 q 406 871 400 888 l 604 394 l 811 871 q 819 905 819 889 q 804 940 819 921 q 758 958 789 958 l 746 958 l 746 972 l 1056 972 l 1056 958 z "},"w":{"ha":1339,"x_min":-71,"x_max":1396,"o":"m 1394 958 l 1383 958 q 1296 925 1335 958 q 1264 879 1274 906 l 1028 124 q 1021 94 1025 113 l 1011 51 q 1007 1 1007 21 q 1008 -31 1007 -18 l 994 -31 l 674 574 l 454 124 q 417 -31 418 46 l 404 -31 l 61 879 q 9 939 42 919 q -58 958 -24 958 l -69 958 l -69 972 l 429 972 l 429 958 l 417 958 q 361 919 375 958 q 360 900 360 911 q 365 872 360 889 l 517 494 l 757 994 l 769 993 l 1046 482 l 1157 872 q 1160 899 1160 888 q 1156 925 1160 911 q 1138 949 1151 939 q 1104 958 1124 958 l 1092 958 l 1092 972 l 1394 972 l 1394 958 z "},"x":{"ha":1074,"x_min":-46,"x_max":1126,"o":"m 582 14 q 629 43 611 14 q 638 71 638 57 q 629 100 638 85 l 446 379 l 249 100 q 263 28 225 58 q 297 14 279 14 l 315 14 l 315 0 l -46 0 l -46 14 l -26 14 q 111 93 49 14 l 388 471 l 122 878 q 61 935 99 911 q -18 958 24 958 l -37 958 l -37 972 l 521 972 l 521 958 l 504 958 q 457 929 474 958 q 447 901 447 915 q 456 872 447 886 l 618 626 l 775 872 q 761 944 797 914 q 726 958 746 958 l 710 958 l 708 972 l 1068 972 l 1068 958 l 1049 958 q 911 878 968 958 l 679 532 l 965 94 q 1026 38 988 61 q 1106 14 1064 14 l 1125 14 l 1125 0 l 564 0 l 564 14 l 582 14 z "},"y":{"ha":1013,"x_min":-64,"x_max":1076,"o":"m 1076 958 l 1057 958 q 977 935 1015 958 q 917 876 939 911 l 644 447 l 644 101 q 670 40 644 65 q 733 14 696 14 l 750 14 l 750 0 l 253 0 l 253 14 l 271 14 q 333 39 307 14 q 360 100 358 64 l 360 447 l 94 879 q -1 951 60 933 q -43 958 -22 958 l -62 958 l -62 972 l 474 972 l 474 958 l 457 958 q 410 931 426 958 q 400 901 400 915 q 408 872 400 886 l 599 529 l 796 872 q 804 900 804 886 q 794 929 804 914 q 747 958 776 958 l 731 958 l 731 972 l 1076 972 l 1076 958 z "},"z":{"ha":926,"x_min":49,"x_max":894,"o":"m 68 999 q 141 982 89 990 q 215 974 193 974 q 236 974 236 974 l 715 974 q 814 981 774 974 q 863 992 854 988 l 863 979 l 396 69 l 592 69 q 771 137 693 69 q 881 322 849 204 l 894 322 l 842 0 l 49 0 l 49 13 l 510 904 l 260 904 q 129 855 176 903 q 82 724 82 807 l 82 713 l 68 713 l 68 999 z "},"{":{"ha":618,"x_min":0,"x_max":689,"o":"m 168 471 q 0 636 22 471 q 11 640 0 636 q 69 532 24 563 q 117 515 94 515 q 165 528 140 515 q 202 574 189 540 q 215 640 215 607 l 207 783 q 207 792 207 788 q 230 932 207 868 q 293 1035 253 996 q 506 1124 382 1124 q 689 1067 613 1124 l 682 1057 q 613 1068 638 1068 q 574 1064 589 1068 q 519 1021 533 1050 q 505 982 511 1004 q 494 846 499 960 q 406 553 486 631 q 168 471 319 471 m 682 -182 l 689 -192 q 506 -249 613 -249 q 293 -160 382 -249 q 230 -57 253 -121 q 207 82 207 7 l 214 219 q 211 267 214 242 q 161 347 206 325 q 117 360 140 360 q 69 343 94 360 q 11 233 24 313 l 0 238 q 26 324 7 289 q 67 376 44 360 q 119 398 89 392 q 160 404 149 404 q 174 404 171 404 q 406 322 325 399 q 464 226 443 286 q 489 113 485 167 q 494 23 493 58 q 497 -35 496 -12 q 501 -85 497 -57 q 513 -131 506 -114 q 533 -164 519 -147 q 565 -186 546 -181 q 613 -192 583 -192 q 682 -182 642 -192 z "},"|":{"ha":368,"x_min":139,"x_max":229,"o":"m 139 -250 l 139 972 l 229 972 l 229 -250 l 139 -250 z "},"}":{"ha":618,"x_min":-71,"x_max":619,"o":"m 406 656 q 408 608 406 633 q 457 526 414 550 q 502 515 479 515 q 550 532 525 515 q 608 640 594 563 l 619 636 q 567 513 607 549 q 524 483 547 496 q 447 471 500 471 q 213 553 299 471 q 155 647 176 588 q 129 767 133 707 q 122 915 125 828 q 107 1006 121 964 q -62 1057 76 1093 l -69 1067 q 114 1124 7 1124 q 326 1035 236 1124 q 389 932 365 996 q 413 792 413 868 l 406 656 m 619 238 l 608 233 q 585 303 601 274 q 496 360 553 360 q 422 314 453 360 q 406 219 406 288 l 413 82 q 389 -57 413 7 q 326 -160 365 -121 q 114 -249 236 -249 q -69 -192 7 -249 l -62 -182 q 7 -192 -22 -192 q 54 -186 36 -192 q 110 -122 89 -176 q 124 22 119 -99 q 213 322 132 244 q 450 404 300 404 q 619 238 597 404 z "},"~":{"ha":686,"x_min":36,"x_max":650,"o":"m 640 504 q 649 443 649 467 q 644 392 649 419 q 613 336 639 364 q 481 283 561 283 q 357 331 426 283 q 299 371 326 350 q 192 421 228 421 q 138 390 156 421 q 128 347 128 372 q 135 290 128 321 l 44 290 q 38 351 38 322 q 69 450 38 411 q 197 511 118 511 q 274 490 231 511 q 351 443 318 469 q 486 374 446 374 q 549 406 526 374 q 560 447 560 422 q 546 504 560 471 l 640 504 z "},"¡":{"ha":410,"x_min":63,"x_max":347,"o":"m 119 958 q 138 976 119 958 q 208 994 156 994 q 297 958 260 994 q 333 869 333 921 q 297 781 333 817 q 208 744 260 744 q 119 781 156 744 q 83 869 83 817 q 119 958 83 921 m 94 471 l 157 656 l 254 656 l 317 471 l 347 0 l 63 0 l 94 471 z "},"¢":{"ha":803,"x_min":21,"x_max":774,"o":"m 442 110 q 133 220 244 122 q 21 490 21 318 q 147 760 21 663 q 501 857 274 857 l 511 974 l 576 972 l 567 854 q 753 814 678 844 l 738 610 l 729 610 q 563 793 682 771 l 511 168 q 618 190 588 171 q 664 227 649 210 q 692 275 679 244 q 733 422 714 325 l 742 422 l 774 231 q 506 108 704 113 l 496 -12 l 432 -8 l 442 110 m 447 174 l 497 796 q 281 488 279 786 q 447 174 279 214 z "},"£":{"ha":861,"x_min":42,"x_max":856,"o":"m 793 33 q 650 -5 729 4 q 533 -14 571 -14 q 358 10 468 -14 q 221 33 247 33 q 180 33 194 33 q 115 15 165 32 q 56 -14 65 -3 l 42 -14 l 42 0 q 142 285 119 153 q 156 443 153 358 l 42 443 l 67 521 l 156 521 q 156 538 156 529 q 539 992 156 969 q 608 993 560 993 q 723 973 657 993 q 821 913 789 953 l 754 715 l 740 715 q 702 874 736 825 q 596 922 668 922 q 440 732 451 922 q 438 637 438 689 q 440 521 438 585 l 692 521 l 663 443 l 443 443 q 388 200 442 275 q 254 110 340 135 q 284 114 269 114 q 317 113 299 114 q 356 110 336 113 q 411 101 375 107 q 510 93 474 93 q 588 101 546 93 q 679 132 631 108 q 842 304 781 182 l 856 304 l 793 33 z "},"¤":{"ha":751,"x_min":69,"x_max":683,"o":"m 569 268 q 375 193 486 193 q 181 265 264 193 l 99 183 l 69 214 l 151 294 q 78 490 78 378 q 153 685 78 601 l 69 768 l 99 797 l 182 714 q 375 785 265 785 q 568 713 485 785 l 653 797 l 683 768 l 597 683 q 669 490 669 600 q 599 297 669 379 l 683 214 l 653 183 l 569 268 m 194 309 q 232 272 194 309 q 374 235 269 235 q 553 309 479 235 q 628 489 628 383 q 553 669 628 594 q 374 743 479 743 q 194 669 269 743 q 119 489 119 594 q 194 309 119 383 z "},"¥":{"ha":1013,"x_min":-64,"x_max":1076,"o":"m 1076 958 l 1057 958 q 977 935 1015 958 q 917 876 939 911 l 735 590 l 865 590 l 865 521 l 690 521 l 644 447 l 644 438 l 865 438 l 865 368 l 644 368 l 644 101 q 670 40 644 65 q 733 14 696 14 l 750 14 l 750 0 l 253 0 l 253 14 l 271 14 q 333 39 307 14 q 360 100 358 64 l 360 368 l 135 368 l 135 438 l 360 438 l 360 447 l 314 521 l 135 521 l 135 590 l 272 590 l 94 879 q -1 951 60 933 q -43 958 -22 958 l -62 958 l -62 972 l 474 972 l 474 958 l 457 958 q 410 931 426 958 q 400 901 400 915 q 408 872 400 886 l 599 529 l 796 872 q 804 900 804 886 q 794 929 804 914 q 747 958 776 958 l 731 958 l 731 972 l 1076 972 l 1076 958 z "},"¦":{"ha":368,"x_min":139,"x_max":229,"o":"m 139 486 l 139 972 l 229 972 l 229 486 l 139 486 m 139 -250 l 139 236 l 229 236 l 229 -250 l 139 -250 z "},"§":{"ha":744,"x_min":35,"x_max":711,"o":"m 460 994 q 640 942 576 994 q 678 878 678 908 q 658 821 678 849 q 593 776 631 776 q 535 802 569 776 q 478 850 500 828 q 388 910 432 897 q 372 911 382 911 q 343 898 361 911 q 325 865 325 885 q 335 823 325 844 q 363 778 346 801 q 406 727 381 754 q 452 678 431 700 q 499 632 474 656 q 651 418 601 528 q 711 174 711 286 q 621 -90 711 17 q 488 -185 569 -150 q 317 -221 407 -221 q 163 -196 228 -221 q 61 -90 61 -157 q 74 -44 61 -69 q 144 6 104 6 q 210 -21 171 6 q 274 -71 249 -47 q 374 -132 326 -119 q 390 -133 379 -133 q 419 -119 401 -133 q 438 -83 438 -104 q 410 -25 438 -62 q 305 88 383 13 q 201 189 226 164 q 89 340 129 260 q 36 554 36 443 q 190 894 36 757 q 460 994 301 994 m 201 810 q 165 650 165 731 q 206 521 165 597 q 268 434 228 476 q 347 352 308 392 q 410 287 386 313 q 468 217 433 261 q 519 138 503 172 q 551 7 551 71 q 549 -29 551 -11 q 581 107 581 36 q 447 367 581 217 q 388 431 428 388 q 328 496 347 474 q 281 553 308 518 q 242 610 253 588 q 206 720 210 678 q 201 784 201 763 q 201 810 201 806 z "},"¨":{"ha":833,"x_min":104,"x_max":675,"o":"m 280 954 q 265 939 280 954 q 208 924 250 924 q 135 954 165 924 q 106 1027 106 985 q 135 1099 106 1069 q 208 1129 165 1129 q 280 1099 250 1129 q 310 1027 310 1069 q 280 954 310 985 m 644 954 q 629 939 644 954 q 572 924 614 924 q 499 954 529 924 q 469 1027 469 985 q 499 1099 469 1069 q 572 1129 529 1129 q 644 1099 614 1129 q 674 1027 674 1069 q 644 954 674 985 z "},"©":{"ha":1178,"x_min":83,"x_max":1094,"o":"m 231 844 q 305 918 231 844 q 589 992 379 992 q 947 844 799 992 q 1094 486 1094 696 q 947 128 1094 276 q 589 -19 799 -19 q 231 128 379 -19 q 83 486 83 276 q 231 844 83 696 m 1022 486 q 895 792 1022 665 q 589 919 768 919 q 283 792 410 919 q 156 486 156 665 q 283 180 156 307 q 589 53 410 53 q 895 180 768 53 q 1022 486 1022 307 m 446 487 q 446 427 446 487 q 491 301 446 368 q 624 235 536 235 q 771 291 711 235 q 847 453 831 347 l 856 453 l 888 303 q 603 176 779 176 q 355 266 453 178 q 257 487 257 354 q 356 708 257 619 q 606 796 454 796 q 739 780 669 796 q 857 736 808 764 l 849 569 l 840 569 q 614 739 768 739 q 490 672 535 739 q 446 487 446 606 z "},"ª":{"ha":542,"x_min":-7,"x_max":550,"o":"m 543 529 l 549 529 l 549 524 l 264 524 l 264 529 l 271 529 q 294 539 285 529 q 299 564 303 549 l 276 610 l 138 610 l 117 568 q 118 540 108 551 q 143 529 128 529 l 150 529 l 150 524 l -7 524 l -7 529 l -1 529 q 56 561 35 529 l 215 882 q 257 986 254 969 l 263 986 l 488 561 q 543 529 510 529 m 154 646 l 258 646 l 207 753 l 154 646 z "},"«":{"ha":765,"x_min":56,"x_max":683,"o":"m 393 674 q 330 558 358 611 q 271 406 301 506 q 394 132 306 292 l 382 122 q 56 406 242 286 q 234 528 156 467 q 382 681 313 590 l 393 674 m 682 674 q 619 558 647 611 q 560 406 590 506 q 683 132 594 292 l 671 122 q 344 406 531 286 q 523 528 444 467 q 671 681 601 590 l 682 674 z "},"¬":{"ha":833,"x_min":56,"x_max":781,"o":"m 56 565 l 781 565 l 781 271 l 690 271 l 690 475 l 56 475 l 56 565 z "},"­":{"ha":528,"x_min":42,"x_max":486,"o":"m 42 406 l 56 461 l 472 461 l 486 406 l 472 349 l 56 349 l 42 406 z "},"®":{"ha":340,"x_min":14,"x_max":328,"o":"m 60 928 q 83 951 60 928 q 171 974 106 974 q 282 928 236 974 q 328 817 328 882 q 282 706 328 751 q 171 660 236 660 q 60 706 106 660 q 14 817 14 751 q 60 928 14 882 m 82 728 q 99 711 82 728 q 170 693 117 693 q 259 728 224 693 q 294 817 294 764 q 259 905 294 869 q 170 940 224 940 q 82 905 117 940 q 47 817 47 869 q 82 728 47 764 m 236 857 q 193 811 236 817 q 228 776 208 808 q 264 739 249 744 l 264 736 l 238 736 q 207 742 215 736 q 194 751 199 749 q 185 762 190 753 q 179 773 181 771 q 172 786 178 775 q 156 817 160 817 l 156 819 l 169 819 q 192 856 193 821 q 163 889 190 890 l 149 889 l 149 754 q 163 739 149 739 l 167 739 l 167 736 l 88 736 l 88 739 l 90 739 q 106 753 104 739 l 106 885 q 90 900 104 900 l 88 900 l 88 903 l 175 903 q 231 876 217 903 q 236 857 236 868 z "},"¯":{"ha":833,"x_min":208,"x_max":613,"o":"m 208 976 l 208 1094 l 611 1094 l 611 976 l 208 976 z "},"°":{"ha":329,"x_min":28,"x_max":303,"o":"m 68 883 q 88 902 68 883 q 165 922 108 922 q 261 883 221 922 q 301 786 301 843 q 261 689 301 729 q 165 649 221 649 q 68 689 108 649 q 28 786 28 729 q 68 883 28 843 m 204 826 q 196 834 204 826 q 165 842 188 842 q 125 826 142 842 q 108 786 108 810 q 125 747 108 763 q 165 731 142 731 q 204 747 188 731 q 221 786 221 763 q 204 826 221 810 z "},"±":{"ha":668,"x_min":56,"x_max":614,"o":"m 379 572 l 614 572 l 614 482 l 379 482 l 379 249 l 289 249 l 289 482 l 56 482 l 56 572 l 289 572 l 289 807 l 379 807 l 379 572 m 56 69 l 56 160 l 614 160 l 614 69 l 56 69 z "},"²":{"ha":582,"x_min":42,"x_max":542,"o":"m 217 954 q 118 776 118 954 l 110 776 l 42 936 q 268 999 117 999 q 474 926 410 999 q 506 847 506 892 q 484 762 506 801 q 428 692 463 722 q 294 603 363 633 l 424 603 q 533 689 494 603 l 540 689 l 483 428 l 53 428 l 53 435 q 102 501 69 458 q 152 569 135 544 q 196 631 169 593 q 237 694 222 668 q 267 753 251 721 q 294 862 294 813 q 272 933 294 911 q 217 954 250 954 z "},"³":{"ha":518,"x_min":28,"x_max":478,"o":"m 233 992 q 444 897 413 992 q 451 857 451 878 q 423 781 451 807 q 353 754 394 756 q 476 604 476 728 q 432 482 476 532 q 226 403 361 403 q 38 449 121 403 l 39 456 q 49 456 44 456 q 206 498 140 456 q 272 612 272 540 q 231 715 272 683 q 139 747 189 746 l 140 754 q 147 754 143 754 q 226 790 194 754 q 258 868 258 825 q 225 939 258 921 q 189 950 206 950 q 106 906 125 950 q 90 800 90 871 q 90 785 90 793 l 83 785 l 28 939 q 233 992 97 992 z "},"´":{"ha":833,"x_min":282,"x_max":617,"o":"m 293 1032 l 283 1042 q 374 1176 310 1103 q 497 1300 438 1249 q 617 1161 586 1263 q 456 1078 547 1115 q 293 1032 365 1040 z "},"¶":{"ha":750,"x_min":68,"x_max":738,"o":"m 600 204 q 574 70 600 128 q 506 -18 549 13 l 493 -7 q 529 118 528 51 q 531 201 531 139 l 531 903 l 415 903 l 415 0 q 356 -207 415 -126 q 268 -276 322 -253 l 258 -264 q 329 -159 315 -206 q 343 -65 343 -112 q 342 0 343 -18 l 342 463 q 147 532 224 463 q 69 717 69 601 q 148 902 69 832 q 342 972 226 972 l 594 972 q 604 972 594 972 q 617 972 614 972 q 628 973 619 972 q 643 976 638 974 q 658 980 649 978 q 674 987 667 982 q 690 997 682 992 q 726 1032 707 1008 l 736 1024 q 667 926 726 965 q 600 904 636 907 l 600 204 z "},"·":{"ha":347,"x_min":7,"x_max":340,"o":"m 76 535 q 100 553 76 535 q 174 571 124 571 q 271 535 224 571 q 340 446 318 500 q 271 356 318 392 q 174 321 224 321 q 76 356 124 321 q 7 446 29 392 q 76 535 29 500 m 201 511 q 167 517 188 517 q 119 497 146 517 q 79 446 92 476 q 146 381 99 399 q 181 375 160 375 q 228 395 201 375 q 268 446 256 415 q 201 511 249 493 z "},"¸":{"ha":833,"x_min":297,"x_max":561,"o":"m 394 -67 q 428 -60 414 -60 q 456 -60 442 -60 q 499 -67 471 -60 q 543 -96 526 -75 q 560 -133 560 -117 q 515 -235 560 -197 q 376 -285 458 -285 q 297 -272 339 -285 l 299 -258 q 397 -230 350 -258 q 443 -146 443 -201 q 421 -107 443 -124 q 367 -92 399 -92 q 308 -100 335 -92 l 301 -86 l 368 1 l 454 1 l 394 -67 z "},"¹":{"ha":406,"x_min":40,"x_max":365,"o":"m 364 436 l 364 428 l 47 428 l 47 436 l 63 436 q 92 448 81 436 q 104 476 104 460 l 104 878 q 94 919 104 901 q 47 938 85 938 l 42 938 l 42 944 q 172 959 86 946 q 300 993 257 972 l 307 993 l 307 476 q 319 448 307 460 q 349 436 332 436 l 364 436 z "},"º":{"ha":556,"x_min":28,"x_max":529,"o":"m 28 755 q 28 811 28 755 q 92 926 28 867 q 278 986 156 986 q 464 926 400 986 q 528 755 528 867 q 464 583 528 643 q 278 524 400 524 q 92 583 156 524 q 28 755 28 643 m 278 560 q 340 608 321 560 q 360 730 360 657 q 356 838 360 803 q 342 899 351 874 q 278 950 322 950 q 194 755 194 950 q 278 560 194 560 z "},"»":{"ha":765,"x_min":83,"x_max":711,"o":"m 372 132 q 435 249 407 194 q 496 406 464 303 q 374 674 461 515 l 385 681 q 494 563 433 618 q 601 476 556 508 q 711 406 646 444 q 385 122 524 286 l 372 132 m 83 132 q 121 199 111 181 q 207 406 175 300 q 176 494 193 447 q 85 674 158 542 l 96 681 q 244 528 165 590 q 422 406 322 467 q 96 122 235 286 l 83 132 z "},"¼":{"ha":1068,"x_min":26,"x_max":1028,"o":"m 829 1004 l 894 960 l 232 -28 l 165 15 l 829 1004 m 90 878 q 33 938 90 938 l 28 938 l 28 944 q 158 959 72 946 q 286 993 243 972 l 293 993 l 293 476 q 306 448 293 460 q 335 436 318 436 l 351 436 l 351 428 l 33 428 l 33 436 l 49 436 q 78 448 67 436 q 90 476 90 460 l 90 878 m 926 128 l 926 53 q 940 22 926 35 q 972 8 954 8 l 982 8 l 982 0 l 671 0 l 671 8 l 681 8 q 713 21 699 8 q 726 51 726 33 l 726 128 l 457 128 l 457 136 l 918 567 l 926 567 l 926 228 l 963 228 q 1019 267 1003 228 l 1028 267 l 999 128 l 926 128 m 726 229 l 726 321 l 622 229 l 726 229 z "},"½":{"ha":1181,"x_min":26,"x_max":1126,"o":"m 799 1004 l 864 960 l 201 -28 l 135 15 l 799 1004 m 33 938 l 28 938 l 28 944 q 158 959 72 946 q 286 993 243 972 l 293 993 l 293 476 q 306 448 293 460 q 335 436 318 436 l 350 436 l 350 428 l 33 428 l 33 436 l 49 436 q 78 448 67 436 q 90 476 90 460 l 90 878 q 33 938 90 938 m 801 528 q 701 349 703 528 l 694 349 l 626 508 q 853 572 701 572 q 1022 530 954 572 q 1090 415 1090 488 q 944 211 1090 307 q 879 175 911 190 l 1008 175 q 1118 261 1079 175 l 1125 261 l 1068 0 l 638 0 l 638 7 q 694 83 654 29 q 753 163 735 138 q 801 233 771 188 q 844 307 831 279 q 879 434 879 385 q 856 506 879 483 q 801 528 833 528 z "},"¾":{"ha":1165,"x_min":33,"x_max":1139,"o":"m 925 1004 l 990 960 l 328 -28 l 261 15 l 925 1004 m 226 992 q 286 992 226 992 q 402 957 347 992 q 457 865 457 922 q 428 781 457 807 q 360 754 400 756 q 483 604 483 728 q 439 482 483 532 q 232 403 367 403 q 44 449 128 403 l 46 456 q 56 456 50 456 q 213 498 147 456 q 279 612 279 540 q 238 715 279 683 q 146 747 196 746 l 147 754 q 153 754 150 754 q 233 790 201 754 q 264 868 264 825 q 232 939 264 921 q 196 950 211 950 q 111 906 132 950 q 97 800 97 871 q 97 785 97 793 l 89 785 l 35 939 q 226 992 104 992 m 1038 128 l 1038 53 q 1061 14 1038 28 q 1083 8 1071 8 l 1093 8 l 1093 0 l 782 0 l 782 8 l 792 8 q 823 21 810 8 q 838 51 836 33 l 838 128 l 568 128 l 568 136 l 1029 568 l 1038 568 l 1038 229 l 1074 229 q 1131 267 1114 229 l 1139 267 l 1110 128 l 1038 128 m 838 229 l 838 321 l 733 229 l 838 229 z "},"¿":{"ha":726,"x_min":42,"x_max":685,"o":"m 247 867 q 283 955 247 918 q 372 992 319 992 q 460 955 424 992 q 497 867 497 918 q 460 778 497 815 q 372 742 424 742 q 283 778 319 742 q 247 867 247 815 m 340 224 q 467 50 340 50 q 601 264 601 50 l 615 264 l 685 104 q 572 15 653 49 q 378 -19 490 -19 q 128 44 215 -19 q 42 226 42 108 q 87 364 42 307 q 246 504 132 421 q 326 586 318 557 q 317 665 338 624 l 329 674 q 454 582 419 650 q 469 531 469 553 q 467 490 469 510 q 450 445 465 471 q 417 400 435 419 q 381 358 399 381 q 340 224 340 308 z "},"À":{"ha":975,"x_min":-56,"x_max":1358,"o":"m 494 1099 l 485 1089 q 321 1135 411 1097 q 161 1218 231 1172 q 279 1357 190 1319 q 403 1233 339 1306 q 494 1099 468 1160 m 1358 -237 q 1140 -300 1251 -300 q 930 -258 1029 -300 q 735 -114 831 -217 q 579 139 640 -11 l 542 231 l 244 231 l 189 101 q 182 72 182 83 q 187 48 182 61 q 208 24 192 35 q 242 14 224 14 l 254 14 l 254 0 l -56 0 l -56 14 l -43 14 q 20 33 -11 14 q 72 89 51 51 l 356 711 q 287 866 314 826 q 242 926 260 906 q 158 983 208 965 q 113 990 139 990 q 53 978 86 990 l 50 992 q 264 1057 160 1057 q 456 988 365 1057 q 643 725 565 903 l 865 215 q 956 27 926 75 q 1008 -55 985 -21 q 1053 -114 1031 -89 q 1101 -162 1075 -139 q 1217 -225 1147 -204 q 1281 -235 1246 -235 q 1356 -224 1317 -235 l 1358 -237 m 275 300 l 514 300 l 426 515 q 400 586 415 540 l 275 300 z "},"Á":{"ha":975,"x_min":-56,"x_max":1358,"o":"m 433 1085 l 424 1094 q 514 1228 450 1156 q 639 1353 578 1301 q 757 1214 728 1315 q 597 1131 688 1168 q 433 1085 507 1093 m 1358 -237 q 1140 -300 1251 -300 q 930 -258 1029 -300 q 735 -113 831 -217 q 579 139 640 -10 l 542 231 l 244 231 l 189 101 q 182 72 182 83 q 187 48 182 61 q 208 24 192 35 q 242 14 224 14 l 254 14 l 254 0 l -56 0 l -56 14 l -43 14 q 20 33 -11 14 q 72 89 51 51 l 356 711 q 287 866 314 826 q 242 926 260 906 q 158 983 208 965 q 113 990 139 990 q 53 978 86 990 l 50 992 q 264 1057 160 1057 q 456 988 365 1057 q 643 725 565 903 l 865 215 q 956 27 926 75 q 1008 -55 985 -21 q 1053 -114 1031 -89 q 1101 -162 1075 -139 q 1217 -225 1147 -204 q 1281 -235 1246 -235 q 1356 -224 1317 -235 l 1358 -237 m 275 300 l 514 300 l 426 515 q 400 586 415 540 l 275 300 z "},"Â":{"ha":975,"x_min":-56,"x_max":1358,"o":"m 447 1322 l 463 1322 l 711 1078 l 701 1067 l 454 1157 l 222 1067 l 213 1078 l 447 1322 m 1358 -237 q 1140 -300 1251 -300 q 930 -258 1029 -300 q 735 -113 831 -217 q 579 139 640 -10 l 542 231 l 244 231 l 189 101 q 182 72 182 83 q 187 48 182 61 q 208 24 192 35 q 243 14 224 14 l 254 14 l 254 0 l -56 0 l -56 14 l -43 14 q 20 33 -11 14 q 72 89 51 51 l 356 711 q 287 866 314 826 q 242 926 260 906 q 158 983 208 965 q 113 990 139 990 q 53 978 86 990 l 50 992 q 263 1057 161 1057 q 533 910 413 1057 q 643 725 594 833 l 865 215 q 956 27 926 75 q 1008 -55 985 -21 q 1053 -114 1031 -89 q 1101 -162 1075 -139 q 1217 -225 1147 -204 q 1281 -235 1246 -235 q 1356 -224 1317 -235 l 1358 -237 m 275 300 l 514 300 l 426 515 q 400 586 415 540 l 275 300 z "},"Ã":{"ha":975,"x_min":-57,"x_max":1358,"o":"m 728 1304 l 744 1304 q 753 1253 753 1281 q 742 1200 753 1226 q 657 1106 711 1131 q 580 1089 624 1089 q 468 1124 536 1089 q 374 1162 399 1158 q 329 1165 350 1165 q 275 1143 308 1165 q 231 1093 242 1121 l 214 1093 q 208 1133 208 1113 q 271 1276 208 1217 q 366 1318 314 1318 q 493 1281 418 1318 q 631 1243 568 1243 q 685 1263 651 1243 q 728 1304 719 1283 m 1358 -237 q 1140 -300 1251 -300 q 930 -258 1029 -300 q 735 -114 831 -217 q 579 139 640 -11 l 542 231 l 244 231 l 189 101 q 181 67 181 83 q 196 33 181 51 q 242 14 211 14 l 254 14 l 254 0 l -56 0 l -56 14 l -43 14 q 20 33 -11 14 q 72 89 51 51 l 356 711 q 287 866 314 826 q 242 926 260 906 q 158 983 208 965 q 113 990 139 990 q 53 978 86 990 l 50 992 q 264 1057 160 1057 q 456 988 365 1057 q 643 725 565 903 l 865 215 q 956 27 926 75 q 1008 -55 985 -21 q 1053 -114 1031 -89 q 1101 -162 1075 -139 q 1217 -225 1147 -204 q 1281 -235 1246 -235 q 1356 -224 1317 -235 l 1358 -237 m 275 300 l 514 300 l 426 515 q 400 586 415 540 l 275 300 z "},"Ä":{"ha":975,"x_min":-56,"x_max":1358,"o":"m 342 1107 q 326 1092 342 1107 q 269 1076 311 1076 q 197 1107 226 1076 q 167 1180 167 1138 q 197 1252 167 1222 q 269 1282 226 1282 q 342 1252 311 1282 q 372 1180 372 1222 q 342 1107 372 1138 m 706 1107 q 691 1092 706 1107 q 634 1076 676 1076 q 562 1107 592 1076 q 532 1180 532 1138 q 562 1252 532 1222 q 634 1282 592 1282 q 706 1252 676 1282 q 736 1180 736 1222 q 706 1107 736 1138 m 1358 -237 q 1140 -300 1251 -300 q 930 -258 1029 -300 q 735 -113 831 -217 q 579 139 640 -10 l 542 231 l 244 231 l 189 101 q 182 72 182 83 q 187 48 182 61 q 208 24 192 35 q 242 14 224 14 l 254 14 l 254 0 l -56 0 l -56 14 l -43 14 q 20 33 -11 14 q 72 89 51 51 l 356 711 q 287 866 314 826 q 242 926 260 906 q 158 983 208 965 q 113 990 139 990 q 53 978 86 990 l 50 992 q 263 1057 161 1057 q 533 910 413 1057 q 643 725 594 833 l 865 215 q 956 27 926 75 q 1008 -55 985 -21 q 1053 -114 1031 -89 q 1101 -162 1075 -139 q 1217 -225 1147 -204 q 1281 -235 1246 -235 q 1356 -224 1317 -235 l 1358 -237 m 275 300 l 514 300 l 426 515 q 400 586 415 540 l 275 300 z "},"Å":{"ha":975,"x_min":-57,"x_max":1358,"o":"m 292 1212 q 292 1239 292 1212 q 339 1301 292 1265 q 456 1336 386 1336 q 573 1301 526 1336 q 619 1213 619 1267 q 572 1124 619 1160 q 455 1088 525 1088 q 338 1123 385 1088 q 292 1212 292 1158 m 526 1212 q 526 1230 526 1212 q 506 1271 526 1247 q 456 1294 486 1294 q 405 1271 425 1294 q 385 1212 385 1247 q 405 1153 385 1176 q 456 1131 425 1131 q 506 1153 486 1131 q 526 1212 526 1176 m 1358 -237 q 1140 -300 1251 -300 q 930 -258 1029 -300 q 735 -113 831 -217 q 579 139 640 -10 l 542 231 l 244 231 l 189 101 q 182 72 182 83 q 187 48 182 61 q 208 24 192 35 q 242 14 224 14 l 254 14 l 254 0 l -56 0 l -56 14 l -43 14 q 20 33 -11 14 q 72 89 51 51 l 356 711 q 287 866 314 826 q 242 926 260 906 q 158 983 208 965 q 113 990 139 990 q 53 978 86 990 l 50 992 q 264 1057 160 1057 q 456 988 365 1057 q 643 725 565 903 l 865 215 q 956 27 926 75 q 1008 -55 985 -21 q 1053 -114 1031 -89 q 1101 -162 1075 -139 q 1217 -225 1147 -204 q 1281 -235 1246 -235 q 1356 -224 1317 -235 l 1358 -237 m 275 300 l 514 300 l 426 515 q 400 586 415 540 l 275 300 z "},"Æ":{"ha":1307,"x_min":-472,"x_max":1308,"o":"m 56 76 q -67 -73 0 -17 q -195 -145 -135 -129 q -322 -161 -256 -161 q -472 -126 -387 -161 l -471 -112 q -421 -114 -446 -114 q -363 -110 -396 -114 q -279 -86 -331 -107 q -74 110 -179 -47 l 465 900 q 464 938 475 921 q 431 956 453 956 l 424 956 l 424 972 l 821 972 q 917 981 865 972 q 990 997 969 989 l 990 711 l 976 711 l 976 722 q 930 852 976 804 q 800 901 883 900 l 751 901 l 751 510 l 949 510 q 1053 555 1013 513 q 1094 661 1094 597 l 1094 668 l 1108 668 l 1108 282 l 1094 282 l 1094 289 q 1054 395 1094 353 q 951 440 1014 438 l 751 440 l 751 71 l 1006 71 q 1184 138 1107 71 q 1293 322 1261 204 l 1307 322 l 1254 0 l 383 0 l 385 14 l 397 14 q 445 33 425 14 q 467 81 465 53 l 468 81 l 468 440 l 278 440 l 56 76 m 468 510 l 468 753 l 321 510 l 468 510 z "},"Ç":{"ha":1153,"x_min":13,"x_max":1140,"o":"m 1132 558 q 1140 460 1140 503 q 1135 363 1140 418 q 1102 244 1129 308 q 1033 132 1075 181 q 935 50 990 83 q 669 -19 822 -18 l 618 -79 q 651 -72 638 -72 q 679 -72 665 -72 q 722 -80 693 -72 q 767 -108 750 -87 q 783 -146 783 -129 q 739 -247 783 -210 q 600 -296 681 -296 q 521 -285 561 -296 l 522 -271 q 619 -242 572 -271 q 667 -158 667 -214 q 643 -119 667 -136 q 531 -112 601 -90 l 524 -99 l 588 -17 q 163 134 311 0 q 14 481 14 268 q 189 853 14 715 q 664 992 364 992 q 1022 928 872 992 l 1008 663 l 996 663 q 671 922 924 922 q 411 809 503 922 q 319 496 319 696 q 415 176 319 296 q 692 50 511 56 q 1006 178 890 50 q 1121 525 1121 307 q 1121 558 1121 542 l 1132 558 z "},"È":{"ha":989,"x_min":42,"x_max":990,"o":"m 425 1071 l 415 1061 q 251 1107 342 1069 q 92 1190 161 1144 q 210 1329 121 1292 q 351 1184 296 1256 q 425 1071 407 1113 m 60 14 q 122 40 96 14 q 149 101 147 65 l 149 871 q 104 947 147 922 q 60 958 83 958 l 42 958 l 42 972 l 504 972 q 598 981 547 972 q 669 997 649 989 l 669 711 l 656 711 l 656 722 q 575 878 656 833 q 482 901 536 900 l 433 901 l 433 514 l 626 514 q 735 558 693 515 q 776 667 776 600 l 776 672 l 790 672 l 790 286 l 776 286 l 776 293 q 735 401 776 358 q 628 444 693 443 l 433 444 l 433 71 l 688 71 q 867 138 789 71 q 976 322 944 204 l 990 322 l 938 0 l 42 0 l 42 14 l 60 14 z "},"É":{"ha":989,"x_min":42,"x_max":990,"o":"m 364 1057 l 354 1067 q 445 1201 381 1128 q 569 1325 510 1274 q 688 1186 658 1288 q 528 1103 618 1140 q 364 1057 438 1065 m 60 14 q 122 40 96 14 q 149 101 147 65 l 149 871 q 122 933 147 907 q 60 958 96 958 l 42 958 l 42 972 l 504 972 q 610 982 564 972 q 669 997 657 992 l 669 711 l 656 711 l 656 722 q 575 878 656 833 q 482 901 536 900 l 433 901 l 433 514 l 626 514 q 735 558 693 515 q 776 667 776 600 l 776 672 l 790 672 l 790 286 l 776 286 l 776 293 q 735 401 776 358 q 628 444 693 443 l 433 444 l 433 71 l 688 71 q 867 138 789 71 q 976 322 944 204 l 990 322 l 938 0 l 42 0 l 42 14 l 60 14 z "},"Ê":{"ha":989,"x_min":42,"x_max":990,"o":"m 378 1294 l 394 1294 l 642 1050 l 632 1039 l 385 1129 l 153 1039 l 143 1050 l 378 1294 m 60 14 q 122 40 96 14 q 149 101 147 65 l 149 871 q 122 933 147 907 q 60 958 96 958 l 42 958 l 42 972 l 504 972 q 610 982 564 972 q 669 997 657 992 l 669 711 l 656 711 l 656 722 q 575 878 656 833 q 482 901 536 900 l 433 901 l 433 514 l 626 514 q 735 558 693 515 q 776 667 776 600 l 776 672 l 790 672 l 790 286 l 776 286 l 776 293 q 735 401 776 358 q 628 444 693 443 l 433 444 l 433 71 l 688 71 q 867 138 789 71 q 976 322 944 204 l 990 322 l 938 0 l 42 0 l 42 14 l 60 14 z "},"Ë":{"ha":989,"x_min":42,"x_max":990,"o":"m 273 1079 q 258 1064 273 1079 q 201 1049 243 1049 q 128 1079 158 1049 q 99 1152 99 1110 q 128 1224 99 1194 q 201 1254 158 1254 q 273 1224 243 1254 q 303 1152 303 1194 q 273 1079 303 1110 m 637 1079 q 622 1064 637 1079 q 565 1049 607 1049 q 492 1079 522 1049 q 463 1152 463 1110 q 492 1224 463 1194 q 565 1254 522 1254 q 637 1224 607 1254 q 667 1152 667 1194 q 637 1079 667 1110 m 60 14 q 122 40 96 14 q 149 101 147 65 l 149 871 q 122 933 147 907 q 60 958 96 958 l 42 958 l 42 972 l 504 972 q 598 981 547 972 q 669 997 649 989 l 669 711 l 656 711 l 656 722 q 575 878 656 833 q 482 901 536 900 l 433 901 l 433 514 l 626 514 q 735 558 693 515 q 776 667 776 600 l 776 672 l 790 672 l 790 286 l 776 286 l 776 293 q 735 401 776 358 q 628 444 693 443 l 433 444 l 433 71 l 688 71 q 867 138 789 71 q 976 322 944 204 l 990 322 l 938 0 l 42 0 l 42 14 l 60 14 z "},"Ì":{"ha":692,"x_min":-57,"x_max":654,"o":"m 438 1071 l 428 1061 q 265 1107 356 1069 q 104 1190 174 1144 q 224 1329 135 1292 q 347 1205 283 1278 q 438 1071 411 1132 m 633 14 l 651 14 l 651 0 l 153 0 l 153 14 l 171 14 q 233 40 207 14 q 260 101 258 65 l 260 903 l 139 899 q 14 813 22 894 q 14 804 14 808 q 40 742 14 765 q 107 718 67 718 q 124 718 115 718 l 124 710 q 63 693 93 693 q 3 711 33 693 q -56 814 -56 746 q -6 920 -56 878 q 151 967 44 963 q 249 971 167 968 q 392 975 332 974 q 651 1000 564 983 l 654 986 q 570 945 594 976 q 544 853 546 914 l 544 101 q 572 40 546 65 q 633 14 597 14 z "},"Í":{"ha":692,"x_min":-57,"x_max":701,"o":"m 376 1057 l 367 1067 q 458 1201 393 1128 q 582 1325 522 1274 q 700 1186 671 1288 q 540 1103 631 1140 q 376 1057 450 1065 m 633 14 l 651 14 l 651 0 l 153 0 l 153 14 l 171 14 q 233 40 207 14 q 260 101 258 65 l 260 903 l 139 899 q 14 813 22 894 q 14 804 14 808 q 40 742 14 765 q 107 718 67 718 q 124 718 115 718 l 124 710 q 63 693 93 693 q 3 711 33 693 q -56 814 -56 746 q -6 920 -56 878 q 151 967 44 963 q 249 971 167 968 q 392 975 332 974 q 651 1000 564 983 l 654 986 q 570 945 594 976 q 544 853 546 914 l 544 101 q 572 40 546 65 q 633 14 597 14 z "},"Î":{"ha":692,"x_min":-57,"x_max":656,"o":"m 390 1294 l 407 1294 l 654 1050 l 644 1039 l 399 1129 l 165 1039 l 156 1050 l 390 1294 m 633 14 l 651 14 l 651 0 l 153 0 l 153 14 l 171 14 q 233 40 207 14 q 260 101 258 65 l 260 903 l 139 899 q 14 813 22 894 q 14 804 14 808 q 40 742 14 765 q 107 718 67 718 q 124 718 115 718 l 124 710 q 63 693 93 693 q 3 711 33 693 q -56 814 -56 746 q -6 920 -56 878 q 151 967 44 963 q 226 969 171 968 q 333 973 282 971 q 444 979 385 975 q 651 1000 576 986 l 654 986 q 570 945 594 976 q 544 853 546 914 l 544 101 q 571 40 544 65 q 633 14 597 14 z "},"Ï":{"ha":692,"x_min":-57,"x_max":681,"o":"m 285 1079 q 270 1064 285 1079 q 213 1049 256 1049 q 141 1079 171 1049 q 111 1152 111 1110 q 141 1224 111 1194 q 213 1254 171 1254 q 285 1224 256 1254 q 315 1152 315 1194 q 285 1079 315 1110 m 651 1079 q 636 1064 651 1079 q 578 1049 621 1049 q 506 1079 536 1049 q 475 1152 475 1110 q 506 1224 475 1194 q 578 1254 536 1254 q 651 1224 621 1254 q 681 1152 681 1194 q 651 1079 681 1110 m 633 14 l 651 14 l 651 0 l 153 0 l 153 14 l 171 14 q 233 40 207 14 q 260 101 258 65 l 260 903 l 139 899 q 14 813 22 894 q 14 804 14 808 q 40 742 14 765 q 107 718 67 718 q 124 718 115 718 l 124 710 q 63 693 93 693 q 3 711 33 693 q -56 814 -56 746 q -6 920 -56 878 q 151 967 44 963 q 249 971 167 968 q 392 975 332 974 q 651 1000 564 983 l 654 986 q 556 919 576 974 q 544 853 546 893 l 544 101 q 571 40 544 65 q 633 14 597 14 z "},"Ð":{"ha":1219,"x_min":-140,"x_max":1172,"o":"m 618 0 l 92 0 l 92 14 l 110 14 q 172 40 146 14 q 199 101 197 65 l 199 451 l 92 451 l 92 521 l 199 521 l 199 894 q -22 813 53 879 q -125 667 -86 756 l -139 672 q 5 897 -111 822 q 296 972 121 972 l 618 972 q 1026 844 879 972 q 1172 486 1172 715 q 1025 128 1172 257 q 618 0 878 0 m 483 451 l 483 69 l 590 69 q 590 69 590 69 q 793 180 719 69 q 867 486 867 290 q 793 792 867 682 q 590 903 719 903 l 483 900 l 483 521 l 633 521 l 633 451 l 483 451 z "},"Ñ":{"ha":1224,"x_min":-321,"x_max":1586,"o":"m 829 1276 l 846 1276 q 854 1226 854 1253 q 843 1172 854 1199 q 758 1078 813 1103 q 681 1061 725 1061 q 569 1096 638 1061 q 476 1134 500 1131 q 431 1138 451 1138 q 376 1115 410 1138 q 332 1065 343 1093 l 315 1065 q 310 1106 310 1085 q 372 1249 310 1189 q 478 1290 415 1290 q 547 1275 513 1290 q 621 1241 581 1260 q 686 1219 661 1222 q 732 1215 711 1215 q 787 1235 753 1215 q 829 1276 821 1256 m 1585 -187 q 1401 -240 1500 -240 q 1222 -189 1315 -240 q 1035 -43 1126 -137 l 425 588 l 425 99 q 468 25 425 50 q 510 14 488 14 l 536 14 l 536 0 l 28 0 l 28 14 l 54 14 q 114 38 89 14 q 139 99 139 63 l 139 885 q -236 1113 -75 1113 q -314 1099 -276 1113 l -321 1111 q -146 1167 -243 1167 q 40 1113 -61 1167 q 229 967 140 1057 l 800 376 l 800 874 q 774 934 799 910 q 714 958 749 958 l 688 958 l 688 972 l 1196 972 l 1196 958 l 1171 958 q 1111 934 1136 958 q 1085 875 1086 910 l 1085 82 l 1110 56 q 1142 21 1110 56 q 1187 -25 1175 -14 q 1235 -69 1199 -36 q 1293 -115 1271 -101 q 1354 -149 1315 -128 q 1425 -176 1393 -171 q 1501 -185 1461 -185 q 1579 -174 1542 -185 l 1585 -187 z "},"Ò":{"ha":1293,"x_min":14,"x_max":1281,"o":"m 683 1090 l 674 1081 q 510 1126 601 1089 q 350 1210 419 1164 q 469 1349 381 1311 q 610 1203 554 1275 q 683 1090 665 1132 m 510 601 q 467 754 467 674 q 550 935 467 865 q 674 992 600 978 q 747 999 719 999 q 892 980 832 999 q 1007 935 951 961 q 1112 865 1063 910 q 1199 768 1161 821 q 1279 493 1279 654 q 1106 120 1279 260 q 649 -19 933 -19 q 189 121 364 -19 q 14 490 14 261 q 131 815 14 679 q 438 982 249 950 l 446 968 q 355 791 389 908 q 321 538 321 674 q 410 183 321 317 q 647 50 499 50 q 883 171 794 50 q 972 493 972 292 q 937 722 972 621 q 839 874 901 824 q 706 924 776 924 q 568 869 617 924 q 511 714 511 807 q 526 601 511 661 l 510 601 z "},"Ó":{"ha":1293,"x_min":14,"x_max":1279,"o":"m 622 1076 l 613 1086 q 774 1293 650 1172 q 828 1344 803 1322 q 946 1206 917 1307 q 786 1122 876 1160 q 622 1076 696 1085 m 510 601 q 467 754 467 674 q 550 935 467 865 q 674 992 600 978 q 747 999 719 999 q 892 980 832 999 q 1007 935 951 961 q 1112 865 1063 910 q 1199 768 1161 821 q 1279 493 1279 654 q 1106 120 1279 260 q 649 -19 933 -19 q 189 121 364 -19 q 14 490 14 261 q 131 815 14 679 q 438 982 249 950 l 446 968 q 355 791 389 908 q 321 538 321 674 q 410 183 321 317 q 650 50 499 50 q 883 169 794 50 q 972 493 972 290 q 937 722 972 621 q 839 874 901 824 q 706 924 776 924 q 568 869 617 924 q 511 714 511 807 q 526 601 511 661 l 510 601 z "},"Ô":{"ha":1293,"x_min":13,"x_max":1279,"o":"m 636 1314 l 653 1314 l 901 1069 l 890 1058 l 644 1149 l 411 1058 l 401 1069 l 636 1314 m 510 601 q 467 754 467 674 q 520 906 467 840 q 674 992 574 972 q 747 999 719 999 q 892 980 832 999 q 1007 935 951 961 q 1112 865 1063 910 q 1199 768 1161 821 q 1279 493 1279 654 q 1106 120 1279 260 q 649 -19 933 -19 q 189 121 364 -19 q 14 490 14 261 q 131 815 14 679 q 438 982 249 950 l 446 968 q 355 791 389 908 q 321 538 321 674 q 410 183 321 317 q 647 50 499 50 q 883 171 794 50 q 972 493 972 292 q 937 722 972 621 q 839 874 901 824 q 706 924 776 924 q 568 869 617 924 q 511 714 511 807 q 526 601 511 661 l 510 601 z "},"Õ":{"ha":1293,"x_min":13,"x_max":1279,"o":"m 917 1296 l 935 1296 q 943 1245 943 1272 q 931 1192 943 1218 q 846 1097 901 1122 q 774 1081 813 1081 q 699 1096 736 1081 q 624 1131 663 1111 q 562 1153 585 1150 q 519 1157 539 1157 q 465 1135 499 1157 q 421 1085 432 1113 l 403 1085 q 399 1125 399 1104 q 460 1268 399 1208 q 555 1310 503 1310 q 683 1272 607 1310 q 821 1235 758 1235 q 874 1255 840 1235 q 917 1296 908 1275 m 510 601 q 467 754 467 674 q 520 906 467 840 q 674 992 574 972 q 747 999 719 999 q 892 980 832 999 q 1007 935 951 961 q 1112 865 1063 910 q 1199 768 1161 821 q 1279 493 1279 654 q 1106 120 1279 260 q 648 -19 933 -19 q 188 121 363 -19 q 14 490 14 261 q 131 815 14 679 q 438 982 249 950 l 446 968 q 355 791 389 908 q 321 538 321 674 q 410 183 321 317 q 650 50 499 50 q 883 169 794 50 q 972 493 972 290 q 937 722 972 621 q 839 874 901 824 q 706 924 776 924 q 568 869 617 924 q 511 714 511 807 q 526 601 511 661 l 510 601 z "},"Ö":{"ha":1293,"x_min":14,"x_max":1279,"o":"m 531 1099 q 516 1083 531 1099 q 459 1068 501 1068 q 387 1099 417 1068 q 357 1172 357 1129 q 387 1244 357 1214 q 459 1274 417 1274 q 531 1244 501 1274 q 561 1172 561 1214 q 531 1099 561 1129 m 897 1099 q 882 1083 897 1099 q 824 1068 867 1068 q 751 1099 782 1068 q 721 1172 721 1129 q 751 1244 721 1214 q 824 1274 782 1274 q 897 1244 867 1274 q 926 1172 926 1214 q 897 1099 926 1129 m 510 601 q 467 754 467 674 q 550 935 467 865 q 674 992 600 978 q 747 999 719 999 q 892 980 832 999 q 1007 935 951 961 q 1112 865 1063 910 q 1199 768 1161 821 q 1279 493 1279 654 q 1106 120 1279 260 q 649 -19 933 -19 q 189 121 364 -19 q 14 490 14 261 q 131 815 14 679 q 438 982 249 950 l 446 968 q 355 791 389 908 q 321 538 321 674 q 410 183 321 317 q 650 50 499 50 q 883 169 794 50 q 972 493 972 290 q 937 722 972 621 q 839 874 901 824 q 706 924 776 924 q 568 869 617 924 q 511 714 511 807 q 526 601 511 661 l 510 601 z "},"×":{"ha":569,"x_min":56,"x_max":515,"o":"m 514 596 l 349 431 l 514 265 l 450 201 l 285 367 l 119 201 l 56 265 l 221 431 l 56 596 l 119 660 l 285 494 l 450 660 l 514 596 z "},"Ø":{"ha":1257,"x_min":-7,"x_max":1260,"o":"m 489 601 q 446 754 446 674 q 529 935 446 865 q 724 1000 606 1000 q 953 950 842 1000 l 1003 1008 l 1064 961 l 1024 914 q 1226 674 1168 825 q 1258 493 1258 590 q 1085 120 1258 260 q 628 -19 913 -19 q 282 50 432 -19 l 213 -32 l 151 18 l 213 89 q 50 260 107 157 q -7 490 -7 363 q 110 815 -7 679 q 417 982 228 950 l 425 968 q 334 791 368 908 q 300 522 300 674 q 351 251 300 371 l 854 836 q 686 924 785 924 q 547 869 596 924 q 490 714 490 807 q 506 601 490 661 l 489 601 m 393 178 q 628 50 482 50 q 863 171 774 50 q 951 493 951 292 q 897 767 951 651 l 393 178 z "},"Ù":{"ha":1183,"x_min":42,"x_max":1331,"o":"m 732 1071 l 722 1061 q 558 1107 649 1069 q 399 1190 468 1144 q 517 1329 428 1292 q 641 1205 576 1278 q 732 1071 706 1132 m 1292 1282 q 1331 1279 1311 1282 l 1331 1265 q 1142 1147 1206 1250 q 1078 875 1078 1044 l 1078 357 q 960 77 1075 174 q 621 -19 846 -19 q 267 81 396 -19 q 138 347 138 181 q 138 356 138 351 l 138 890 q 116 939 138 919 q 64 958 94 958 l 42 958 l 42 972 l 518 972 l 518 958 l 496 958 q 428 917 447 958 q 422 893 422 906 l 422 361 q 495 134 422 217 q 689 51 568 51 q 691 51 690 51 q 693 51 692 51 q 883 128 808 51 q 957 343 957 206 l 957 875 q 1057 1171 957 1047 q 1167 1255 1104 1228 q 1292 1282 1231 1282 z "},"Ú":{"ha":1183,"x_min":42,"x_max":1331,"o":"m 671 1057 l 661 1067 q 752 1201 688 1128 q 876 1325 817 1274 q 994 1186 965 1288 q 835 1103 925 1140 q 671 1057 744 1065 m 1292 1282 q 1331 1279 1311 1282 l 1331 1265 q 1142 1147 1206 1250 q 1078 875 1078 1044 l 1078 357 q 960 77 1075 174 q 621 -19 846 -19 q 267 81 396 -19 q 138 347 138 181 q 138 356 138 351 l 138 890 q 116 939 138 919 q 64 958 94 958 l 42 958 l 42 972 l 518 972 l 518 958 l 496 958 q 428 917 447 958 q 422 893 422 906 l 422 361 q 495 135 422 217 q 689 53 568 53 q 691 53 690 53 q 693 53 692 53 q 883 129 808 53 q 957 343 957 206 l 957 875 q 1057 1171 957 1047 q 1167 1255 1104 1228 q 1292 1282 1231 1282 z "},"Û":{"ha":1183,"x_min":42,"x_max":1331,"o":"m 685 1294 l 701 1294 l 949 1050 l 939 1039 l 692 1129 l 460 1039 l 450 1050 l 685 1294 m 1292 1282 q 1331 1279 1311 1282 l 1331 1265 q 1142 1147 1206 1250 q 1078 875 1078 1044 l 1078 357 q 960 77 1075 174 q 621 -19 846 -19 q 267 81 396 -19 q 138 347 138 181 q 138 356 138 351 l 138 890 q 116 939 138 919 q 64 958 94 958 l 42 958 l 42 972 l 518 972 l 518 958 l 496 958 q 444 939 464 958 q 422 893 424 919 l 422 361 q 495 134 422 217 q 689 51 568 51 q 691 51 690 51 q 693 51 692 51 q 883 128 808 51 q 957 343 957 206 l 957 875 q 1057 1171 957 1047 q 1167 1255 1104 1228 q 1292 1282 1231 1282 z "},"Ü":{"ha":1183,"x_min":42,"x_max":1331,"o":"m 1292 1282 q 1331 1279 1311 1282 l 1331 1265 q 1142 1147 1206 1250 q 1078 875 1078 1044 l 1078 357 q 960 77 1075 174 q 621 -19 846 -19 q 267 81 396 -19 q 138 347 138 181 q 138 356 138 351 l 138 890 q 116 939 138 919 q 64 958 94 958 l 42 958 l 42 972 l 518 972 l 518 958 l 496 958 q 432 925 453 958 q 422 893 424 910 l 422 361 q 495 134 422 217 q 689 51 568 51 q 691 51 690 51 q 693 51 692 51 q 883 128 808 51 q 957 343 957 206 l 957 875 q 1057 1171 957 1047 q 1167 1255 1104 1228 q 1292 1282 1231 1282 m 580 1080 q 565 1065 580 1080 q 508 1050 550 1050 q 435 1080 465 1050 q 404 1152 404 1110 q 435 1224 404 1194 q 508 1254 465 1254 q 580 1224 550 1254 q 610 1152 610 1194 q 580 1080 610 1110 m 944 1080 q 929 1065 944 1080 q 872 1050 914 1050 q 799 1080 829 1050 q 769 1152 769 1110 q 799 1224 769 1194 q 872 1254 829 1254 q 944 1224 914 1254 q 974 1152 974 1194 q 944 1080 974 1110 z "},"Ý":{"ha":971,"x_min":-118,"x_max":1028,"o":"m 483 1057 l 474 1067 q 564 1201 500 1128 q 689 1325 628 1274 q 807 1186 778 1288 q 647 1103 738 1140 q 483 1057 557 1065 m -40 1057 q 319 963 163 1057 q 581 640 504 850 q 757 931 636 804 q 881 1023 815 990 q 1008 1056 947 1056 q 1028 1054 1018 1056 l 1028 1040 q 894 973 964 1038 q 769 816 824 908 q 676 624 715 724 q 626 447 636 524 l 626 101 q 669 26 626 51 q 715 14 690 14 l 732 14 l 733 0 l 235 0 l 235 14 l 253 14 q 315 40 289 14 q 342 101 340 65 l 342 447 q 236 738 311 593 q 144 881 194 817 q 25 990 94 944 q -118 1040 -44 1035 l -118 1054 q -40 1057 -78 1057 z "},"Þ":{"ha":982,"x_min":58,"x_max":963,"o":"m 963 490 q 937 367 963 426 q 863 267 911 307 q 676 196 775 196 q 488 260 576 196 l 488 274 q 563 301 538 282 q 604 335 589 319 q 651 422 639 372 q 663 493 663 472 q 615 654 663 603 q 489 706 568 706 l 451 706 l 451 101 q 496 25 451 50 q 540 14 515 14 l 557 14 l 557 0 l 60 0 l 60 14 l 76 14 q 140 40 114 14 q 167 101 165 65 l 167 872 q 140 933 165 908 q 78 958 114 958 l 60 958 l 60 972 l 557 972 l 557 958 l 540 958 q 478 933 504 958 q 451 872 451 908 l 451 775 l 578 775 q 903 665 808 775 q 963 490 963 596 z "},"ß":{"ha":1792,"x_min":61,"x_max":1738,"o":"m 842 314 q 842 230 842 314 q 722 63 842 146 q 404 -19 603 -19 q 201 6 289 -19 q 75 71 114 32 q 63 137 63 101 q 68 206 63 172 q 119 333 83 288 l 132 333 q 131 315 131 325 q 212 131 131 213 q 433 50 293 50 q 578 90 528 50 q 629 180 629 129 q 594 267 629 231 q 482 339 560 303 l 256 444 q 117 565 160 488 q 82 700 82 626 q 183 928 82 850 q 408 992 268 992 q 643 978 500 992 l 751 978 l 721 751 l 707 751 q 647 875 707 828 q 495 922 588 922 q 352 890 403 922 q 297 806 301 858 q 381 694 292 740 q 421 676 396 686 l 681 556 q 842 314 842 482 m 1738 314 q 1738 230 1738 314 q 1618 63 1738 146 q 1300 -19 1499 -19 q 1097 6 1185 -19 q 971 71 1010 32 q 958 137 958 101 q 964 206 958 172 q 1015 333 979 288 l 1028 333 q 1026 315 1026 325 q 1108 131 1026 213 q 1329 50 1189 50 q 1474 90 1424 50 q 1525 180 1525 129 q 1490 267 1525 231 q 1378 339 1456 303 l 1151 444 q 1013 565 1056 488 q 978 700 978 626 q 1079 928 978 850 q 1304 992 1164 992 q 1539 978 1396 992 l 1647 978 l 1617 751 l 1603 751 q 1543 875 1603 828 q 1391 922 1483 922 q 1247 890 1299 922 q 1193 796 1193 854 q 1223 731 1193 757 q 1317 676 1253 704 l 1576 556 q 1738 314 1738 482 z "},"à":{"ha":1000,"x_min":-56,"x_max":1057,"o":"m 524 1071 l 514 1061 q 350 1107 440 1069 q 190 1190 260 1144 q 308 1329 219 1292 q 433 1205 369 1278 q 524 1071 497 1132 m 1044 14 l 1056 14 l 1056 0 l 529 0 l 529 14 l 542 14 q 588 33 572 14 q 603 67 603 51 q 596 101 603 83 l 542 231 l 244 231 l 189 101 q 182 72 182 83 q 187 48 182 61 q 208 24 192 35 q 242 14 224 14 l 254 14 l 254 0 l -56 0 l -56 14 l -43 14 q 20 33 -11 14 q 72 89 51 51 l 396 799 q 475 1006 469 954 l 488 1006 l 928 90 q 1044 14 972 14 m 275 300 l 513 300 l 396 578 l 275 300 z "},"á":{"ha":1000,"x_min":-57,"x_max":1057,"o":"m 463 1057 l 453 1067 q 544 1201 479 1128 q 668 1325 608 1274 q 786 1186 757 1288 q 626 1103 717 1140 q 463 1057 536 1065 m 1044 14 l 1056 14 l 1056 0 l 529 0 l 529 14 l 542 14 q 588 33 572 14 q 603 67 603 51 q 596 101 603 83 l 542 231 l 244 231 l 189 101 q 182 72 182 83 q 187 48 182 61 q 208 24 192 35 q 242 14 224 14 l 254 14 l 254 0 l -56 0 l -56 14 l -43 14 q 20 33 -11 14 q 72 89 51 51 l 396 799 q 475 1006 469 954 l 488 1006 l 928 90 q 1044 14 972 14 m 275 300 l 513 300 l 396 578 l 275 300 z "},"â":{"ha":1000,"x_min":-57,"x_max":1057,"o":"m 476 1294 l 493 1294 l 740 1050 l 731 1039 l 483 1129 l 251 1039 l 242 1050 l 476 1294 m 1044 14 l 1056 14 l 1056 0 l 529 0 l 529 14 l 542 14 q 588 33 572 14 q 603 67 603 51 q 596 101 603 83 l 542 231 l 244 231 l 189 101 q 182 72 182 83 q 187 48 182 61 q 208 24 192 35 q 242 14 224 14 l 254 14 l 254 0 l -56 0 l -56 14 l -43 14 q 20 33 -11 14 q 72 89 51 51 l 396 799 q 475 1006 469 954 l 488 1006 l 928 90 q 1044 14 972 14 m 275 300 l 513 300 l 396 578 l 275 300 z "},"ã":{"ha":1000,"x_min":-57,"x_max":1057,"o":"m 757 1276 l 775 1276 q 783 1226 783 1253 q 771 1172 783 1199 q 686 1078 742 1103 q 610 1061 653 1061 q 497 1096 567 1061 q 404 1134 429 1131 q 359 1138 379 1138 q 306 1115 339 1138 q 261 1065 272 1093 l 243 1065 q 239 1106 239 1085 q 300 1249 239 1189 q 395 1290 343 1290 q 522 1253 447 1290 q 660 1215 597 1215 q 715 1235 681 1215 q 757 1276 749 1256 m 928 90 q 1044 14 972 14 l 1056 14 l 1056 0 l 529 0 l 529 14 l 542 14 q 588 33 572 14 q 603 67 603 51 q 596 101 603 83 l 542 231 l 244 231 l 189 101 q 181 67 181 83 q 196 33 181 51 q 242 14 211 14 l 254 14 l 254 0 l -56 0 l -56 14 l -43 14 q 20 33 -11 14 q 72 89 51 51 l 396 799 q 475 1006 469 954 l 488 1006 l 928 90 m 275 300 l 513 300 l 396 578 l 275 300 z "},"ä":{"ha":1000,"x_min":-57,"x_max":1057,"o":"m 372 1079 q 357 1064 372 1079 q 299 1049 342 1049 q 227 1079 257 1049 q 197 1152 197 1110 q 227 1224 197 1194 q 299 1254 257 1254 q 372 1224 342 1254 q 401 1152 401 1194 q 372 1079 401 1110 m 737 1079 q 722 1064 737 1079 q 665 1049 707 1049 q 592 1079 622 1049 q 561 1152 561 1110 q 592 1224 561 1194 q 665 1254 622 1254 q 737 1224 707 1254 q 767 1152 767 1194 q 737 1079 767 1110 m 1044 14 l 1056 14 l 1056 0 l 529 0 l 529 14 l 542 14 q 588 33 572 14 q 603 67 603 51 q 596 101 603 83 l 542 231 l 244 231 l 189 101 q 182 72 182 83 q 187 48 182 61 q 208 24 192 35 q 242 14 224 14 l 254 14 l 254 0 l -56 0 l -56 14 l -43 14 q 20 33 -11 14 q 72 89 51 51 l 396 799 q 475 1006 469 954 l 488 1006 l 928 90 q 1044 14 972 14 m 275 300 l 513 300 l 396 578 l 275 300 z "},"å":{"ha":1000,"x_min":-57,"x_max":1057,"o":"m 321 1184 q 321 1211 321 1184 q 368 1273 321 1238 q 485 1308 415 1308 q 602 1274 556 1308 q 649 1185 649 1239 q 602 1096 649 1132 q 485 1060 556 1060 q 367 1095 414 1060 q 321 1184 321 1131 m 557 1184 q 557 1202 557 1184 q 536 1243 557 1219 q 485 1267 515 1267 q 434 1243 454 1267 q 414 1184 414 1219 q 434 1126 414 1149 q 485 1103 454 1103 q 536 1126 515 1103 q 557 1184 557 1149 m 1044 14 l 1056 14 l 1056 0 l 529 0 l 529 14 l 542 14 q 588 33 572 14 q 603 67 603 51 q 596 101 603 83 l 542 231 l 244 231 l 189 101 q 182 72 182 83 q 186 48 182 61 q 207 24 190 35 q 242 14 224 14 l 254 14 l 254 0 l -56 0 l -56 14 l -43 14 q 20 33 -11 14 q 72 89 51 51 l 396 799 q 475 1006 469 954 l 488 1006 l 928 90 q 1044 14 972 14 m 275 300 l 513 300 l 396 578 l 275 300 z "},"æ":{"ha":1408,"x_min":-46,"x_max":1392,"o":"m 578 14 q 640 56 622 14 q 647 81 646 68 l 647 440 l 429 440 l 219 101 q 207 66 207 82 q 224 32 207 50 q 272 14 240 14 l 285 14 l 285 0 l -46 0 l -46 14 l -33 14 q 86 99 26 14 l 629 890 q 640 919 640 908 q 600 958 640 958 l 593 958 l 593 972 l 1140 972 q 1235 981 1183 972 q 1306 997 1286 989 l 1306 711 l 1292 711 l 1292 722 q 1213 878 1293 833 q 1118 901 1174 900 l 932 901 l 932 510 l 1074 510 q 1178 555 1138 513 q 1219 661 1219 597 l 1219 668 l 1233 668 l 1233 282 l 1219 282 l 1219 289 q 1179 395 1219 353 q 1076 440 1139 438 l 932 440 l 932 71 l 1089 71 q 1267 138 1190 71 q 1376 322 1344 204 l 1390 322 l 1338 0 l 564 0 l 565 14 l 578 14 m 647 510 l 647 790 l 472 510 l 647 510 z "},"ç":{"ha":1101,"x_min":47,"x_max":1047,"o":"m 656 -19 l 639 -19 l 588 -79 q 621 -72 607 -72 q 649 -72 635 -72 q 691 -80 663 -72 q 736 -108 719 -87 q 753 -146 753 -129 q 708 -247 753 -210 q 569 -296 650 -296 q 490 -285 531 -296 l 492 -271 q 589 -242 542 -271 q 636 -158 636 -214 q 613 -119 636 -136 q 500 -112 571 -90 l 493 -99 l 558 -15 q 183 139 318 8 q 49 488 49 269 q 121 758 49 644 q 330 932 193 872 q 665 992 467 992 q 1014 928 864 992 l 1000 663 l 988 663 q 871 863 947 803 q 681 922 794 922 q 440 808 526 922 q 354 491 354 694 q 434 171 354 288 q 656 50 514 54 q 893 128 819 50 q 1001 406 963 200 l 1013 406 l 1046 153 q 656 -19 943 -19 z "},"è":{"ha":925,"x_min":42,"x_max":907,"o":"m 508 1071 l 499 1061 q 335 1107 425 1069 q 175 1190 244 1144 q 293 1329 204 1292 q 417 1205 353 1278 q 508 1071 482 1132 m 60 14 q 122 40 96 14 q 149 101 147 65 l 149 871 q 104 947 147 922 q 60 958 83 958 l 42 958 l 42 972 l 657 972 q 751 981 700 972 q 822 997 801 989 l 822 711 l 808 711 l 808 722 q 728 878 808 833 q 635 901 689 900 l 433 901 l 433 514 l 585 514 q 693 558 651 515 q 735 667 735 600 l 735 672 l 749 672 l 749 286 l 735 286 l 735 293 q 693 401 735 358 q 586 444 651 443 l 433 444 l 433 71 l 604 71 q 783 138 706 71 q 893 322 861 204 l 907 322 l 854 0 l 42 0 l 42 14 l 60 14 z "},"é":{"ha":925,"x_min":42,"x_max":907,"o":"m 447 1057 l 438 1067 q 528 1201 464 1128 q 653 1325 593 1274 q 771 1186 742 1288 q 611 1103 701 1140 q 447 1057 521 1065 m 60 14 q 122 40 96 14 q 149 101 147 65 l 149 871 q 122 933 147 907 q 60 958 96 958 l 42 958 l 42 972 l 657 972 q 763 982 717 972 q 822 997 810 992 l 822 711 l 808 711 l 808 722 q 728 878 808 833 q 635 901 689 900 l 433 901 l 433 514 l 585 514 q 693 558 651 515 q 735 667 735 600 l 735 672 l 749 672 l 749 286 l 735 286 l 735 293 q 693 401 735 358 q 586 444 651 443 l 433 444 l 433 71 l 604 71 q 783 138 706 71 q 893 322 861 204 l 907 322 l 854 0 l 42 0 l 42 14 l 60 14 z "},"ê":{"ha":925,"x_min":42,"x_max":907,"o":"m 461 1294 l 478 1294 l 725 1050 l 715 1039 l 468 1129 l 236 1039 l 226 1050 l 461 1294 m 60 14 q 122 40 96 14 q 149 101 147 65 l 149 871 q 122 933 147 907 q 60 958 96 958 l 42 958 l 42 972 l 657 972 q 751 981 700 972 q 822 997 801 989 l 822 711 l 808 711 l 808 722 q 728 878 808 833 q 635 901 689 900 l 433 901 l 433 514 l 585 514 q 693 558 651 515 q 735 667 735 600 l 735 672 l 749 672 l 749 286 l 735 286 l 735 293 q 693 401 735 358 q 586 444 651 443 l 433 444 l 433 71 l 604 71 q 783 138 706 71 q 893 322 861 204 l 907 322 l 854 0 l 42 0 l 42 14 l 60 14 z "},"ë":{"ha":925,"x_min":42,"x_max":907,"o":"m 356 1079 q 341 1064 356 1079 q 284 1049 326 1049 q 212 1079 242 1049 q 182 1152 182 1110 q 212 1224 182 1194 q 284 1254 242 1254 q 356 1224 326 1254 q 386 1152 386 1194 q 356 1079 386 1110 m 720 1079 q 705 1064 720 1079 q 648 1049 690 1049 q 576 1079 606 1049 q 546 1152 546 1110 q 576 1224 546 1194 q 648 1254 606 1254 q 720 1224 690 1254 q 750 1152 750 1194 q 720 1079 750 1110 m 60 14 q 122 40 96 14 q 149 101 147 65 l 149 871 q 122 933 147 907 q 60 958 96 958 l 42 958 l 42 972 l 657 972 q 751 981 700 972 q 822 997 801 989 l 822 711 l 808 711 l 808 722 q 728 878 808 833 q 635 901 689 900 l 433 901 l 433 514 l 585 514 q 693 558 651 515 q 735 667 735 600 l 735 672 l 749 672 l 749 286 l 735 286 l 735 293 q 693 401 735 358 q 586 444 651 443 l 433 444 l 433 71 l 604 71 q 783 138 706 71 q 893 322 861 204 l 907 322 l 854 0 l 42 0 l 42 14 l 60 14 z "},"ì":{"ha":581,"x_min":-7,"x_max":540,"o":"m 326 1071 l 317 1061 q 153 1107 243 1069 q -7 1190 63 1144 q 111 1329 24 1292 q 236 1205 172 1278 q 326 1071 300 1132 m 60 14 q 122 40 96 14 q 149 101 147 65 l 149 872 q 122 933 147 908 q 60 958 96 958 l 42 958 l 42 972 l 540 972 l 540 958 l 522 958 q 460 933 486 958 q 433 872 435 908 l 433 101 q 478 25 435 50 q 522 14 499 14 l 540 14 l 540 0 l 42 0 l 42 14 l 60 14 z "},"í":{"ha":581,"x_min":42,"x_max":590,"o":"m 265 1057 l 256 1067 q 429 1286 296 1161 q 471 1325 451 1307 q 589 1186 560 1288 q 429 1103 519 1140 q 265 1057 339 1065 m 60 14 q 122 40 96 14 q 149 101 147 65 l 149 872 q 122 933 147 908 q 60 958 96 958 l 42 958 l 42 972 l 540 972 l 540 958 l 522 958 q 460 933 486 958 q 433 872 435 908 l 433 101 q 460 40 433 65 q 522 14 486 14 l 540 14 l 540 0 l 42 0 l 42 14 l 60 14 z "},"î":{"ha":581,"x_min":40,"x_max":544,"o":"m 279 1294 l 296 1294 l 543 1050 l 533 1039 l 286 1129 l 54 1039 l 44 1050 l 279 1294 m 60 14 q 122 40 96 14 q 149 101 147 65 l 149 872 q 122 933 147 908 q 60 958 96 958 l 42 958 l 42 972 l 540 972 l 540 958 l 522 958 q 460 933 486 958 q 433 872 435 908 l 433 101 q 460 40 433 65 q 522 14 486 14 l 540 14 l 540 0 l 42 0 l 42 14 l 60 14 z "},"ï":{"ha":581,"x_min":-1,"x_max":569,"o":"m 174 1079 q 159 1064 174 1079 q 102 1049 144 1049 q 30 1079 60 1049 q 0 1152 0 1110 q 30 1224 0 1194 q 102 1254 60 1254 q 174 1224 144 1254 q 204 1152 204 1194 q 174 1079 204 1110 m 540 1079 q 525 1064 540 1079 q 467 1049 510 1049 q 394 1079 425 1049 q 364 1152 364 1110 q 394 1224 364 1194 q 467 1254 425 1254 q 540 1224 510 1254 q 569 1152 569 1194 q 540 1079 569 1110 m 60 14 q 122 40 96 14 q 149 101 147 65 l 149 872 q 122 933 147 908 q 60 958 96 958 l 42 958 l 42 972 l 540 972 l 540 958 l 522 958 q 460 933 486 958 q 433 872 435 908 l 433 101 q 460 40 433 65 q 522 14 486 14 l 540 14 l 540 0 l 42 0 l 42 14 l 60 14 z "},"ð":{"ha":1169,"x_min":40,"x_max":1122,"o":"m 568 972 q 976 844 829 972 q 1122 486 1122 715 q 976 128 1122 257 q 568 0 829 0 l 42 0 l 42 14 l 60 14 q 122 40 96 14 q 149 101 147 65 l 149 451 l 42 451 l 42 521 l 149 521 l 149 879 q 122 935 149 913 q 60 958 94 958 l 43 958 l 42 972 l 568 972 m 433 451 l 433 69 l 540 69 q 747 180 671 69 q 824 486 824 290 q 789 710 824 615 q 690 853 754 804 q 540 903 626 903 l 433 903 l 433 521 l 583 521 l 583 451 l 433 451 z "},"ñ":{"ha":1224,"x_min":26,"x_max":1197,"o":"m 843 1276 l 860 1276 q 868 1226 868 1253 q 857 1172 868 1199 q 772 1078 826 1103 q 695 1061 739 1061 q 583 1096 651 1061 q 490 1134 514 1131 q 444 1138 465 1138 q 390 1115 424 1138 q 346 1065 357 1093 l 329 1065 q 324 1106 324 1085 q 386 1249 324 1189 q 481 1290 429 1290 q 608 1253 533 1290 q 746 1215 683 1215 q 801 1235 767 1215 q 843 1276 835 1256 m 1171 958 q 1111 934 1136 958 q 1085 875 1086 910 l 1085 158 q 1099 0 1085 56 l 1103 -19 l 1090 -19 l 425 572 l 425 99 q 450 38 425 63 q 510 14 475 14 l 536 14 l 536 0 l 28 0 l 28 14 l 54 14 q 114 38 89 14 q 139 99 139 63 l 139 819 q 125 974 139 917 l 121 993 l 135 993 l 800 401 l 800 874 q 774 934 799 910 q 714 958 749 958 l 688 958 l 688 972 l 1196 972 l 1196 958 l 1171 958 z "},"ò":{"ha":1250,"x_min":47,"x_max":1203,"o":"m 663 1090 l 653 1081 q 429 1153 553 1093 q 329 1210 375 1179 q 449 1349 360 1311 q 589 1203 533 1275 q 663 1090 644 1132 m 625 992 q 934 932 804 992 q 1133 758 1064 872 q 1203 486 1203 643 q 1049 115 1203 249 q 626 -19 896 -19 q 202 115 356 -19 q 49 486 49 249 q 202 858 49 724 q 625 992 356 992 m 427 165 q 463 108 427 165 q 626 50 499 50 q 824 165 753 50 q 896 486 896 281 q 824 807 896 692 q 626 922 753 922 q 427 807 499 922 q 356 486 356 692 q 427 165 356 281 z "},"ó":{"ha":1250,"x_min":47,"x_max":1203,"o":"m 601 1076 l 592 1086 q 683 1220 618 1147 q 807 1344 747 1293 q 925 1206 896 1307 q 765 1122 856 1160 q 601 1076 675 1085 m 625 992 q 934 932 804 992 q 1133 758 1064 872 q 1203 486 1203 643 q 1049 115 1203 249 q 626 -19 896 -19 q 202 115 356 -19 q 49 486 49 249 q 202 858 49 724 q 625 992 356 992 m 427 165 q 463 108 427 165 q 626 50 499 50 q 824 165 753 50 q 896 486 896 281 q 824 807 896 692 q 626 922 753 922 q 427 807 499 922 q 356 486 356 692 q 427 165 356 281 z "},"ô":{"ha":1250,"x_min":47,"x_max":1203,"o":"m 615 1314 l 632 1314 l 881 1069 l 869 1058 l 624 1149 l 390 1058 l 381 1069 l 615 1314 m 625 992 q 934 932 804 992 q 1133 758 1064 872 q 1203 486 1203 643 q 1049 115 1203 249 q 625 -19 894 -19 q 202 115 356 -19 q 49 486 49 249 q 202 858 49 724 q 625 992 356 992 m 427 165 q 463 108 427 165 q 626 50 499 50 q 824 165 753 50 q 896 486 896 281 q 824 807 896 692 q 626 922 753 922 q 427 807 499 922 q 356 486 356 692 q 427 165 356 281 z "},"õ":{"ha":1250,"x_min":47,"x_max":1203,"o":"m 896 1296 l 914 1296 q 922 1245 922 1272 q 910 1192 922 1218 q 825 1097 881 1122 q 753 1081 792 1081 q 678 1096 715 1081 q 603 1131 642 1111 q 541 1153 564 1150 q 498 1157 518 1157 q 444 1135 478 1157 q 400 1085 411 1113 l 382 1085 q 378 1125 378 1104 q 439 1268 378 1208 q 534 1310 482 1310 q 662 1272 586 1310 q 800 1235 738 1235 q 853 1255 819 1235 q 896 1296 888 1275 m 202 858 q 279 925 202 858 q 625 992 356 992 q 1049 858 894 992 q 1203 486 1203 724 q 1049 115 1203 249 q 625 -19 894 -19 q 202 115 356 -19 q 49 486 49 249 q 202 858 49 724 m 427 165 q 463 108 427 165 q 626 50 499 50 q 824 165 753 50 q 896 486 896 281 q 824 807 896 692 q 626 922 753 922 q 427 807 499 922 q 356 486 356 692 q 427 165 356 281 z "},"ö":{"ha":1250,"x_min":47,"x_max":1203,"o":"m 510 1099 q 495 1083 510 1099 q 438 1068 481 1068 q 366 1099 396 1068 q 336 1172 336 1129 q 366 1244 336 1214 q 438 1274 396 1274 q 510 1244 481 1274 q 540 1172 540 1214 q 510 1099 540 1129 m 876 1099 q 861 1083 876 1099 q 803 1068 846 1068 q 731 1099 761 1068 q 700 1172 700 1129 q 731 1244 700 1214 q 803 1274 761 1274 q 876 1244 846 1274 q 906 1172 906 1214 q 876 1099 906 1129 m 625 992 q 934 932 804 992 q 1133 758 1064 872 q 1203 486 1203 643 q 1049 115 1203 249 q 625 -19 894 -19 q 202 115 356 -19 q 49 486 49 249 q 202 858 49 724 q 625 992 356 992 m 427 165 q 463 108 427 165 q 626 50 499 50 q 824 165 753 50 q 896 486 896 281 q 824 807 896 692 q 626 922 753 922 q 427 807 499 922 q 356 486 356 692 q 427 165 356 281 z "},"÷":{"ha":668,"x_min":56,"x_max":614,"o":"m 385 599 q 375 589 385 599 q 334 578 364 578 q 283 599 304 578 q 261 651 261 621 q 283 701 261 681 q 334 722 304 722 q 385 701 364 722 q 407 651 407 681 q 385 599 407 621 m 56 385 l 56 475 l 614 475 l 614 385 l 56 385 m 385 160 q 375 150 385 160 q 334 139 364 139 q 283 160 304 139 q 261 212 261 182 q 283 263 261 242 q 334 283 304 283 q 385 263 364 283 q 407 212 407 242 q 385 160 407 182 z "},"ø":{"ha":1250,"x_min":49,"x_max":1203,"o":"m 1203 486 q 1049 115 1203 249 q 625 -19 894 -19 q 288 56 426 -19 l 213 -32 l 151 18 l 221 99 q 49 478 49 233 q 202 858 49 724 q 625 992 356 992 q 936 931 806 992 l 1003 1008 l 1064 961 l 1004 892 q 1203 486 1203 758 m 826 804 q 627 922 756 922 q 427 807 499 922 q 356 486 356 692 q 378 282 356 371 l 826 804 m 625 50 q 824 165 753 50 q 896 486 896 281 q 863 726 896 626 l 408 197 q 625 50 481 50 z "},"ù":{"ha":1174,"x_min":42,"x_max":1147,"o":"m 708 1071 l 699 1061 q 535 1107 625 1069 q 375 1190 444 1144 q 493 1329 404 1292 q 617 1205 553 1278 q 708 1071 682 1132 m 1146 958 l 1124 958 q 1073 940 1094 958 q 1050 893 1051 921 l 1050 357 q 941 81 1050 181 q 635 -19 832 -19 q 261 78 385 -19 q 138 356 138 175 l 138 889 q 101 950 138 931 q 64 958 85 958 l 42 958 l 42 972 l 518 972 l 518 958 l 496 958 q 444 940 465 958 q 422 892 424 921 l 422 361 q 489 133 422 215 q 675 51 556 51 q 862 128 794 51 q 929 343 929 206 l 929 892 q 907 940 928 921 q 856 958 886 958 l 833 958 l 833 972 l 1146 972 l 1146 958 z "},"ú":{"ha":1174,"x_min":42,"x_max":1147,"o":"m 647 1057 l 638 1067 q 728 1201 664 1128 q 853 1325 793 1274 q 971 1186 942 1288 q 811 1103 901 1140 q 647 1057 721 1065 m 1146 958 l 1124 958 q 1073 940 1094 958 q 1050 893 1051 921 l 1050 357 q 941 81 1050 181 q 635 -19 832 -19 q 261 78 385 -19 q 138 356 138 175 l 138 889 q 101 950 138 931 q 64 958 85 958 l 42 958 l 42 972 l 518 972 l 518 958 l 496 958 q 444 940 465 958 q 422 892 424 921 l 422 361 q 489 133 422 215 q 675 51 556 51 q 862 128 794 51 q 929 343 929 206 l 929 892 q 885 953 928 938 q 856 958 871 958 l 833 958 l 833 972 l 1146 972 l 1146 958 z "},"û":{"ha":1174,"x_min":42,"x_max":1147,"o":"m 661 1294 l 678 1294 l 925 1050 l 915 1039 l 668 1129 l 436 1039 l 426 1050 l 661 1294 m 1146 958 l 1124 958 q 1073 940 1094 958 q 1050 893 1051 921 l 1050 357 q 941 81 1050 181 q 635 -19 832 -19 q 354 26 467 -19 q 138 356 138 114 l 138 889 q 101 950 138 931 q 64 958 85 958 l 42 958 l 42 972 l 518 972 l 518 958 l 496 958 q 444 940 465 958 q 422 892 424 921 l 422 361 q 489 133 422 215 q 675 51 556 51 q 862 128 794 51 q 929 343 929 206 l 929 892 q 907 940 928 921 q 856 958 886 958 l 833 958 l 833 972 l 1146 972 l 1146 958 z "},"ü":{"ha":1174,"x_min":40,"x_max":1147,"o":"m 556 1079 q 541 1064 556 1079 q 484 1049 526 1049 q 411 1079 442 1049 q 381 1152 381 1110 q 411 1224 381 1194 q 484 1254 442 1254 q 556 1224 526 1254 q 586 1152 586 1194 q 556 1079 586 1110 m 920 1079 q 905 1064 920 1079 q 848 1049 890 1049 q 776 1079 806 1049 q 746 1152 746 1110 q 776 1224 746 1194 q 848 1254 806 1254 q 920 1224 890 1254 q 950 1152 950 1194 q 920 1079 950 1110 m 1146 958 l 1124 958 q 1073 940 1094 958 q 1050 893 1051 921 l 1050 357 q 941 81 1050 181 q 635 -19 832 -19 q 261 78 385 -19 q 138 356 138 175 l 138 889 q 116 939 138 919 q 64 958 94 958 l 42 958 l 42 972 l 518 972 l 518 958 l 496 958 q 444 940 465 958 q 422 892 424 921 l 422 361 q 489 133 422 215 q 675 51 556 51 q 862 128 794 51 q 929 343 929 206 l 929 892 q 907 940 928 921 q 856 958 886 958 l 833 958 l 833 972 l 1146 972 l 1146 958 z "},"ý":{"ha":1013,"x_min":-62,"x_max":1076,"o":"m 581 1057 l 571 1067 q 662 1201 597 1128 q 786 1325 726 1274 q 904 1186 875 1288 q 744 1103 835 1140 q 581 1057 654 1065 m 1076 958 l 1057 958 q 977 935 1015 958 q 917 876 939 911 l 644 447 l 644 101 q 670 40 644 65 q 733 14 696 14 l 750 14 l 750 0 l 253 0 l 253 14 l 271 14 q 333 39 307 14 q 360 100 358 64 l 360 447 l 94 879 q 35 935 74 913 q -43 958 -3 958 l -62 958 l -62 972 l 474 972 l 474 958 l 457 958 q 410 931 426 958 q 401 901 401 915 q 408 872 401 886 l 599 529 l 796 872 q 804 901 804 886 q 794 929 804 915 q 747 958 776 958 l 731 958 l 731 972 l 1076 972 l 1076 958 z "},"þ":{"ha":982,"x_min":58,"x_max":963,"o":"m 963 490 q 937 367 963 426 q 863 267 911 307 q 676 196 775 196 q 488 260 576 196 l 488 274 q 563 301 538 282 q 604 335 589 319 q 651 422 639 372 q 663 493 663 472 q 615 654 663 603 q 489 706 568 706 l 451 706 l 451 101 q 496 25 451 50 q 540 14 515 14 l 557 14 l 557 0 l 60 0 l 60 14 l 76 14 q 140 40 114 14 q 167 101 165 65 l 167 872 q 140 933 165 908 q 78 958 114 958 l 60 958 l 60 972 l 557 972 l 557 958 l 540 958 q 478 933 504 958 q 451 872 451 908 l 451 775 l 578 775 q 903 665 808 775 q 963 490 963 596 z "},"ÿ":{"ha":1013,"x_min":-64,"x_max":1076,"o":"m 490 1079 q 475 1064 490 1079 q 417 1049 460 1049 q 344 1079 375 1049 q 314 1152 314 1110 q 344 1224 314 1194 q 417 1254 375 1254 q 490 1224 460 1254 q 519 1152 519 1194 q 490 1079 519 1110 m 853 1079 q 839 1064 853 1079 q 781 1049 824 1049 q 709 1079 739 1049 q 679 1152 679 1110 q 709 1224 679 1194 q 781 1254 739 1254 q 853 1224 824 1254 q 883 1152 883 1194 q 853 1079 883 1110 m 1076 958 l 1057 958 q 977 935 1015 958 q 917 876 939 911 l 644 447 l 644 101 q 670 40 644 65 q 733 14 696 14 l 750 14 l 750 0 l 253 0 l 253 14 l 271 14 q 333 39 307 14 q 360 100 358 64 l 360 447 l 94 879 q 35 935 74 913 q -43 958 -3 958 l -62 958 l -62 972 l 474 972 l 474 958 l 457 958 q 410 931 426 958 q 400 901 400 915 q 408 872 400 886 l 599 529 l 796 872 q 804 900 804 886 q 794 929 804 914 q 747 958 776 958 l 731 958 l 731 972 l 1076 972 l 1076 958 z "},"Ā":{"ha":975,"x_min":-56,"x_max":1358,"o":"m 260 1132 l 260 1250 l 663 1250 l 663 1132 l 260 1132 m 1358 -237 q 1140 -300 1251 -300 q 930 -258 1029 -300 q 735 -113 831 -217 q 579 139 640 -10 l 542 231 l 244 231 l 189 101 q 182 72 182 83 q 187 48 182 61 q 208 24 192 35 q 242 14 224 14 l 254 14 l 254 0 l -56 0 l -56 14 l -43 14 q 20 33 -11 14 q 72 89 51 51 l 356 711 q 287 866 314 826 q 242 926 260 906 q 158 983 208 965 q 113 990 139 990 q 53 978 86 990 l 50 992 q 263 1057 161 1057 q 533 910 413 1057 q 643 725 594 833 l 865 215 q 956 27 926 75 q 1008 -55 985 -21 q 1053 -114 1031 -89 q 1101 -162 1075 -139 q 1217 -225 1147 -204 q 1281 -235 1246 -235 q 1356 -224 1317 -235 l 1358 -237 m 275 300 l 514 300 l 426 515 q 400 586 415 540 l 275 300 z "},"ā":{"ha":1000,"x_min":-57,"x_max":1057,"o":"m 289 1104 l 289 1222 l 692 1222 l 692 1104 l 289 1104 m 1044 14 l 1056 14 l 1056 0 l 529 0 l 529 14 l 542 14 q 588 33 572 14 q 603 67 603 51 q 596 101 603 83 l 542 231 l 244 231 l 189 101 q 182 72 182 83 q 187 48 182 61 q 208 24 192 35 q 242 14 224 14 l 254 14 l 254 0 l -56 0 l -56 14 l -43 14 q 20 33 -11 14 q 72 89 51 51 l 396 799 q 475 1006 469 954 l 488 1006 l 928 90 q 1044 14 972 14 m 275 300 l 513 300 l 396 578 l 275 300 z "},"Ă":{"ha":975,"x_min":-56,"x_max":1358,"o":"m 656 1274 q 610 1158 656 1210 q 457 1089 550 1089 q 346 1121 396 1089 q 277 1197 296 1153 q 258 1268 258 1240 q 263 1317 258 1296 l 281 1317 q 347 1253 297 1278 q 456 1228 396 1228 q 567 1253 517 1228 q 633 1317 617 1278 l 650 1317 q 656 1274 656 1294 m 1358 -237 q 1140 -299 1251 -299 q 930 -258 1029 -299 q 735 -113 831 -217 q 579 139 640 -10 l 542 231 l 244 231 l 189 101 q 182 72 182 83 q 187 48 182 61 q 208 24 192 35 q 243 14 224 14 l 254 14 l 254 0 l -56 0 l -56 14 l -43 14 q 20 33 -11 14 q 72 89 51 51 l 356 711 q 287 866 314 826 q 242 926 260 906 q 158 983 208 965 q 113 990 139 990 q 53 978 86 990 l 50 992 q 263 1057 161 1057 q 533 910 413 1057 q 643 725 594 835 l 865 215 q 956 27 926 75 q 1008 -55 985 -21 q 1053 -114 1031 -89 q 1101 -162 1075 -139 q 1217 -225 1147 -204 q 1281 -235 1246 -235 q 1356 -224 1317 -235 l 1358 -237 m 275 300 l 514 300 l 426 515 q 400 586 415 540 l 275 300 z "},"ă":{"ha":1000,"x_min":-57,"x_max":1057,"o":"m 685 1246 q 640 1131 685 1182 q 486 1061 579 1061 q 333 1131 393 1061 q 288 1246 288 1183 q 293 1289 288 1267 l 310 1289 q 376 1225 326 1250 q 485 1200 425 1200 q 596 1225 546 1200 q 663 1289 646 1250 l 681 1289 q 685 1246 685 1267 m 1044 14 l 1056 14 l 1056 0 l 529 0 l 529 14 l 542 14 q 588 33 572 14 q 603 67 603 51 q 596 101 603 83 l 542 231 l 244 231 l 189 101 q 182 72 182 83 q 187 48 182 61 q 208 24 192 35 q 242 14 224 14 l 254 14 l 254 0 l -56 0 l -56 14 l -43 14 q 20 33 -11 14 q 72 89 51 51 l 396 799 q 475 1006 469 954 l 488 1006 l 928 90 q 1044 14 972 14 m 275 300 l 513 300 l 396 578 l 275 300 z "},"Ą":{"ha":947,"x_min":-57,"x_max":1358,"o":"m 1358 -237 q 1126 -300 1251 -300 q 804 -179 953 -300 q 649 1 715 -107 q 579 -89 579 -22 q 635 -183 579 -162 q 674 -189 649 -189 q 735 -160 699 -189 l 743 -168 q 658 -282 738 -257 q 599 -289 633 -289 q 519 -258 564 -289 q 458 -143 458 -215 q 524 -17 458 -54 q 632 13 572 13 q 642 13 636 13 q 579 139 607 71 l 542 231 l 244 231 l 189 101 q 182 72 182 83 q 187 48 182 61 q 208 24 192 35 q 242 14 224 14 l 254 14 l 254 0 l -56 0 l -56 14 l -43 14 q 20 33 -11 14 q 72 89 51 51 l 351 700 q 147 953 257 913 q 90 963 121 963 q 25 950 58 963 l 22 964 q 260 1042 149 1042 q 653 697 500 1042 l 865 215 q 956 26 928 74 q 1008 -55 985 -21 q 1053 -113 1031 -89 q 1103 -162 1076 -137 q 1217 -225 1147 -204 q 1281 -235 1246 -235 q 1356 -224 1317 -235 l 1358 -237 m 275 300 l 514 300 l 399 585 l 275 300 z "},"ą":{"ha":1000,"x_min":-57,"x_max":1057,"o":"m 1056 0 q 1000 3 1054 0 q 909 9 946 7 q 846 11 872 11 q 696 0 742 11 q 607 -90 607 -21 q 663 -183 607 -161 q 703 -189 678 -189 q 763 -160 728 -189 l 771 -168 q 688 -281 767 -256 q 628 -287 664 -287 q 549 -258 593 -287 q 485 -146 485 -217 q 511 -58 485 -89 q 522 -46 519 -50 q 537 -33 525 -42 q 551 -22 549 -24 q 568 -11 553 -21 q 585 0 583 -1 q 610 40 610 17 q 597 96 610 63 l 539 231 l 247 231 l 188 99 q 193 36 172 60 q 242 14 213 14 l 254 14 l 254 0 l -56 0 l -56 14 l -43 14 q 25 35 -8 14 q 79 101 58 57 l 396 785 q 475 992 469 940 l 488 992 l 922 101 q 958 54 936 72 q 1056 14 992 26 l 1056 0 m 278 300 l 510 300 l 396 567 l 278 300 z "},"Ć":{"ha":1153,"x_min":14,"x_max":1140,"o":"m 604 1057 l 594 1067 q 685 1201 621 1128 q 810 1325 750 1274 q 928 1186 899 1288 q 768 1103 858 1140 q 604 1057 678 1065 m 1132 558 q 1140 440 1140 503 q 1124 311 1140 378 q 872 19 1071 101 q 664 -19 778 -19 q 183 117 351 -19 q 14 484 14 253 q 189 853 14 715 q 664 992 364 992 q 1022 929 872 992 l 1008 663 l 996 663 q 671 922 924 922 q 411 809 503 922 q 319 496 319 696 q 415 176 319 296 q 692 50 511 56 q 1006 178 890 50 q 1121 525 1121 307 q 1121 558 1121 542 l 1132 558 z "},"ć":{"ha":1101,"x_min":47,"x_max":1047,"o":"m 582 1057 l 572 1067 q 663 1201 599 1128 q 788 1325 728 1274 q 906 1186 876 1288 q 746 1103 836 1140 q 582 1057 656 1065 m 49 488 q 121 758 49 644 q 330 932 193 872 q 665 992 467 992 q 1014 928 864 992 l 1000 663 l 988 663 q 871 863 947 803 q 681 922 794 922 q 440 808 526 922 q 354 491 354 694 q 434 171 354 288 q 656 50 514 54 q 893 128 819 50 q 1001 406 963 200 l 1013 406 l 1046 153 q 658 -19 943 -19 q 210 115 372 -18 q 49 488 49 247 z "},"Ċ":{"ha":1153,"x_min":13,"x_max":1140,"o":"m 701 1091 q 686 1076 701 1091 q 628 1061 671 1061 q 555 1091 585 1061 q 525 1163 525 1121 q 555 1235 525 1206 q 628 1265 585 1265 q 701 1235 671 1265 q 731 1163 731 1206 q 701 1091 731 1121 m 1132 558 q 1140 440 1140 503 q 1124 311 1140 378 q 872 19 1071 101 q 664 -19 778 -19 q 183 117 351 -19 q 14 484 14 253 q 189 853 14 715 q 664 992 364 992 q 1022 928 872 992 l 1008 663 l 996 663 q 671 922 924 922 q 411 809 503 922 q 319 496 319 696 q 415 176 319 296 q 692 50 511 56 q 1006 178 890 50 q 1121 525 1121 307 q 1121 558 1121 542 l 1132 558 z "},"ċ":{"ha":1101,"x_min":47,"x_max":1047,"o":"m 678 1091 q 664 1076 678 1091 q 606 1061 649 1061 q 533 1091 563 1061 q 503 1163 503 1121 q 533 1235 503 1206 q 606 1265 563 1265 q 678 1235 649 1265 q 708 1163 708 1206 q 678 1091 708 1121 m 49 488 q 121 758 49 644 q 330 932 193 872 q 665 992 467 992 q 1014 928 864 992 l 1000 663 l 988 663 q 871 863 947 803 q 681 922 794 922 q 440 808 526 922 q 354 491 354 694 q 434 171 354 288 q 656 50 514 54 q 893 128 819 50 q 1001 406 963 200 l 1013 406 l 1046 153 q 658 -19 943 -19 q 210 115 372 -18 q 49 488 49 247 z "},"Č":{"ha":1153,"x_min":13,"x_max":1140,"o":"m 638 1061 l 621 1061 l 386 1304 l 396 1315 l 629 1226 l 849 1315 l 858 1304 l 638 1061 m 1132 558 q 1140 440 1140 503 q 1124 311 1140 378 q 872 19 1071 100 q 664 -19 778 -19 q 183 117 351 -19 q 14 484 14 253 q 189 853 14 715 q 664 992 364 992 q 1022 928 872 992 l 1008 663 l 996 663 q 671 922 924 922 q 411 809 503 922 q 319 496 319 696 q 415 176 319 296 q 692 50 511 56 q 1006 178 890 50 q 1121 525 1121 307 q 1121 558 1121 542 l 1132 558 z "},"č":{"ha":1101,"x_min":47,"x_max":1047,"o":"m 615 1061 l 599 1061 l 364 1304 l 374 1315 l 607 1226 l 826 1315 l 836 1304 l 615 1061 m 49 488 q 121 758 49 644 q 330 932 193 872 q 665 992 467 992 q 1014 928 864 992 l 1000 663 l 988 663 q 871 863 947 803 q 681 922 794 922 q 440 808 526 922 q 354 491 354 694 q 434 171 354 288 q 656 50 514 54 q 893 128 819 50 q 1001 406 963 200 l 1013 406 l 1046 153 q 658 -19 943 -19 q 210 115 372 -18 q 49 488 49 247 z "},"Ď":{"ha":1219,"x_min":-140,"x_max":1172,"o":"m 644 1061 l 628 1061 l 393 1304 l 403 1315 l 638 1226 l 856 1315 l 865 1304 l 644 1061 m 618 0 l 92 0 l 92 14 l 110 14 q 172 40 146 14 q 199 101 197 65 l 199 894 q -22 813 53 879 q -125 667 -86 756 l -139 672 q 5 897 -111 822 q 296 972 121 972 l 618 972 q 1026 844 879 972 q 1172 486 1172 715 q 1025 128 1172 257 q 618 0 878 0 m 483 69 l 590 69 q 590 69 590 69 q 793 180 719 69 q 867 486 867 290 q 793 792 867 682 q 590 903 719 903 l 483 900 l 483 69 z "},"ď":{"ha":1169,"x_min":40,"x_max":1122,"o":"m 594 1061 l 578 1061 l 343 1306 l 353 1317 l 588 1226 l 806 1315 l 815 1304 l 594 1061 m 568 972 q 976 844 829 972 q 1122 486 1122 715 q 976 128 1122 257 q 568 0 829 0 l 42 0 l 42 14 l 60 14 q 122 40 96 14 q 149 101 147 65 l 149 879 q 122 935 149 913 q 60 958 94 958 l 42 958 l 42 972 l 568 972 m 433 903 l 433 69 l 540 69 q 743 180 669 69 q 817 486 817 290 q 743 792 817 682 q 540 903 669 903 l 433 903 z "},"Đ":{"ha":1219,"x_min":-140,"x_max":1172,"o":"m 438 1104 l 438 1222 l 840 1222 l 840 1104 l 438 1104 m 618 0 l 92 0 l 92 14 l 110 14 q 172 40 146 14 q 199 101 197 65 l 199 894 q -22 813 53 879 q -125 667 -86 756 l -139 672 q -58 840 -119 772 q 296 972 58 972 l 618 972 q 1026 844 879 972 q 1172 486 1172 715 q 1025 128 1172 257 q 618 0 878 0 m 483 69 l 590 69 q 590 69 590 69 q 793 180 719 69 q 867 486 867 290 q 793 792 867 682 q 590 903 719 903 l 483 900 l 483 69 z "},"đ":{"ha":1169,"x_min":40,"x_max":1122,"o":"m 388 1104 l 388 1222 l 790 1222 l 790 1104 l 388 1104 m 568 972 q 976 844 829 972 q 1122 486 1122 715 q 976 128 1122 257 q 568 0 829 0 l 42 0 l 42 14 l 60 14 q 122 40 96 14 q 149 101 147 65 l 149 879 q 122 935 149 913 q 60 958 94 958 l 43 958 l 42 972 l 568 972 m 433 903 l 433 69 l 540 69 q 743 180 669 69 q 817 486 817 290 q 744 792 817 682 q 540 903 671 903 l 433 903 z "},"Ē":{"ha":989,"x_min":42,"x_max":990,"o":"m 190 1104 l 190 1222 l 593 1222 l 593 1104 l 190 1104 m 60 14 q 122 40 96 14 q 149 101 147 65 l 149 871 q 111 942 147 915 q 60 958 89 958 l 42 958 l 42 972 l 504 972 q 610 982 564 972 q 669 997 657 992 l 669 711 l 656 711 l 656 722 q 610 851 656 804 q 482 901 564 899 l 433 901 l 433 514 l 626 514 q 735 558 693 515 q 776 667 776 600 l 776 672 l 790 672 l 790 286 l 776 286 l 776 293 q 735 401 776 358 q 628 444 693 443 l 433 444 l 433 71 l 688 71 q 867 138 789 71 q 976 322 944 204 l 990 322 l 938 0 l 42 0 l 42 14 l 60 14 z "},"ē":{"ha":925,"x_min":42,"x_max":907,"o":"m 274 1104 l 274 1222 l 676 1222 l 676 1104 l 274 1104 m 60 14 q 122 40 96 14 q 149 101 147 65 l 149 871 q 111 942 147 915 q 60 958 89 958 l 42 958 l 42 972 l 657 972 q 751 981 700 972 q 822 997 801 989 l 822 711 l 808 711 l 808 722 q 728 878 808 833 q 635 901 689 900 l 433 901 l 433 514 l 585 514 q 693 558 651 515 q 735 667 735 600 l 735 672 l 749 672 l 749 286 l 735 286 l 735 293 q 693 401 735 358 q 586 444 651 443 l 433 444 l 433 71 l 604 71 q 783 138 706 71 q 893 322 861 204 l 907 322 l 854 0 l 42 0 l 42 14 l 60 14 z "},"Ė":{"ha":989,"x_min":42,"x_max":990,"o":"m 460 1091 q 445 1076 460 1091 q 388 1061 431 1061 q 315 1091 346 1061 q 285 1163 285 1121 q 315 1235 285 1206 q 388 1265 346 1265 q 460 1235 431 1265 q 490 1163 490 1206 q 460 1091 490 1121 m 60 14 q 122 40 96 14 q 149 101 147 65 l 149 871 q 111 942 147 915 q 60 958 89 958 l 42 958 l 42 972 l 504 972 q 598 981 547 972 q 669 997 649 989 l 669 711 l 656 711 l 656 722 q 610 851 656 804 q 482 901 564 899 l 433 901 l 433 514 l 626 514 q 735 558 693 515 q 776 667 776 600 l 776 672 l 790 672 l 790 286 l 776 286 l 776 293 q 735 401 776 358 q 628 444 693 443 l 433 444 l 433 71 l 688 71 q 867 138 789 71 q 976 322 944 204 l 990 322 l 938 0 l 42 0 l 42 14 l 60 14 z "},"ė":{"ha":925,"x_min":42,"x_max":907,"o":"m 544 1091 q 529 1076 544 1091 q 472 1061 514 1061 q 399 1091 429 1061 q 368 1163 368 1121 q 399 1235 368 1206 q 472 1265 429 1265 q 544 1235 514 1265 q 574 1163 574 1206 q 544 1091 574 1121 m 60 14 q 122 40 96 14 q 149 101 147 65 l 149 871 q 111 942 147 915 q 60 958 89 958 l 42 958 l 42 972 l 657 972 q 751 981 700 972 q 822 997 801 989 l 822 711 l 808 711 l 808 722 q 728 878 808 833 q 635 901 689 900 l 433 901 l 433 514 l 585 514 q 693 558 651 515 q 735 667 735 600 l 735 672 l 749 672 l 749 286 l 735 286 l 735 293 q 693 401 735 358 q 586 444 651 443 l 433 444 l 433 71 l 604 71 q 783 138 706 71 q 893 322 861 204 l 907 322 l 854 0 l 42 0 l 42 14 l 60 14 z "},"Ę":{"ha":989,"x_min":42,"x_max":1011,"o":"m 1010 -175 q 865 -296 1001 -296 q 786 -265 831 -296 q 725 -150 725 -222 q 763 -45 725 -81 q 849 0 801 -10 l 42 0 l 42 14 l 60 14 q 122 40 96 14 q 149 101 147 65 l 149 871 q 111 942 147 915 q 60 958 89 958 l 42 958 l 42 972 l 504 972 q 610 982 564 972 q 669 997 657 992 l 669 711 l 656 711 l 656 722 q 610 851 656 804 q 482 901 564 899 l 433 901 l 433 514 l 626 514 q 735 558 693 515 q 776 667 776 600 l 776 672 l 790 672 l 790 286 l 776 286 l 776 293 q 735 401 776 358 q 628 444 693 443 l 433 444 l 433 71 l 688 71 q 867 138 789 71 q 976 322 944 204 l 990 322 l 938 0 l 935 0 q 846 -96 846 -21 q 900 -190 846 -169 q 940 -196 915 -196 q 1001 -167 965 -196 l 1010 -175 z "},"ę":{"ha":925,"x_min":42,"x_max":928,"o":"m 926 -175 q 782 -296 918 -296 q 703 -265 747 -296 q 642 -150 642 -222 q 680 -45 642 -81 q 765 0 718 -10 l 42 0 l 42 14 l 60 14 q 122 40 96 14 q 149 101 147 65 l 149 871 q 111 942 147 915 q 60 958 89 958 l 42 958 l 42 972 l 657 972 q 763 982 717 972 q 822 997 810 992 l 822 711 l 808 711 l 808 722 q 728 878 808 833 q 635 901 689 900 l 433 901 l 433 514 l 585 514 q 693 558 651 515 q 735 667 735 600 l 735 672 l 749 672 l 749 286 l 735 286 l 735 293 q 693 401 735 358 q 586 444 651 443 l 433 444 l 433 71 l 604 71 q 783 138 706 71 q 893 322 861 204 l 907 322 l 854 0 l 851 0 q 763 -96 763 -21 q 817 -190 763 -169 q 857 -196 832 -196 q 918 -167 882 -196 l 926 -175 z "},"Ě":{"ha":989,"x_min":42,"x_max":990,"o":"m 397 1061 l 381 1061 l 146 1304 l 156 1315 l 389 1226 l 608 1315 l 618 1304 l 397 1061 m 60 14 q 122 40 96 14 q 149 101 147 65 l 149 871 q 111 942 147 915 q 60 958 89 958 l 42 958 l 42 972 l 504 972 q 610 982 564 972 q 669 997 657 992 l 669 711 l 656 711 l 656 722 q 610 851 656 804 q 482 901 564 899 l 433 901 l 433 514 l 626 514 q 735 558 693 515 q 776 667 776 600 l 776 672 l 790 672 l 790 286 l 776 286 l 776 293 q 735 401 776 358 q 628 444 693 443 l 433 444 l 433 71 l 688 71 q 867 138 789 71 q 976 322 944 204 l 990 322 l 938 0 l 42 0 l 42 14 l 60 14 z "},"ě":{"ha":925,"x_min":42,"x_max":907,"o":"m 481 1061 l 464 1061 l 229 1304 l 239 1315 l 472 1226 l 692 1315 l 701 1304 l 481 1061 m 60 14 q 122 40 96 14 q 149 101 147 65 l 149 871 q 111 942 147 915 q 60 958 89 958 l 42 958 l 42 972 l 657 972 q 763 982 717 972 q 822 997 810 992 l 822 711 l 808 711 l 808 722 q 728 878 808 833 q 635 901 689 900 l 433 901 l 433 514 l 585 514 q 693 558 651 515 q 735 667 735 600 l 735 672 l 749 672 l 749 286 l 735 286 l 735 293 q 693 401 735 358 q 586 444 651 443 l 433 444 l 433 71 l 604 71 q 783 138 706 71 q 893 322 861 204 l 907 322 l 854 0 l 42 0 l 42 14 l 60 14 z "},"Ğ":{"ha":1211,"x_min":13,"x_max":1553,"o":"m 792 1246 q 746 1131 792 1182 q 592 1061 686 1061 q 439 1131 499 1061 q 394 1246 394 1183 q 399 1289 394 1267 l 417 1289 q 533 1207 443 1228 q 608 1200 563 1200 q 703 1225 653 1200 q 769 1289 753 1250 l 786 1289 q 792 1246 792 1267 m 1315 -294 q 1249 -290 1282 -294 q 1008 -186 1110 -268 q 857 18 907 -104 q 603 -19 736 -19 q 177 120 340 -19 q 14 488 14 260 q 181 853 14 715 q 619 992 347 992 q 851 973 732 992 q 1033 929 971 954 l 1019 663 l 1007 663 q 876 858 974 793 q 639 922 778 922 q 410 800 500 922 q 319 478 319 678 q 358 254 319 351 q 469 103 397 157 q 630 50 542 50 q 769 91 718 50 q 819 199 819 132 l 819 388 q 801 435 819 418 q 749 451 783 451 l 728 451 l 728 465 l 1194 465 l 1194 451 l 1172 451 q 1121 435 1139 451 q 1104 388 1103 418 l 1104 163 q 1136 3 1104 82 q 1367 -222 1208 -172 q 1458 -236 1413 -236 q 1549 -226 1504 -236 l 1551 -240 q 1315 -294 1426 -294 z "},"ğ":{"ha":1196,"x_min":47,"x_max":1179,"o":"m 790 1246 q 744 1131 790 1182 q 591 1061 685 1061 q 438 1131 497 1061 q 393 1246 393 1183 q 397 1289 393 1267 l 415 1289 q 481 1225 432 1250 q 591 1200 531 1200 q 701 1225 651 1200 q 768 1289 751 1250 l 786 1289 q 790 1246 790 1267 m 590 -19 q 195 116 342 -19 q 49 488 49 251 q 196 858 49 725 q 604 992 343 992 q 836 973 717 992 q 1018 928 956 954 l 1004 663 l 992 663 q 674 922 919 922 q 354 475 354 922 q 420 161 354 272 q 621 50 486 50 q 749 90 694 50 q 804 199 804 129 l 806 389 q 787 435 806 419 q 735 451 768 451 l 713 451 l 713 465 l 1179 465 l 1179 451 l 1158 451 q 1106 435 1124 451 q 1089 389 1088 419 l 1089 160 q 807 8 1011 61 q 590 -19 701 -19 z "},"Ġ":{"ha":1211,"x_min":14,"x_max":1553,"o":"m 666 1091 q 651 1076 666 1091 q 593 1061 636 1061 q 520 1091 550 1061 q 490 1163 490 1121 q 520 1235 490 1206 q 593 1265 550 1265 q 666 1235 636 1265 q 696 1163 696 1206 q 666 1091 696 1121 m 1315 -294 q 1249 -290 1282 -294 q 1008 -186 1110 -268 q 857 18 907 -104 q 603 -19 736 -19 q 177 120 340 -19 q 14 488 14 260 q 181 853 14 715 q 619 992 347 992 q 925 960 776 992 q 1033 929 992 946 l 1019 663 l 1007 663 q 876 858 974 793 q 639 922 778 922 q 410 800 500 922 q 319 478 319 678 q 358 254 319 351 q 469 103 397 157 q 630 50 542 50 q 769 91 718 50 q 819 199 819 132 l 819 388 q 802 435 821 418 q 749 451 783 451 l 728 451 l 728 465 l 1194 465 l 1194 451 l 1172 451 q 1121 435 1139 451 q 1104 388 1103 418 l 1104 163 q 1136 3 1104 82 q 1367 -222 1208 -172 q 1458 -236 1413 -236 q 1549 -226 1504 -236 l 1551 -240 q 1315 -294 1426 -294 z "},"ġ":{"ha":1196,"x_min":47,"x_max":1179,"o":"m 665 1091 q 650 1076 665 1091 q 592 1061 635 1061 q 519 1091 549 1061 q 489 1163 489 1121 q 519 1235 489 1206 q 592 1265 549 1265 q 665 1235 635 1265 q 694 1163 694 1206 q 665 1091 694 1121 m 590 -19 q 195 116 342 -19 q 49 488 49 251 q 196 858 49 725 q 604 992 343 992 q 836 973 717 992 q 1018 928 956 954 l 1004 663 l 992 663 q 674 922 919 922 q 354 475 354 922 q 420 161 354 272 q 621 50 486 50 q 749 90 694 50 q 804 199 804 129 l 806 389 q 787 435 806 419 q 735 451 768 451 l 713 451 l 713 465 l 1179 465 l 1179 451 l 1158 451 q 1106 435 1124 451 q 1089 389 1088 419 l 1089 160 q 807 8 1011 61 q 590 -19 701 -19 z "},"Ģ":{"ha":1211,"x_min":14,"x_max":1553,"o":"m 1315 -294 q 1249 -290 1282 -294 q 1008 -186 1110 -268 q 857 18 907 -104 q 603 -19 736 -19 q 177 120 340 -19 q 14 488 14 260 q 181 853 14 715 q 619 992 347 992 q 925 960 776 992 q 1033 929 992 946 l 1019 663 l 1007 663 q 876 858 974 793 q 639 922 778 922 q 410 800 500 922 q 319 478 319 678 q 358 254 319 351 q 469 103 397 157 q 630 50 542 50 q 769 91 718 50 q 819 199 819 132 l 819 388 q 802 435 821 418 q 749 451 783 451 l 728 451 l 728 465 l 1194 465 l 1194 451 l 1172 451 q 1121 435 1139 451 q 1104 388 1103 418 l 1104 163 q 1136 3 1104 82 q 1367 -222 1208 -172 q 1458 -236 1413 -236 q 1549 -226 1504 -236 l 1551 -240 q 1315 -294 1426 -294 m 547 -367 q 592 -309 592 -347 q 567 -242 592 -271 q 542 -178 542 -214 q 574 -106 542 -129 q 617 -89 596 -89 q 714 -146 688 -89 q 729 -200 729 -178 q 724 -251 729 -222 q 697 -315 719 -279 q 640 -366 674 -350 q 585 -382 607 -382 q 551 -379 564 -382 l 547 -367 z "},"ģ":{"ha":1196,"x_min":47,"x_max":1179,"o":"m 590 -19 q 195 116 342 -19 q 49 488 49 251 q 196 858 49 725 q 604 992 343 992 q 836 973 717 992 q 1018 928 956 954 l 1004 663 l 992 663 q 674 922 919 922 q 354 475 354 922 q 420 161 354 272 q 621 50 486 50 q 749 90 694 50 q 804 199 804 129 l 806 389 q 787 435 806 419 q 735 451 768 451 l 713 451 l 713 465 l 1179 465 l 1179 451 l 1158 451 q 1106 435 1124 451 q 1089 389 1088 419 l 1089 160 q 807 8 1011 61 q 590 -19 701 -19 m 532 -367 q 576 -309 576 -347 q 551 -242 576 -271 q 526 -178 526 -214 q 558 -106 526 -129 q 601 -89 581 -89 q 699 -146 672 -89 q 714 -200 714 -178 q 709 -251 714 -222 q 681 -315 704 -279 q 625 -366 658 -350 q 570 -382 592 -382 q 536 -379 549 -382 l 532 -367 z "},"Ħ":{"ha":1240,"x_min":-35,"x_max":1269,"o":"m 1090 747 l 1185 747 l 1185 678 l 1090 678 l 1090 101 q 1133 26 1090 53 q 1179 14 1154 14 l 1196 14 l 1196 0 l 699 0 l 699 14 l 715 14 q 778 40 753 14 q 806 101 804 65 l 806 451 l 433 451 l 433 97 q 367 -147 433 -40 q 146 -276 297 -260 q 113 -279 131 -279 q -33 -253 47 -279 l -33 -239 q 114 -119 78 -196 q 143 -26 139 -68 q 149 97 149 28 l 149 678 l 58 678 l 58 747 l 149 747 l 149 872 q 122 933 147 908 q 60 958 96 958 l 42 958 l 42 972 l 540 972 l 540 958 l 522 958 q 447 917 472 958 q 433 874 435 897 l 433 747 l 806 747 l 806 847 q 839 1000 806 926 q 933 1126 872 1074 q 1161 1211 1029 1211 q 1269 1197 1213 1211 l 1269 1183 q 1143 1099 1181 1156 q 1107 1024 1114 1054 q 1097 978 1100 994 q 1093 933 1094 963 q 1090 847 1090 899 l 1090 747 m 806 521 l 806 678 l 433 678 l 433 521 l 806 521 z "},"ħ":{"ha":1240,"x_min":40,"x_max":1200,"o":"m 718 14 q 780 39 754 14 q 807 100 806 64 l 807 451 l 433 451 l 433 101 q 478 25 435 50 q 522 14 499 14 l 540 14 l 540 0 l 42 0 l 42 14 l 60 14 q 122 40 96 14 q 149 101 147 65 l 149 678 l 58 678 l 58 747 l 149 747 l 149 872 q 122 933 147 908 q 60 958 96 958 l 42 958 l 42 972 l 540 972 l 540 958 l 522 958 q 460 933 486 958 q 433 872 435 908 l 433 747 l 807 747 l 807 872 q 780 933 806 908 q 718 958 754 958 l 700 958 l 700 972 l 1199 972 l 1199 958 l 1181 958 q 1104 915 1131 958 q 1092 871 1093 894 l 1092 747 l 1185 747 l 1185 678 l 1092 678 l 1092 101 q 1119 40 1093 65 q 1181 14 1144 14 l 1199 14 l 1199 0 l 700 0 l 700 14 l 718 14 m 433 521 l 807 521 l 807 678 l 433 678 l 433 521 z "},"Ī":{"ha":692,"x_min":-57,"x_max":654,"o":"m 203 1104 l 203 1222 l 606 1222 l 606 1104 l 203 1104 m 633 14 l 651 14 l 651 0 l 153 0 l 153 14 l 171 14 q 233 40 207 14 q 260 101 258 65 l 260 903 l 139 899 q 14 813 22 894 q 14 804 14 808 q 40 742 14 765 q 107 718 67 718 q 124 718 115 718 l 124 710 q 63 693 93 693 q 3 711 33 693 q -56 814 -56 746 q -6 920 -56 878 q 151 967 44 963 q 249 971 167 968 q 392 975 332 974 q 651 1000 564 983 l 654 986 q 556 919 576 974 q 544 853 546 893 l 544 101 q 571 40 544 65 q 633 14 597 14 z "},"ī":{"ha":581,"x_min":40,"x_max":540,"o":"m 92 1104 l 92 1222 l 494 1222 l 494 1104 l 92 1104 m 60 14 q 122 40 96 14 q 149 101 147 65 l 149 872 q 122 933 147 908 q 60 958 96 958 l 42 958 l 42 972 l 540 972 l 540 958 l 522 958 q 460 933 486 958 q 433 872 435 908 l 433 101 q 460 40 433 65 q 522 14 486 14 l 540 14 l 540 0 l 42 0 l 42 14 l 60 14 z "},"Į":{"ha":692,"x_min":-57,"x_max":654,"o":"m 471 -199 q 532 -169 496 -199 l 540 -178 q 456 -292 535 -267 q 397 -299 432 -299 q 317 -268 361 -299 q 256 -153 256 -225 q 298 -44 256 -79 q 392 0 340 -8 l 153 0 l 153 14 l 171 14 q 233 40 207 14 q 260 101 258 65 l 260 903 l 139 899 q 14 813 22 894 q 14 804 14 808 q 40 742 14 765 q 107 718 67 718 q 124 718 115 718 l 124 710 q 63 693 93 693 q 3 711 33 693 q -56 814 -56 746 q -6 920 -56 878 q 151 967 44 963 q 226 969 171 968 q 333 973 282 971 q 444 979 385 975 q 651 1000 576 986 l 654 986 q 556 919 576 974 q 544 853 546 893 l 544 101 q 571 40 544 65 q 633 14 597 14 l 651 14 l 651 0 l 458 0 l 467 -3 q 376 -97 376 -22 q 471 -199 376 -199 z "},"į":{"ha":581,"x_min":40,"x_max":540,"o":"m 347 0 q 283 -41 301 -12 q 265 -87 265 -69 q 321 -193 265 -172 q 360 -199 335 -199 q 421 -169 385 -199 l 429 -178 q 344 -292 424 -267 q 285 -299 321 -299 q 206 -268 250 -299 q 144 -153 144 -225 q 187 -44 144 -79 q 281 0 229 -8 l 42 0 l 42 14 l 60 14 q 122 40 96 14 q 149 101 147 65 l 149 872 q 122 933 147 908 q 60 958 96 958 l 42 958 l 42 972 l 540 972 l 540 958 l 522 958 q 460 933 486 958 q 433 872 435 908 l 433 101 q 460 40 433 65 q 522 14 486 14 l 540 14 l 540 0 l 347 0 z "},"İ":{"ha":692,"x_min":-57,"x_max":654,"o":"m 473 1091 q 458 1076 473 1091 q 401 1061 443 1061 q 328 1091 358 1061 q 299 1163 299 1121 q 328 1235 299 1206 q 401 1265 358 1265 q 473 1235 443 1265 q 503 1163 503 1206 q 473 1091 503 1121 m 633 14 l 651 14 l 651 0 l 153 0 l 153 14 l 171 14 q 233 40 207 14 q 260 101 258 65 l 260 903 l 139 899 q 14 813 22 894 q 14 804 14 808 q 40 742 14 765 q 107 718 67 718 q 124 718 115 718 l 124 710 q 63 693 93 693 q 3 711 33 693 q -56 814 -56 746 q -6 920 -56 878 q 151 967 44 963 q 249 971 167 968 q 392 975 332 974 q 651 1000 564 983 l 654 986 q 556 919 576 974 q 544 853 546 893 l 544 101 q 571 40 544 65 q 633 14 597 14 z "},"ı":{"ha":581,"x_min":40,"x_max":540,"o":"m 60 14 q 122 40 96 14 q 149 101 147 65 l 149 872 q 122 933 147 908 q 60 958 96 958 l 42 958 l 42 972 l 540 972 l 540 958 l 522 958 q 460 933 486 958 q 433 872 435 908 l 433 101 q 460 40 433 65 q 522 14 486 14 l 540 14 l 540 0 l 42 0 l 42 14 l 60 14 z "},"Ĳ":{"ha":1281,"x_min":-57,"x_max":1240,"o":"m 633 14 l 651 14 l 651 0 l 153 0 l 153 14 l 171 14 q 233 40 207 14 q 260 101 258 65 l 260 903 l 139 899 q 14 813 22 894 q 14 804 14 808 q 40 742 14 765 q 107 718 67 718 q 124 718 115 718 l 124 710 q 63 693 93 693 q 3 711 33 693 q -56 814 -56 746 q -6 920 -56 878 q 151 967 44 963 q 249 971 167 968 q 392 975 332 974 q 651 1000 564 983 l 654 986 q 556 919 576 974 q 544 853 546 893 l 544 101 q 571 40 544 65 q 633 14 597 14 m 1221 958 q 1144 915 1171 958 q 1132 871 1133 896 l 1132 111 q 1097 -93 1132 0 q 992 -246 1061 -186 q 819 -306 921 -306 q 588 -236 717 -306 l 590 -224 q 635 -228 613 -228 q 687 -222 657 -228 q 743 -197 717 -215 q 789 -147 769 -178 q 819 -85 808 -117 q 838 -17 831 -54 q 847 115 847 44 l 847 871 q 820 933 846 907 q 758 958 794 958 l 740 958 l 740 972 l 1239 972 l 1239 958 l 1221 958 z "},"ĳ":{"ha":1169,"x_min":40,"x_max":1129,"o":"m 1110 958 q 1033 915 1060 958 q 1021 871 1022 896 l 1021 69 q 956 -131 1021 -44 q 789 -254 892 -217 q 636 -282 715 -282 q 574 -278 606 -282 l 574 -265 q 736 74 736 -192 l 736 871 q 709 933 735 907 q 647 958 683 958 l 629 958 l 629 972 l 1128 972 l 1128 958 l 1110 958 m 60 14 q 122 40 96 14 q 149 101 147 65 l 149 872 q 122 933 147 908 q 60 958 96 958 l 42 958 l 42 972 l 540 972 l 540 958 l 522 958 q 460 933 486 958 q 433 872 435 908 l 433 101 q 478 25 435 51 q 522 14 499 14 l 540 14 l 540 0 l 42 0 l 42 14 l 60 14 z "},"Ķ":{"ha":1142,"x_min":40,"x_max":1536,"o":"m 60 14 q 122 40 96 14 q 149 101 147 65 l 149 872 q 122 933 147 908 q 60 958 96 958 l 42 958 l 42 972 l 540 972 l 540 958 l 522 958 q 460 933 486 958 q 433 872 435 908 l 433 101 q 460 40 433 65 q 522 14 486 14 l 540 14 l 540 0 l 42 0 l 42 14 l 60 14 m 1535 -246 q 1269 -324 1397 -324 q 915 -143 1089 -324 q 783 18 851 -76 l 478 442 l 810 894 q 819 919 819 908 q 815 939 819 931 q 776 960 806 960 l 763 960 l 763 972 l 1097 972 l 1097 960 l 1092 960 q 939 892 999 960 l 701 604 l 1019 157 q 1280 -137 1171 -56 q 1532 -231 1389 -219 l 1535 -246 m 568 -278 q 611 -220 611 -258 q 586 -153 611 -182 q 561 -89 561 -125 q 594 -17 561 -40 q 636 0 617 0 q 735 -57 708 0 q 750 -111 750 -89 q 745 -162 750 -133 q 717 -226 740 -190 q 660 -277 694 -261 q 606 -293 626 -293 q 571 -290 585 -293 l 568 -278 z "},"ķ":{"ha":1140,"x_min":40,"x_max":1178,"o":"m 60 14 q 122 40 96 14 q 149 101 147 65 l 149 872 q 122 933 147 908 q 60 958 96 958 l 42 958 l 42 972 l 540 972 l 540 958 l 522 958 q 460 933 486 958 q 433 872 435 908 l 433 101 q 460 40 433 65 q 522 14 486 14 l 540 14 l 540 0 l 42 0 l 42 14 l 60 14 m 1178 0 l 1028 0 q 671 139 772 0 q 553 317 629 194 q 478 442 478 440 l 810 894 q 819 919 819 908 q 815 939 819 931 q 776 960 806 960 l 763 960 l 763 972 l 1097 972 l 1097 960 l 1092 960 q 939 892 999 960 l 704 608 l 1029 119 q 1178 14 1097 17 l 1178 0 m 568 -278 q 611 -220 611 -258 q 586 -153 611 -182 q 561 -89 561 -125 q 594 -17 561 -40 q 636 0 617 0 q 735 -57 708 0 q 750 -111 750 -89 q 745 -162 750 -133 q 717 -226 740 -190 q 660 -277 694 -261 q 606 -293 626 -293 q 571 -290 585 -293 l 568 -278 z "},"Ĺ":{"ha":618,"x_min":42,"x_max":1522,"o":"m 268 1057 l 258 1067 q 431 1286 299 1161 q 474 1325 453 1307 q 592 1186 563 1288 q 432 1103 522 1140 q 268 1057 342 1065 m 1269 -185 q 1510 -125 1443 -185 l 1521 -135 q 1346 -331 1460 -267 q 1138 -369 1275 -369 q 1090 -368 1124 -369 q 980 -345 1056 -367 q 853 -306 904 -324 q 724 -253 801 -289 q 538 -160 626 -207 q 408 -93 449 -114 q 322 -53 367 -72 q 200 -17 278 -35 q 42 0 122 0 l 42 14 l 60 14 q 136 57 110 14 q 149 101 147 76 l 149 871 q 122 933 147 908 q 60 958 96 958 l 42 958 l 42 972 l 540 972 l 540 958 l 528 958 q 461 933 488 958 q 433 871 435 908 l 433 63 q 486 -19 433 -3 q 1269 -185 1024 -185 z "},"ĺ":{"ha":906,"x_min":42,"x_max":907,"o":"m 268 1057 l 258 1067 q 431 1286 299 1161 q 474 1325 453 1307 q 592 1186 563 1288 q 432 1103 522 1140 q 268 1057 342 1065 m 60 14 q 122 40 96 14 q 149 101 147 65 l 149 871 q 122 933 147 907 q 60 958 96 958 l 42 958 l 42 972 l 540 972 l 540 958 l 522 958 q 460 933 486 958 q 433 871 433 907 l 433 71 l 604 71 q 783 138 706 71 q 893 322 861 204 l 907 322 l 854 0 l 42 0 l 42 14 l 60 14 z "},"Ļ":{"ha":618,"x_min":40,"x_max":1522,"o":"m 1269 -185 q 1510 -125 1443 -185 l 1521 -135 q 1346 -331 1460 -267 q 1138 -369 1275 -369 q 1090 -368 1124 -369 q 980 -345 1056 -367 q 853 -306 904 -324 q 724 -253 801 -289 q 538 -160 626 -207 q 408 -93 449 -114 q 322 -53 367 -72 q 200 -17 278 -35 q 42 0 122 0 l 42 14 l 60 14 q 136 57 110 14 q 149 101 147 76 l 149 871 q 103 947 147 922 q 60 958 83 958 l 42 958 l 42 972 l 540 972 l 540 958 l 528 958 q 461 933 488 958 q 433 871 435 908 l 433 63 q 486 -19 433 -3 q 1269 -185 1024 -185 m 294 -436 q 339 -378 339 -417 q 314 -312 339 -340 q 289 -247 289 -283 q 322 -175 289 -199 q 364 -158 344 -158 q 463 -215 436 -158 q 478 -269 478 -247 q 473 -320 478 -292 q 445 -384 468 -349 q 388 -435 422 -419 q 333 -451 354 -451 q 299 -449 313 -451 l 294 -436 z "},"ļ":{"ha":906,"x_min":42,"x_max":907,"o":"m 60 14 q 122 40 96 14 q 149 101 147 65 l 149 871 q 104 947 147 922 q 60 958 83 958 l 42 958 l 42 972 l 540 972 l 540 958 l 522 958 q 460 933 486 958 q 433 871 433 907 l 433 71 l 604 71 q 783 138 706 71 q 893 322 861 204 l 907 322 l 854 0 l 42 0 l 42 14 l 60 14 m 406 -367 q 450 -309 450 -347 q 425 -242 450 -271 q 400 -178 400 -214 q 433 -106 400 -129 q 475 -89 456 -89 q 574 -146 547 -89 q 589 -200 589 -178 q 584 -251 589 -222 q 556 -315 579 -279 q 499 -366 533 -350 q 444 -382 465 -382 q 410 -379 424 -382 l 406 -367 z "},"Ľ":{"ha":757,"x_min":42,"x_max":1522,"o":"m 600 707 q 643 765 643 726 q 618 831 643 803 q 593 896 593 860 q 626 968 593 944 q 668 985 649 985 q 767 928 740 985 q 782 874 782 896 q 777 823 782 851 q 749 759 772 794 q 692 708 726 724 q 638 692 658 692 q 603 694 617 692 l 600 707 m 1210 -199 q 1510 -125 1318 -199 l 1521 -135 q 1249 -339 1419 -314 q 1181 -346 1207 -346 q 1122 -344 1154 -346 q 1025 -326 1089 -342 q 909 -291 961 -310 q 790 -243 857 -272 q 672 -190 722 -214 q 450 -83 513 -111 q 42 0 269 0 l 42 14 l 60 14 q 122 40 96 14 q 149 101 147 65 l 149 871 q 103 947 147 922 q 60 958 83 958 l 42 958 l 42 972 l 540 972 l 540 958 l 522 958 q 446 915 472 958 q 433 871 433 896 l 433 76 q 444 11 433 32 q 486 -19 456 -10 q 1061 -185 933 -168 q 1210 -199 1161 -199 z "},"ľ":{"ha":906,"x_min":42,"x_max":907,"o":"m 600 707 q 643 765 643 726 q 618 831 643 803 q 593 896 593 860 q 626 968 593 944 q 668 985 649 985 q 767 928 740 985 q 782 874 782 896 q 777 823 782 851 q 749 759 772 794 q 692 708 726 724 q 638 692 658 692 q 603 694 617 692 l 600 707 m 60 14 q 122 40 96 14 q 149 101 147 65 l 149 871 q 104 947 147 922 q 60 958 83 958 l 42 958 l 42 972 l 540 972 l 540 958 l 522 958 q 460 933 486 958 q 433 871 433 907 l 433 71 l 604 71 q 783 138 706 71 q 893 322 861 204 l 907 322 l 854 0 l 42 0 l 42 14 l 60 14 z "},"Ŀ":{"ha":826,"x_min":42,"x_max":1522,"o":"m 1210 -199 q 1510 -125 1318 -199 l 1521 -135 q 1249 -339 1419 -314 q 1181 -346 1207 -346 q 1122 -344 1154 -346 q 1025 -326 1089 -342 q 909 -291 961 -310 q 790 -243 857 -272 q 672 -190 722 -214 q 450 -83 513 -111 q 42 0 269 0 l 42 14 l 60 14 q 122 40 96 14 q 149 101 147 65 l 149 871 q 103 947 147 922 q 60 958 83 958 l 42 958 l 42 972 l 540 972 l 540 958 l 522 958 q 446 915 472 958 q 433 871 433 896 l 433 76 q 444 11 433 32 q 486 -19 456 -10 q 1061 -185 933 -168 q 1210 -199 1161 -199 m 723 485 q 708 469 723 485 q 651 454 693 454 q 578 485 608 454 q 549 558 549 515 q 578 630 549 600 q 651 660 608 660 q 723 630 693 660 q 753 558 753 600 q 723 485 753 515 z "},"ŀ":{"ha":906,"x_min":42,"x_max":907,"o":"m 60 14 q 122 40 96 14 q 149 101 147 65 l 149 871 q 104 947 147 922 q 60 958 83 958 l 42 958 l 42 972 l 540 972 l 540 958 l 522 958 q 460 933 486 958 q 433 871 433 907 l 433 71 l 604 71 q 783 138 706 71 q 893 322 861 204 l 907 322 l 854 0 l 42 0 l 42 14 l 60 14 m 723 485 q 708 469 723 485 q 651 454 693 454 q 578 485 608 454 q 549 558 549 515 q 578 630 549 600 q 651 660 608 660 q 723 630 693 660 q 753 558 753 600 q 723 485 753 515 z "},"Ł":{"ha":663,"x_min":42,"x_max":1539,"o":"m 1368 -307 q 1273 -338 1322 -331 q 1197 -346 1224 -346 q 1139 -344 1171 -346 q 1042 -326 1107 -342 q 926 -291 978 -310 q 806 -243 874 -272 q 690 -190 739 -214 q 468 -83 529 -111 q 58 0 286 0 l 58 14 l 76 14 q 139 40 113 14 q 165 101 165 65 l 165 367 l 78 317 l 42 381 l 165 451 l 165 871 q 121 947 164 922 q 76 958 100 958 l 58 958 l 58 972 l 557 972 l 557 958 l 539 958 q 463 915 489 958 q 450 871 451 896 l 450 617 l 558 679 l 594 615 l 450 532 l 450 76 q 461 11 450 32 q 503 -19 472 -10 q 960 -160 838 -131 q 1126 -193 1082 -189 q 1201 -197 1169 -197 q 1285 -193 1233 -197 q 1528 -125 1368 -185 l 1539 -135 q 1368 -307 1471 -254 z "},"ł":{"ha":906,"x_min":24,"x_max":907,"o":"m 60 14 q 122 40 96 14 q 149 101 147 65 l 149 367 l 61 317 l 25 381 l 149 451 l 149 871 q 104 947 147 922 q 60 958 83 958 l 42 958 l 42 972 l 540 972 l 540 958 l 522 958 q 460 933 486 958 q 433 871 433 907 l 433 617 l 540 679 l 576 615 l 433 532 l 433 71 l 604 71 q 783 138 706 71 q 893 322 861 204 l 907 322 l 854 0 l 42 0 l 42 14 l 60 14 z "},"Ń":{"ha":1224,"x_min":-321,"x_max":1586,"o":"m 535 1057 l 525 1067 q 615 1201 551 1128 q 740 1325 679 1274 q 858 1186 829 1288 q 699 1103 789 1140 q 535 1057 608 1065 m 1585 -187 q 1401 -240 1500 -240 q 1222 -189 1315 -240 q 1035 -43 1126 -136 l 425 588 l 425 99 q 468 25 425 50 q 510 14 488 14 l 536 14 l 536 0 l 28 0 l 28 14 l 54 14 q 114 38 89 14 q 139 99 139 63 l 139 885 q -236 1113 -75 1113 q -314 1099 -276 1113 l -321 1111 q -146 1167 -243 1167 q 40 1113 -61 1167 q 229 967 140 1057 l 800 376 l 800 874 q 774 934 799 910 q 714 958 749 958 l 688 958 l 688 972 l 1196 972 l 1196 958 l 1171 958 q 1111 934 1136 958 q 1085 875 1086 910 l 1085 82 l 1110 56 q 1142 21 1110 56 q 1187 -25 1175 -14 q 1235 -69 1199 -36 q 1293 -115 1271 -101 q 1354 -149 1315 -128 q 1425 -176 1393 -171 q 1501 -185 1461 -185 q 1579 -174 1542 -185 l 1585 -187 z "},"ń":{"ha":1224,"x_min":26,"x_max":1197,"o":"m 549 1057 l 539 1067 q 629 1201 565 1128 q 754 1325 693 1274 q 872 1186 843 1288 q 713 1103 803 1140 q 549 1057 622 1065 m 1171 958 q 1111 934 1136 958 q 1085 875 1086 910 l 1085 158 q 1099 0 1085 56 l 1103 -19 l 1090 -19 l 425 572 l 425 99 q 468 25 425 49 q 510 14 488 14 l 536 14 l 536 0 l 28 0 l 28 14 l 54 14 q 114 38 89 14 q 139 99 139 63 l 139 819 q 125 974 139 917 l 121 993 l 135 993 l 800 401 l 800 874 q 774 934 799 910 q 714 958 749 958 l 688 958 l 688 972 l 1196 972 l 1196 958 l 1171 958 z "},"Ņ":{"ha":1224,"x_min":-321,"x_max":1586,"o":"m 1585 -187 q 1401 -240 1500 -240 q 1222 -189 1315 -240 q 1035 -43 1126 -137 l 425 588 l 425 99 q 450 38 425 63 q 510 14 475 14 l 536 14 l 536 0 l 28 0 l 28 14 l 54 14 q 114 38 89 14 q 139 99 139 63 l 139 885 q -236 1113 -75 1113 q -314 1099 -276 1113 l -321 1111 q -153 1167 -243 1167 q -31 1144 -93 1167 q 76 1092 31 1121 q 229 967 163 1035 l 800 376 l 800 874 q 774 934 799 910 q 714 958 749 958 l 688 958 l 688 972 l 1196 972 l 1196 958 l 1171 958 q 1111 934 1136 958 q 1085 875 1086 910 l 1085 82 l 1110 56 q 1142 21 1110 56 q 1187 -25 1175 -14 q 1235 -69 1199 -36 q 1293 -115 1271 -101 q 1354 -149 1315 -128 q 1425 -176 1393 -171 q 1501 -185 1461 -185 q 1579 -174 1542 -185 l 1585 -187 m 629 -367 q 674 -309 674 -347 q 649 -242 674 -271 q 624 -178 624 -214 q 657 -106 624 -129 q 699 -89 679 -89 q 797 -146 771 -89 q 813 -200 813 -178 q 808 -251 813 -222 q 780 -315 803 -279 q 723 -366 757 -350 q 668 -382 689 -382 q 633 -379 647 -382 l 629 -367 z "},"ņ":{"ha":1224,"x_min":26,"x_max":1197,"o":"m 1171 958 q 1111 934 1136 958 q 1085 875 1086 910 l 1085 158 q 1099 0 1085 56 l 1103 -19 l 1090 -19 l 425 572 l 425 99 q 468 25 425 49 q 510 14 488 14 l 536 14 l 536 0 l 28 0 l 28 14 l 54 14 q 114 38 89 14 q 139 99 139 63 l 139 819 q 125 974 139 917 l 121 993 l 135 993 l 800 401 l 800 874 q 774 934 799 910 q 714 958 749 958 l 688 958 l 688 972 l 1196 972 l 1196 958 l 1171 958 m 619 -367 q 664 -309 664 -347 q 639 -242 664 -271 q 614 -178 614 -214 q 647 -106 614 -129 q 689 -89 669 -89 q 788 -146 761 -89 q 803 -200 803 -178 q 798 -251 803 -222 q 770 -315 793 -279 q 713 -366 747 -350 q 658 -382 679 -382 q 624 -379 638 -382 l 619 -367 z "},"Ň":{"ha":1224,"x_min":-321,"x_max":1586,"o":"m 568 1061 l 551 1061 l 317 1306 l 326 1317 l 560 1226 l 779 1315 l 789 1304 l 568 1061 m 1585 -187 q 1401 -240 1500 -240 q 1222 -189 1315 -240 q 1035 -43 1126 -137 l 425 588 l 425 99 q 450 38 425 63 q 510 14 475 14 l 536 14 l 536 0 l 28 0 l 28 14 l 54 14 q 114 38 89 14 q 139 99 139 63 l 139 885 q -236 1113 -75 1113 q -314 1099 -276 1113 l -321 1111 q -153 1167 -243 1167 q -31 1144 -93 1167 q 76 1092 31 1121 q 229 967 163 1035 l 800 376 l 800 874 q 774 934 799 910 q 714 958 749 958 l 688 958 l 688 972 l 1196 972 l 1196 958 l 1171 958 q 1111 934 1136 958 q 1085 875 1086 910 l 1085 82 l 1110 56 q 1142 21 1110 56 q 1187 -25 1175 -14 q 1235 -69 1199 -36 q 1293 -115 1271 -101 q 1354 -149 1315 -128 q 1425 -176 1393 -171 q 1501 -185 1461 -185 q 1579 -174 1542 -185 l 1585 -187 z "},"ň":{"ha":1224,"x_min":26,"x_max":1197,"o":"m 582 1061 l 565 1061 l 331 1304 l 340 1315 l 574 1226 l 793 1315 l 803 1304 l 582 1061 m 1171 958 q 1111 934 1136 958 q 1085 875 1086 910 l 1085 158 q 1099 0 1085 56 l 1103 -19 l 1090 -19 l 425 572 l 425 99 q 468 25 425 49 q 510 14 488 14 l 536 14 l 536 0 l 28 0 l 28 14 l 54 14 q 114 38 89 14 q 139 99 139 63 l 139 819 q 125 974 139 917 l 121 993 l 135 993 l 800 401 l 800 874 q 774 934 799 910 q 714 958 749 958 l 688 958 l 688 972 l 1196 972 l 1196 958 l 1171 958 z "},"Ŋ":{"ha":1238,"x_min":-417,"x_max":1197,"o":"m -415 1151 q -247 1207 -337 1207 q -126 1184 -187 1207 q -18 1132 -64 1161 q 135 1007 69 1075 l 814 393 l 814 874 q 788 934 813 910 q 728 958 763 958 l 701 958 l 701 972 l 1085 972 l 1196 972 l 1196 958 l 1171 958 q 1114 936 1138 958 q 1090 882 1090 914 l 1090 -6 q 1036 -178 1090 -106 q 796 -289 950 -289 q 699 -276 749 -289 l 692 -265 q 750 -213 732 -233 q 785 -158 768 -193 q 808 -72 803 -122 q 814 58 814 -22 l 814 231 l 411 594 l 411 99 q 454 25 411 50 q 496 14 474 14 l 522 14 l 522 0 l 28 0 l 28 14 l 54 14 q 111 36 88 14 q 135 90 135 58 l 135 846 q 22 961 49 939 q -37 1013 -4 983 q -97 1059 -71 1043 q -156 1097 -122 1075 q -255 1140 -203 1128 q -339 1153 -307 1153 q -408 1139 -371 1153 l -415 1151 z "},"ŋ":{"ha":1238,"x_min":26,"x_max":1197,"o":"m 1171 958 q 1114 936 1138 958 q 1090 882 1090 914 l 1090 -19 q 1031 -183 1086 -115 q 794 -289 944 -289 q 699 -276 749 -289 l 692 -265 q 750 -213 732 -233 q 785 -158 768 -193 q 808 -72 803 -122 q 814 58 814 -22 l 814 226 l 411 585 l 411 99 q 454 25 411 49 q 496 14 474 14 l 522 14 l 522 0 l 28 0 l 28 14 l 54 14 q 114 38 89 14 q 139 99 139 63 l 139 819 q 125 974 139 917 l 121 993 l 136 992 l 814 389 l 814 874 q 788 934 813 910 q 728 958 763 958 l 701 958 l 701 972 l 1196 972 l 1196 958 l 1171 958 z "},"Ō":{"ha":1293,"x_min":13,"x_max":1279,"o":"m 449 1124 l 449 1242 l 851 1242 l 851 1124 l 449 1124 m 510 601 q 467 754 467 674 q 550 935 467 865 q 674 992 600 978 q 747 999 719 999 q 892 980 832 999 q 1007 935 951 961 q 1112 865 1063 910 q 1199 768 1161 821 q 1279 493 1279 654 q 1106 120 1279 260 q 648 -19 933 -19 q 188 121 363 -19 q 14 490 14 261 q 131 815 14 679 q 438 982 249 950 l 446 968 q 355 791 389 908 q 321 538 321 674 q 410 183 321 317 q 650 50 499 50 q 883 169 794 50 q 972 493 972 290 q 937 722 972 621 q 839 874 901 824 q 706 924 776 924 q 568 869 617 924 q 511 714 511 807 q 526 601 511 661 l 510 601 z "},"ō":{"ha":1250,"x_min":47,"x_max":1203,"o":"m 428 1124 l 428 1242 l 831 1242 l 831 1124 l 428 1124 m 625 992 q 934 932 804 992 q 1133 758 1064 872 q 1203 486 1203 643 q 1049 115 1203 249 q 625 -19 894 -19 q 202 115 356 -19 q 49 486 49 249 q 202 858 49 724 q 625 992 356 992 m 427 165 q 463 108 427 165 q 626 50 499 50 q 824 165 753 50 q 896 486 896 281 q 824 807 896 692 q 626 922 753 922 q 427 807 499 922 q 356 486 356 692 q 427 165 356 281 z "},"Ő":{"ha":1293,"x_min":14,"x_max":1281,"o":"m 474 1081 l 464 1090 q 554 1224 490 1151 q 679 1349 618 1297 q 797 1210 768 1311 q 638 1126 728 1164 q 474 1081 547 1089 m 765 1081 l 756 1090 q 815 1186 774 1132 q 971 1349 885 1275 q 1089 1210 1060 1311 q 903 1116 993 1146 q 765 1081 814 1086 m 510 601 q 467 754 467 674 q 550 935 467 865 q 674 992 600 978 q 747 999 719 999 q 892 980 832 999 q 1007 935 951 961 q 1112 865 1063 910 q 1199 768 1161 821 q 1279 493 1279 654 q 1106 120 1279 260 q 649 -19 933 -19 q 189 121 364 -19 q 14 490 14 261 q 131 815 14 679 q 438 982 249 950 l 446 968 q 355 791 389 908 q 321 538 321 674 q 410 183 321 317 q 647 50 499 50 q 883 171 794 50 q 972 493 972 292 q 937 722 972 621 q 839 874 901 824 q 706 924 776 924 q 568 869 617 924 q 511 714 511 807 q 526 601 511 661 l 510 601 z "},"ő":{"ha":1250,"x_min":49,"x_max":1203,"o":"m 453 1081 l 443 1090 q 533 1224 469 1151 q 658 1349 597 1297 q 776 1210 747 1311 q 617 1126 707 1164 q 453 1081 526 1089 m 744 1081 l 735 1090 q 894 1297 772 1176 q 950 1349 924 1326 q 1068 1210 1039 1311 q 883 1116 972 1146 q 744 1081 793 1086 m 625 992 q 934 932 804 992 q 1133 758 1064 872 q 1203 486 1203 643 q 1049 115 1203 249 q 626 -19 896 -19 q 202 115 356 -19 q 49 486 49 249 q 202 858 49 724 q 625 992 356 992 m 427 165 q 463 108 427 165 q 626 50 499 50 q 824 165 753 50 q 896 486 896 281 q 824 807 896 692 q 626 922 753 922 q 427 807 499 922 q 356 486 356 692 q 427 165 356 281 z "},"Œ":{"ha":1510,"x_min":-7,"x_max":1511,"o":"m 833 0 q 697 -10 779 0 q 565 -19 615 -19 q 148 116 303 -19 q -7 488 -7 251 q 149 858 -7 725 q 582 992 306 992 q 718 982 646 992 q 833 972 790 972 l 1261 972 q 1355 981 1304 972 q 1426 997 1406 989 l 1426 711 l 1413 711 l 1413 722 q 1313 888 1413 847 q 1239 901 1279 900 l 1038 901 l 1038 514 l 1189 514 q 1297 558 1256 515 q 1339 667 1339 600 l 1339 672 l 1353 672 l 1353 286 l 1339 286 l 1339 293 q 1268 424 1339 382 q 1190 444 1233 443 l 1038 444 l 1038 71 l 1208 71 q 1388 138 1310 71 q 1497 322 1465 204 l 1511 322 l 1458 0 l 833 0 m 586 922 q 371 808 454 922 q 288 488 288 693 q 369 166 288 282 q 585 50 450 50 q 704 81 657 50 q 751 144 751 111 l 751 828 q 706 891 751 860 q 586 922 660 922 z "},"œ":{"ha":1585,"x_min":49,"x_max":1567,"o":"m 889 0 q 753 -10 835 0 q 621 -19 671 -19 q 203 116 358 -19 q 49 488 49 251 q 205 858 49 725 q 638 992 361 992 q 774 982 701 992 q 889 972 846 972 l 1317 972 q 1410 981 1360 972 q 1482 997 1461 989 l 1482 711 l 1468 711 l 1468 722 q 1388 878 1468 833 q 1294 901 1349 900 l 1093 901 l 1093 514 l 1244 514 q 1353 558 1311 515 q 1394 667 1394 600 l 1394 672 l 1408 672 l 1408 286 l 1394 286 l 1394 293 q 1324 424 1394 382 q 1246 444 1289 443 l 1093 444 l 1093 71 l 1264 71 q 1443 138 1365 71 q 1553 322 1521 204 l 1567 322 l 1514 0 l 889 0 m 642 922 q 426 808 510 922 q 343 488 343 693 q 424 166 343 282 q 640 50 506 50 q 760 81 713 50 q 807 144 807 111 l 807 828 q 761 891 807 860 q 642 922 715 922 z "},"Ŕ":{"ha":1088,"x_min":49,"x_max":1631,"o":"m 519 1057 l 510 1067 q 601 1201 536 1128 q 725 1325 665 1274 q 843 1186 814 1288 q 683 1103 774 1140 q 519 1057 593 1065 m 1001 708 q 922 515 1001 583 q 746 447 842 447 q 714 449 731 447 q 874 340 801 431 q 949 237 907 300 q 1007 150 990 174 q 1174 -44 1090 31 q 1631 -222 1351 -206 l 1631 -236 q 1439 -314 1554 -290 q 1303 -328 1371 -328 q 1161 -308 1236 -328 q 1014 -250 1086 -289 q 867 -137 942 -211 q 746 13 793 -64 q 664 160 699 90 q 598 299 629 231 q 560 382 567 367 q 488 475 519 465 l 488 489 l 510 489 q 658 560 600 489 q 697 644 692 600 q 703 700 703 688 q 642 852 703 804 q 503 900 581 900 l 442 900 l 442 101 q 467 40 442 65 q 531 14 493 14 l 547 14 l 549 0 l 49 0 l 49 14 l 67 14 q 128 39 103 14 q 156 100 154 64 l 156 871 q 128 933 154 907 q 67 958 103 958 l 50 958 l 50 972 l 592 972 q 906 900 799 972 q 974 823 947 872 q 1001 708 1001 774 z "},"ŕ":{"ha":1100,"x_min":49,"x_max":1186,"o":"m 519 1057 l 510 1067 q 601 1201 536 1128 q 725 1325 665 1274 q 843 1186 814 1288 q 683 1103 774 1140 q 519 1057 593 1065 m 938 819 q 960 719 960 771 q 949 627 960 667 q 914 549 938 588 q 738 446 863 465 q 835 392 792 431 q 921 283 881 353 q 1103 36 1043 74 q 1186 14 1135 15 l 1186 0 l 1013 0 q 754 40 832 0 q 596 236 643 97 q 574 321 583 276 q 558 390 565 365 q 538 433 550 414 q 488 475 519 464 l 488 489 l 510 489 q 631 563 590 489 q 656 647 651 601 q 661 703 661 692 q 661 717 661 714 q 503 900 651 900 l 442 900 l 442 101 q 467 40 442 65 q 531 14 493 14 l 547 14 l 549 0 l 49 0 l 49 14 l 67 14 q 128 39 103 14 q 156 100 154 64 l 156 871 q 128 933 154 907 q 67 958 103 958 l 49 958 l 49 972 l 592 972 q 938 819 864 972 z "},"Ŗ":{"ha":1088,"x_min":49,"x_max":1631,"o":"m 1001 700 q 960 562 1001 625 q 861 473 919 499 q 746 447 803 447 q 714 449 729 447 q 874 340 801 431 q 949 237 907 300 q 1007 150 990 174 q 1174 -44 1090 31 q 1631 -222 1351 -206 l 1631 -236 q 1439 -314 1554 -290 q 1303 -328 1371 -328 q 1161 -308 1236 -328 q 1014 -250 1086 -289 q 867 -137 942 -211 q 746 13 793 -64 q 664 160 699 90 q 598 299 629 231 q 560 382 567 367 q 488 475 519 465 l 488 489 l 510 489 q 658 560 600 489 q 697 644 692 600 q 703 700 703 688 q 642 852 703 804 q 503 900 581 900 l 442 900 l 442 101 q 468 40 442 65 q 531 14 494 14 l 547 14 l 547 0 l 49 0 l 49 14 l 67 14 q 128 39 103 14 q 156 100 154 64 l 156 871 q 111 947 154 922 q 67 958 90 958 l 50 958 l 50 972 l 592 972 q 906 900 799 972 q 1001 700 1001 835 m 582 -367 q 625 -309 625 -347 q 600 -242 625 -271 q 575 -178 575 -214 q 608 -106 575 -129 q 650 -89 631 -89 q 749 -146 722 -89 q 764 -200 764 -178 q 759 -251 764 -222 q 731 -315 754 -279 q 674 -366 708 -350 q 619 -382 640 -382 q 585 -379 599 -382 l 582 -367 z "},"ŗ":{"ha":1100,"x_min":49,"x_max":1186,"o":"m 938 819 q 960 719 960 771 q 949 627 960 667 q 914 549 938 588 q 738 446 863 465 q 835 392 792 431 q 921 283 881 353 q 1081 54 1025 106 q 1186 14 1122 15 l 1186 0 l 1013 0 q 754 40 832 0 q 596 236 643 97 q 574 321 583 276 q 559 385 565 365 q 544 423 553 406 q 526 450 536 440 q 488 475 510 467 l 488 489 l 510 489 q 631 563 590 489 q 656 647 651 601 q 661 703 661 692 q 661 717 661 714 q 503 900 651 900 l 442 900 l 442 101 q 468 40 442 65 q 531 14 494 14 l 547 14 l 547 0 l 49 0 l 49 14 l 67 14 q 128 39 103 14 q 156 100 154 64 l 156 871 q 111 947 154 922 q 67 958 90 958 l 49 958 l 49 972 l 592 972 q 938 819 864 972 m 582 -367 q 625 -309 625 -347 q 600 -242 625 -271 q 575 -178 575 -214 q 608 -106 575 -129 q 650 -89 631 -89 q 749 -146 722 -89 q 764 -200 764 -178 q 759 -251 764 -222 q 731 -315 754 -279 q 674 -366 708 -350 q 619 -382 640 -382 q 585 -379 599 -382 l 582 -367 z "},"Ř":{"ha":1088,"x_min":49,"x_max":1631,"o":"m 553 1061 l 536 1061 l 301 1304 l 311 1315 l 544 1226 l 764 1315 l 774 1304 l 553 1061 m 1001 708 q 922 515 1001 583 q 746 447 842 447 q 714 449 731 447 q 874 340 801 431 q 949 237 907 300 q 1007 150 990 174 q 1174 -44 1090 31 q 1631 -222 1351 -206 l 1631 -236 q 1439 -314 1554 -290 q 1303 -328 1371 -328 q 1161 -308 1236 -328 q 1014 -250 1086 -289 q 867 -137 942 -211 q 746 13 793 -64 q 664 160 699 90 q 598 299 629 231 q 560 382 567 367 q 488 475 519 465 l 488 489 l 510 489 q 658 560 600 489 q 697 644 692 600 q 703 700 703 688 q 642 852 703 804 q 503 900 581 900 l 442 900 l 442 101 q 468 40 442 65 q 531 14 494 14 l 547 14 l 547 0 l 49 0 l 49 14 l 67 14 q 128 39 103 14 q 156 100 154 64 l 156 871 q 128 933 154 907 q 67 958 103 958 l 50 958 l 50 972 l 592 972 q 906 900 799 972 q 974 823 947 872 q 1001 708 1001 774 z "},"ř":{"ha":1100,"x_min":49,"x_max":1186,"o":"m 553 1061 l 536 1061 l 301 1304 l 311 1315 l 544 1226 l 764 1315 l 774 1304 l 553 1061 m 938 819 q 960 719 960 771 q 949 627 960 667 q 914 549 938 588 q 738 446 863 465 q 835 392 792 431 q 921 283 881 353 q 1081 54 1025 106 q 1186 14 1122 15 l 1186 0 l 1013 0 q 754 40 832 0 q 596 236 643 97 q 574 321 583 276 q 556 396 565 365 q 488 475 538 456 l 488 489 l 510 489 q 631 563 590 489 q 656 647 651 601 q 661 703 661 692 q 661 717 661 714 q 503 900 651 900 l 442 900 l 442 101 q 468 40 442 65 q 531 14 494 14 l 547 14 l 547 0 l 49 0 l 49 14 l 67 14 q 128 39 103 14 q 156 100 154 64 l 156 871 q 111 947 154 922 q 67 958 90 958 l 49 958 l 49 972 l 592 972 q 938 819 864 972 z "},"Ś":{"ha":932,"x_min":19,"x_max":899,"o":"m 449 1057 l 439 1067 q 529 1201 465 1128 q 653 1325 593 1274 q 772 1186 742 1288 q 612 1103 703 1140 q 449 1057 521 1065 m 899 233 q 814 14 899 113 q 592 -124 729 -85 q 424 -144 519 -144 q 243 -110 329 -144 q 33 114 82 -46 q 21 194 21 157 q 94 421 21 315 l 107 411 q 61 253 61 329 q 108 86 61 158 q 235 -26 156 14 q 397 -67 314 -67 q 536 -40 479 -67 q 619 31 593 -14 q 646 124 646 75 q 611 223 646 172 q 508 311 576 274 l 282 444 q 110 706 110 546 q 210 926 110 849 q 436 992 293 992 q 669 978 528 992 l 778 978 l 749 751 l 735 751 q 675 875 735 828 q 514 922 615 922 q 350 865 400 922 q 332 763 308 818 q 424 689 344 733 q 447 676 440 679 l 707 528 q 899 233 899 419 z "},"ś":{"ha":896,"x_min":61,"x_max":842,"o":"m 421 1057 l 411 1067 q 502 1201 438 1128 q 626 1325 567 1274 q 744 1186 715 1288 q 585 1103 675 1140 q 421 1057 494 1065 m 842 314 q 842 230 842 314 q 722 63 842 146 q 404 -19 603 -19 q 201 6 289 -19 q 75 71 114 32 q 63 137 63 101 q 68 206 63 172 q 119 333 83 288 l 132 333 q 131 315 131 325 q 212 131 131 213 q 433 50 293 50 q 578 90 528 50 q 629 180 629 129 q 594 267 629 231 q 482 339 560 303 l 256 444 q 117 565 160 488 q 82 700 82 626 q 183 928 82 850 q 408 992 268 992 q 643 978 500 992 l 751 978 l 721 751 l 707 751 q 647 875 707 828 q 486 922 588 922 q 324 865 372 922 q 297 797 297 836 q 327 731 297 757 q 421 676 357 704 l 681 556 q 842 314 842 482 z "},"Ş":{"ha":932,"x_min":21,"x_max":900,"o":"m 896 275 q 899 220 899 256 q 878 122 899 185 q 806 3 857 60 q 672 -94 754 -54 q 489 -142 589 -133 l 432 -208 q 465 -201 451 -201 q 494 -201 479 -201 q 536 -209 508 -201 q 581 -237 564 -217 q 597 -275 597 -258 q 553 -376 597 -339 q 414 -426 494 -426 q 335 -414 375 -426 l 336 -400 q 433 -372 386 -400 q 481 -287 481 -343 q 458 -249 481 -265 q 403 -233 435 -233 q 344 -242 372 -233 l 338 -228 l 403 -143 q 186 -81 278 -136 q 22 200 22 19 q 94 421 22 318 l 107 411 q 61 253 61 329 q 108 86 61 158 q 235 -26 156 14 q 397 -67 314 -67 q 536 -40 479 -67 q 619 31 593 -14 q 646 124 646 75 q 611 223 646 172 q 508 311 576 274 l 282 444 q 110 706 110 546 q 210 926 110 849 q 436 992 293 992 q 669 978 528 992 l 778 978 l 749 751 l 735 751 q 675 875 735 828 q 522 922 615 922 q 379 890 429 922 q 325 806 329 858 q 344 744 321 769 q 386 710 365 722 q 424 689 407 699 q 447 676 440 679 l 707 528 q 840 413 792 481 q 896 275 888 344 z "},"ş":{"ha":896,"x_min":61,"x_max":842,"o":"m 842 320 q 842 239 842 320 q 738 76 842 158 q 463 -18 635 -7 l 404 -85 q 438 -78 424 -78 q 466 -78 451 -78 q 508 -85 481 -78 q 553 -114 536 -93 q 569 -151 569 -135 q 525 -253 569 -215 q 386 -301 468 -301 q 307 -290 349 -301 l 308 -276 q 406 -248 360 -276 q 453 -164 453 -219 q 431 -125 453 -142 q 376 -110 407 -110 q 318 -118 344 -110 l 310 -104 l 376 -19 q 191 8 271 -17 q 75 71 111 33 q 63 137 63 101 q 68 206 63 172 q 119 333 83 288 l 132 333 q 131 315 131 325 q 212 131 131 213 q 433 50 293 50 q 578 90 528 50 q 629 180 629 129 q 594 267 629 231 q 482 339 560 303 l 256 444 q 117 565 160 488 q 82 700 82 626 q 183 928 82 850 q 408 992 268 992 q 643 978 500 992 l 751 978 l 721 751 l 707 751 q 647 875 707 828 q 495 922 588 922 q 352 890 403 922 q 297 806 301 858 q 381 694 292 740 q 421 676 396 686 l 681 556 q 842 320 842 482 z "},"Š":{"ha":932,"x_min":19,"x_max":899,"o":"m 481 1061 l 464 1061 l 229 1304 l 240 1315 l 474 1226 l 693 1315 l 703 1304 l 481 1061 m 899 233 q 814 14 899 113 q 592 -124 729 -85 q 424 -144 519 -144 q 243 -110 329 -144 q 33 114 82 -46 q 21 194 21 157 q 94 421 21 315 l 107 411 q 61 253 61 329 q 108 86 61 158 q 235 -26 156 14 q 397 -67 314 -67 q 536 -40 479 -67 q 619 31 593 -14 q 646 124 646 75 q 611 223 646 172 q 508 311 576 274 l 282 444 q 110 706 110 546 q 210 926 110 849 q 436 992 293 992 q 669 978 528 992 l 778 978 l 749 751 l 735 751 q 675 875 735 828 q 522 922 615 922 q 379 890 429 922 q 325 806 329 858 q 344 744 321 769 q 386 710 365 722 q 424 689 407 699 q 447 676 440 679 l 707 528 q 899 233 899 419 z "},"š":{"ha":896,"x_min":61,"x_max":842,"o":"m 454 1061 l 438 1061 l 203 1304 l 213 1315 l 446 1226 l 665 1315 l 675 1304 l 454 1061 m 842 314 q 842 230 842 314 q 722 63 842 146 q 404 -19 603 -19 q 201 6 289 -19 q 75 71 114 32 q 63 137 63 101 q 68 206 63 172 q 119 333 83 288 l 132 333 q 131 315 131 325 q 212 131 131 213 q 433 50 293 50 q 578 90 528 50 q 629 187 629 129 q 567 290 629 244 q 482 339 535 315 l 256 444 q 117 565 160 488 q 82 700 82 626 q 183 928 82 850 q 408 992 268 992 q 643 978 500 992 l 751 978 l 721 751 l 707 751 q 647 875 707 828 q 495 922 588 922 q 351 890 403 922 q 297 796 297 854 q 327 731 297 757 q 421 676 357 704 l 681 556 q 842 314 842 482 z "},"Ţ":{"ha":1042,"x_min":-92,"x_max":1029,"o":"m -6 617 q -90 778 -90 692 q -25 914 -90 858 q 156 974 44 974 l 865 974 q 970 984 925 975 q 1029 999 1015 993 l 1029 713 l 1015 714 l 1015 724 q 968 855 1015 807 q 836 904 921 903 l 700 904 l 700 100 q 727 39 701 64 q 789 14 753 14 l 807 14 l 807 0 l 585 0 l 526 -67 q 560 -60 546 -60 q 588 -60 574 -60 q 631 -67 603 -60 q 676 -96 658 -75 q 693 -133 693 -117 q 649 -235 693 -197 q 510 -285 590 -285 q 431 -272 471 -285 l 431 -258 q 528 -230 482 -258 q 575 -146 575 -201 q 553 -107 575 -124 q 499 -92 531 -92 q 440 -100 467 -92 l 433 -86 l 500 0 l 308 0 l 308 14 l 326 14 q 388 39 363 14 q 415 99 414 64 l 415 904 l 156 904 q 26 867 78 904 q -33 759 -33 824 q 10 624 -33 694 l -6 617 z "},"ţ":{"ha":969,"x_min":13,"x_max":957,"o":"m 628 904 l 628 100 q 655 39 629 64 q 717 14 681 14 l 735 14 l 735 0 l 457 0 l 400 -65 q 433 -58 419 -58 q 462 -58 447 -58 q 504 -66 476 -58 q 549 -94 532 -74 q 565 -132 565 -115 q 521 -233 565 -196 q 382 -283 463 -283 q 303 -271 343 -283 l 304 -257 q 401 -228 354 -257 q 449 -144 449 -200 q 426 -106 449 -122 q 372 -90 403 -90 q 313 -99 340 -90 l 306 -85 l 371 0 l 236 0 l 236 14 l 254 14 q 316 39 290 14 q 343 99 342 64 l 343 904 l 206 904 q 75 855 122 903 q 28 724 28 807 l 28 714 l 14 713 l 14 999 q 84 982 33 990 q 178 974 135 974 l 793 974 q 886 982 836 974 q 957 999 936 990 l 957 713 l 943 714 l 943 724 q 860 882 943 836 q 764 904 819 903 l 628 904 z "},"Ť":{"ha":1042,"x_min":-92,"x_max":1029,"o":"m 568 1061 l 551 1061 l 317 1304 l 326 1315 l 560 1226 l 779 1315 l 789 1304 l 568 1061 m -6 617 q -90 778 -90 692 q -25 914 -90 858 q 156 974 44 974 l 865 974 q 970 984 925 975 q 1029 999 1015 993 l 1029 713 l 1015 714 l 1015 724 q 932 882 1015 836 q 836 904 892 903 l 700 904 l 700 100 q 727 39 701 64 q 789 14 753 14 l 807 14 l 807 0 l 308 0 l 308 14 l 326 14 q 388 39 363 14 q 415 99 414 64 l 415 904 l 156 904 q 26 867 78 904 q -33 759 -33 824 q 10 624 -33 694 l -6 617 z "},"ť":{"ha":969,"x_min":14,"x_max":957,"o":"m 496 1061 l 479 1061 l 244 1304 l 254 1315 l 488 1226 l 707 1315 l 717 1304 l 496 1061 m 628 904 l 628 100 q 655 39 629 64 q 717 14 681 14 l 735 14 l 735 0 l 236 0 l 236 14 l 254 14 q 316 39 290 14 q 343 99 342 64 l 343 904 l 206 904 q 75 855 122 903 q 28 724 28 807 l 28 714 l 14 713 l 14 999 q 84 982 33 990 q 178 974 135 974 l 793 974 q 886 982 836 974 q 957 999 936 990 l 957 713 l 943 714 l 943 724 q 896 855 943 807 q 764 904 849 903 l 628 904 z "},"Ŧ":{"ha":1042,"x_min":-92,"x_max":1029,"o":"m -6 617 q -92 779 -92 692 q -56 883 -92 838 q 156 974 17 974 l 865 974 q 971 984 925 975 q 1029 999 1017 993 l 1029 713 l 1015 714 l 1015 724 q 932 882 1015 836 q 836 904 892 903 l 700 904 l 700 560 l 908 560 l 908 490 l 700 490 l 700 100 q 727 39 701 64 q 789 14 753 14 l 807 14 l 807 0 l 308 0 l 308 14 l 326 14 q 388 39 363 14 q 415 99 414 64 l 415 490 l 206 490 l 206 560 l 415 560 l 415 904 l 156 904 q 28 867 79 904 q -33 759 -33 824 q 10 624 -33 694 l -6 617 z "},"ŧ":{"ha":969,"x_min":13,"x_max":957,"o":"m 628 904 l 628 560 l 836 560 l 836 490 l 628 490 l 628 100 q 655 39 629 64 q 717 14 681 14 l 735 14 l 735 0 l 236 0 l 236 14 l 254 14 q 316 39 290 14 q 343 99 342 64 l 343 490 l 133 490 l 133 560 l 343 560 l 343 904 l 206 904 q 75 855 122 903 q 28 724 28 807 l 28 714 l 14 713 l 14 999 q 84 982 33 990 q 178 974 135 974 l 793 974 q 886 982 836 974 q 957 999 936 990 l 957 713 l 943 714 l 943 724 q 896 855 943 807 q 764 904 849 903 l 628 904 z "},"Ū":{"ha":1183,"x_min":42,"x_max":1331,"o":"m 1292 1282 q 1331 1279 1311 1282 l 1331 1265 q 1142 1147 1206 1250 q 1078 875 1078 1044 l 1078 357 q 960 77 1075 174 q 621 -19 846 -19 q 267 81 396 -19 q 138 347 138 181 q 138 356 138 351 l 138 890 q 116 939 138 919 q 64 958 94 958 l 42 958 l 42 972 l 518 972 l 518 958 l 496 958 q 432 925 453 958 q 422 893 424 910 l 422 361 q 495 134 422 217 q 689 51 568 51 q 691 51 690 51 q 693 51 692 51 q 883 128 808 51 q 957 343 957 206 l 957 875 q 1057 1171 957 1047 q 1167 1255 1104 1228 q 1292 1282 1231 1282 m 497 1104 l 497 1222 l 900 1222 l 900 1104 l 497 1104 z "},"ū":{"ha":1174,"x_min":40,"x_max":1147,"o":"m 474 1104 l 474 1222 l 876 1222 l 876 1104 l 474 1104 m 1146 958 l 1124 958 q 1073 940 1094 958 q 1050 893 1051 921 l 1050 357 q 941 81 1050 181 q 635 -19 832 -19 q 261 78 385 -19 q 138 356 138 175 l 138 889 q 116 939 138 919 q 64 958 94 958 l 42 958 l 42 972 l 518 972 l 518 958 l 496 958 q 444 940 465 958 q 422 892 424 921 l 422 361 q 489 133 422 215 q 675 51 556 51 q 862 128 794 51 q 929 343 929 206 l 929 892 q 907 940 928 921 q 856 958 886 958 l 833 958 l 833 972 l 1146 972 l 1146 958 z "},"Ů":{"ha":1183,"x_min":40,"x_max":1331,"o":"m 529 1184 q 529 1211 529 1184 q 576 1273 529 1238 q 694 1308 624 1308 q 810 1274 764 1308 q 857 1185 857 1239 q 810 1096 857 1132 q 692 1060 763 1060 q 576 1095 622 1060 q 529 1184 529 1131 m 1292 1282 q 1331 1279 1311 1282 l 1331 1265 q 1142 1147 1206 1250 q 1078 875 1078 1044 l 1078 357 q 960 77 1075 174 q 621 -19 846 -19 q 267 81 396 -19 q 138 347 138 181 q 138 356 138 351 l 138 890 q 116 939 138 919 q 64 958 94 958 l 42 958 l 42 972 l 518 972 l 518 958 l 496 958 q 444 939 464 958 q 422 893 424 919 l 422 361 q 495 134 422 217 q 689 51 568 51 q 691 51 690 51 q 693 51 692 51 q 883 128 808 51 q 957 343 957 206 l 957 875 q 1057 1171 957 1047 q 1167 1255 1104 1228 q 1292 1282 1231 1282 m 756 1226 q 751 1235 756 1226 q 729 1256 746 1244 q 688 1267 713 1267 q 642 1243 663 1267 q 622 1184 622 1219 q 642 1126 622 1149 q 693 1103 663 1103 q 744 1126 724 1103 q 765 1178 765 1149 q 756 1226 765 1207 z "},"ů":{"ha":1174,"x_min":40,"x_max":1147,"o":"m 506 1184 q 506 1211 506 1184 q 553 1273 506 1238 q 670 1308 600 1308 q 787 1274 740 1308 q 833 1185 833 1239 q 786 1096 833 1132 q 669 1060 739 1060 q 552 1095 599 1060 q 506 1184 506 1131 m 742 1184 q 742 1202 742 1184 q 721 1243 742 1219 q 669 1267 700 1267 q 619 1243 639 1267 q 599 1184 599 1219 q 619 1126 599 1149 q 669 1103 639 1103 q 721 1126 700 1103 q 742 1184 742 1149 m 1146 958 l 1124 958 q 1073 940 1094 958 q 1050 893 1051 921 l 1050 357 q 941 81 1050 181 q 635 -19 832 -19 q 261 78 385 -19 q 138 356 138 175 l 138 889 q 116 939 138 919 q 64 958 94 958 l 42 958 l 42 972 l 518 972 l 518 958 l 496 958 q 444 940 465 958 q 422 892 424 921 l 422 361 q 489 133 422 215 q 675 51 556 51 q 862 128 794 51 q 929 343 929 206 l 929 892 q 907 940 928 921 q 856 958 886 958 l 833 958 l 833 972 l 1146 972 l 1146 958 z "},"Ű":{"ha":1183,"x_min":40,"x_max":1331,"o":"m 410 1061 l 400 1071 q 491 1205 426 1132 q 615 1329 556 1278 q 733 1190 704 1292 q 574 1107 664 1144 q 410 1061 483 1069 m 701 1061 l 692 1071 q 783 1205 718 1132 q 907 1329 847 1278 q 1025 1190 996 1292 q 865 1107 956 1144 q 701 1061 775 1069 m 1292 1282 q 1331 1279 1311 1282 l 1331 1265 q 1142 1147 1206 1250 q 1078 875 1078 1044 l 1078 357 q 960 77 1075 174 q 621 -19 846 -19 q 267 81 396 -19 q 138 347 138 181 q 138 356 138 351 l 138 890 q 116 939 138 919 q 64 958 94 958 l 42 958 l 42 972 l 518 972 l 518 958 l 496 958 q 444 939 464 958 q 422 893 424 919 l 422 361 q 495 135 422 217 q 689 53 568 53 q 691 53 690 53 q 693 53 692 53 q 883 129 808 53 q 957 343 957 206 l 957 875 q 1057 1171 957 1047 q 1167 1255 1104 1228 q 1292 1282 1231 1282 z "},"ű":{"ha":1174,"x_min":42,"x_max":1147,"o":"m 499 1061 l 489 1071 q 578 1205 514 1132 q 703 1329 643 1278 q 821 1190 792 1292 q 636 1097 725 1126 q 499 1061 547 1067 m 790 1061 l 781 1071 q 870 1205 806 1132 q 994 1329 935 1278 q 1113 1190 1083 1292 q 953 1107 1043 1144 q 790 1061 863 1069 m 1146 958 l 1124 958 q 1073 940 1094 958 q 1050 893 1051 921 l 1050 357 q 941 81 1050 181 q 635 -19 832 -19 q 261 78 385 -19 q 138 356 138 175 l 138 889 q 116 939 138 919 q 64 958 94 958 l 42 958 l 42 972 l 518 972 l 518 958 l 496 958 q 444 940 465 958 q 422 892 424 921 l 422 361 q 489 133 422 215 q 675 51 556 51 q 862 128 794 51 q 929 343 929 206 l 929 892 q 907 940 928 921 q 856 958 886 958 l 833 958 l 833 972 l 1146 972 l 1146 958 z "},"Ų":{"ha":1183,"x_min":42,"x_max":1331,"o":"m 1292 1282 q 1331 1279 1311 1282 l 1331 1265 q 1142 1147 1206 1250 q 1078 875 1078 1044 l 1078 357 q 977 92 1075 188 q 692 -17 879 -3 l 693 -18 q 603 -114 603 -37 q 658 -208 603 -187 q 698 -214 674 -214 q 760 -185 722 -214 l 768 -193 q 682 -307 761 -282 q 623 -314 658 -314 q 543 -283 588 -314 q 482 -168 482 -240 q 518 -65 482 -100 q 600 -19 554 -31 q 259 87 381 -12 q 138 347 138 186 q 138 356 138 351 l 138 890 q 116 939 138 919 q 64 958 94 958 l 42 958 l 42 972 l 518 972 l 518 958 l 496 958 q 432 925 453 958 q 422 893 424 910 l 422 361 q 495 134 422 217 q 689 51 568 51 q 691 51 690 51 q 693 51 692 51 q 883 128 808 51 q 957 343 957 206 l 957 875 q 1057 1171 957 1047 q 1167 1255 1104 1228 q 1292 1282 1231 1282 z "},"ų":{"ha":1174,"x_min":40,"x_max":1147,"o":"m 1146 958 l 1124 958 q 1073 940 1094 958 q 1050 893 1051 921 l 1050 357 q 879 36 1050 132 q 676 -18 796 -11 q 589 -114 589 -39 q 644 -208 589 -187 q 684 -214 660 -214 q 746 -185 708 -214 l 754 -193 q 668 -307 747 -282 q 609 -314 644 -314 q 529 -283 574 -314 q 468 -168 468 -240 q 505 -65 468 -100 q 589 -18 542 -29 q 250 87 363 -10 q 138 356 138 183 l 138 889 q 116 939 138 919 q 64 958 94 958 l 42 958 l 42 972 l 518 972 l 518 958 l 496 958 q 444 940 465 958 q 422 892 424 921 l 422 361 q 489 133 422 215 q 675 51 556 51 q 862 128 794 51 q 929 343 929 206 l 929 892 q 907 940 928 921 q 856 958 886 958 l 833 958 l 833 972 l 1146 972 l 1146 958 z "},"Ŵ":{"ha":1339,"x_min":-71,"x_max":1665,"o":"m 1489 1304 q 1589 1317 1549 1317 q 1664 1313 1629 1317 l 1664 1299 q 1286 964 1382 1278 l 1028 124 q 1008 -31 1008 56 l 994 -31 l 675 572 l 417 44 q 338 -86 376 -40 q 272 -160 300 -132 q 214 -207 243 -187 q 72 -257 135 -257 q 1 -250 39 -257 l 1 -236 q 165 -146 94 -219 q 271 -10 239 -68 q 343 132 315 71 l 61 879 q 9 939 42 919 q -58 958 -24 958 l -69 958 l -69 972 l 429 972 l 429 958 l 417 958 q 361 919 375 958 q 360 900 360 911 q 365 872 360 889 l 517 494 l 757 994 l 769 993 l 1044 485 l 1178 964 q 1285 1174 1211 1085 q 1489 1304 1372 1279 m 754 1294 l 771 1294 l 1018 1050 l 1008 1039 l 761 1129 l 529 1039 l 519 1050 l 754 1294 z "},"ŵ":{"ha":1339,"x_min":-71,"x_max":1396,"o":"m 744 1294 l 761 1294 l 1008 1050 l 999 1039 l 751 1129 l 519 1039 l 510 1050 l 744 1294 m 1394 958 l 1383 958 q 1296 925 1335 958 q 1264 879 1274 906 l 1028 124 q 1021 94 1025 113 l 1011 51 q 1007 1 1007 21 q 1008 -31 1007 -18 l 994 -31 l 674 574 l 454 124 q 417 -31 418 46 l 404 -31 l 61 879 q 9 939 42 919 q -58 958 -24 958 l -69 958 l -69 972 l 429 972 l 429 958 l 417 958 q 361 919 375 958 q 360 900 360 911 q 365 872 360 889 l 517 494 l 757 994 l 769 993 l 1046 482 l 1157 872 q 1160 899 1160 888 q 1156 925 1160 911 q 1138 949 1151 939 q 1104 958 1124 958 l 1092 958 l 1092 972 l 1394 972 l 1394 958 z "},"Ŷ":{"ha":971,"x_min":-118,"x_max":1028,"o":"m 497 1294 l 514 1294 l 761 1050 l 751 1039 l 504 1129 l 272 1039 l 263 1050 l 497 1294 m -40 1057 q 319 963 163 1057 q 581 640 504 850 q 757 931 636 804 q 881 1023 815 990 q 1008 1056 947 1056 q 1028 1054 1018 1056 l 1028 1040 q 894 973 964 1038 q 769 816 824 908 q 676 624 715 724 q 626 447 636 524 l 626 101 q 669 26 626 51 q 715 14 690 14 l 732 14 l 733 0 l 235 0 l 235 14 l 253 14 q 315 40 289 14 q 342 101 340 65 l 342 447 q 236 738 311 593 q 144 881 194 817 q 25 990 94 944 q -118 1040 -44 1035 l -118 1054 q -40 1057 -78 1057 z "},"ŷ":{"ha":1013,"x_min":-64,"x_max":1076,"o":"m 594 1294 l 611 1294 l 858 1050 l 849 1039 l 601 1129 l 369 1039 l 360 1050 l 594 1294 m 1076 958 l 1057 958 q 977 935 1015 958 q 917 876 939 911 l 644 447 l 644 101 q 670 40 644 65 q 733 14 696 14 l 750 14 l 750 0 l 253 0 l 253 14 l 271 14 q 333 39 307 14 q 360 100 358 64 l 360 447 l 94 879 q -1 951 60 933 q -43 958 -22 958 l -62 958 l -62 972 l 474 972 l 474 958 l 457 958 q 410 931 426 958 q 400 901 400 915 q 408 872 400 886 l 599 529 l 796 872 q 804 900 804 886 q 794 929 804 914 q 747 958 776 958 l 731 958 l 731 972 l 1076 972 l 1076 958 z "},"Ÿ":{"ha":971,"x_min":-118,"x_max":1028,"o":"m 392 1079 q 377 1064 392 1079 q 319 1049 363 1049 q 247 1079 276 1049 q 217 1152 217 1110 q 247 1224 217 1194 q 319 1254 276 1254 q 392 1224 363 1254 q 422 1152 422 1194 q 392 1079 422 1110 m 756 1079 q 741 1064 756 1079 q 684 1049 726 1049 q 612 1079 642 1049 q 582 1152 582 1110 q 612 1224 582 1194 q 684 1254 642 1254 q 756 1224 726 1254 q 786 1152 786 1194 q 756 1079 786 1110 m -40 1057 q 319 963 163 1057 q 581 640 504 850 q 757 931 636 804 q 881 1023 815 990 q 1008 1056 947 1056 q 1028 1054 1018 1056 l 1028 1040 q 894 973 964 1038 q 769 816 824 908 q 676 624 715 724 q 626 447 636 524 l 626 101 q 669 26 626 51 q 715 14 690 14 l 732 14 l 733 0 l 235 0 l 235 14 l 253 14 q 315 40 289 14 q 342 101 340 65 l 342 447 q 236 738 311 593 q 144 881 194 817 q 25 990 94 944 q -118 1040 -44 1035 l -118 1054 q -40 1057 -78 1057 z "},"Ź":{"ha":915,"x_min":49,"x_max":1521,"o":"m 442 1057 l 432 1067 q 523 1201 458 1128 q 647 1325 588 1274 q 765 1186 736 1288 q 606 1103 696 1140 q 442 1057 515 1065 m 638 -55 q 718 -76 638 -55 q 905 -124 799 -97 q 1126 -174 1011 -151 q 1338 -196 1242 -196 q 1510 -167 1433 -196 l 1521 -176 q 1363 -306 1450 -262 q 1181 -351 1271 -351 q 994 -330 1092 -351 q 803 -267 897 -308 q 604 -181 708 -226 q 410 -94 500 -136 q 49 0 200 0 l 49 13 l 510 904 l 260 904 q 129 855 176 903 q 82 724 82 807 l 82 713 l 68 713 l 68 999 q 141 982 89 990 q 215 974 193 974 q 236 974 236 974 l 715 974 q 814 981 774 974 q 863 992 854 988 l 863 979 l 365 13 q 638 -55 478 -12 z "},"ź":{"ha":926,"x_min":49,"x_max":894,"o":"m 442 1057 l 432 1067 q 523 1201 458 1128 q 647 1325 588 1274 q 765 1186 736 1288 q 606 1103 696 1140 q 442 1057 515 1065 m 68 999 q 141 982 89 990 q 215 974 193 974 q 236 974 236 974 l 715 974 q 814 981 774 974 q 863 992 854 988 l 863 979 l 396 69 l 592 69 q 771 137 693 69 q 881 322 849 204 l 894 322 l 842 0 l 49 0 l 49 13 l 510 904 l 260 904 q 129 855 176 903 q 82 724 82 807 l 82 713 l 68 713 l 68 999 z "},"Ż":{"ha":915,"x_min":49,"x_max":1521,"o":"m 538 1091 q 523 1076 538 1091 q 465 1061 508 1061 q 392 1091 422 1061 q 363 1163 363 1121 q 392 1235 363 1206 q 465 1265 422 1265 q 538 1235 508 1265 q 568 1163 568 1206 q 538 1091 568 1121 m 638 -55 q 718 -76 638 -55 q 905 -124 799 -97 q 1126 -174 1011 -151 q 1338 -196 1242 -196 q 1510 -167 1433 -196 l 1521 -176 q 1363 -306 1450 -262 q 1181 -351 1271 -351 q 994 -330 1092 -351 q 803 -267 897 -308 q 604 -181 708 -226 q 410 -94 500 -136 q 49 0 200 0 l 49 13 l 510 904 l 260 904 q 103 819 147 903 q 82 724 82 779 l 82 713 l 68 713 l 68 999 q 141 982 89 990 q 215 974 193 974 q 236 974 236 974 l 715 974 q 803 979 757 974 q 863 992 850 985 l 863 979 l 365 13 q 638 -55 478 -12 z "},"ż":{"ha":926,"x_min":49,"x_max":894,"o":"m 538 1091 q 523 1076 538 1091 q 465 1061 508 1061 q 392 1091 422 1061 q 363 1163 363 1121 q 392 1235 363 1206 q 465 1265 422 1265 q 538 1235 508 1265 q 568 1163 568 1206 q 538 1091 568 1121 m 68 999 q 141 982 89 990 q 215 974 193 974 q 236 974 236 974 l 715 974 q 814 981 774 974 q 863 992 854 988 l 863 979 l 396 69 l 592 69 q 771 137 693 69 q 881 322 849 204 l 894 322 l 842 0 l 49 0 l 49 13 l 510 904 l 260 904 q 129 855 176 903 q 82 724 82 807 l 82 713 l 68 713 l 68 999 z "},"Ž":{"ha":915,"x_min":49,"x_max":1521,"o":"m 475 1061 l 458 1061 l 224 1306 l 233 1317 l 467 1226 l 686 1315 l 696 1304 l 475 1061 m 638 -55 q 718 -76 638 -55 q 905 -124 799 -97 q 1126 -174 1011 -151 q 1338 -196 1242 -196 q 1510 -167 1433 -196 l 1521 -176 q 1363 -306 1450 -262 q 1181 -351 1271 -351 q 994 -330 1092 -351 q 803 -267 897 -308 q 604 -181 708 -226 q 410 -94 500 -136 q 49 0 200 0 l 49 13 l 510 904 l 260 904 q 103 819 147 903 q 82 724 82 779 l 82 713 l 68 713 l 68 999 q 141 982 89 990 q 215 974 193 974 q 236 974 236 974 l 715 974 q 803 979 757 974 q 863 992 850 985 l 863 979 l 365 13 q 638 -55 478 -12 z "},"ž":{"ha":926,"x_min":49,"x_max":894,"o":"m 475 1061 l 458 1061 l 224 1304 l 233 1315 l 467 1226 l 686 1315 l 696 1304 l 475 1061 m 68 999 q 141 982 89 990 q 215 974 193 974 q 236 974 236 974 l 715 974 q 814 981 774 974 q 863 992 854 988 l 863 979 l 396 69 l 592 69 q 771 137 693 69 q 881 322 849 204 l 894 322 l 842 0 l 49 0 l 49 13 l 510 904 l 260 904 q 129 855 176 903 q 82 724 82 807 l 82 713 l 68 713 l 68 999 z "},"ƒ":{"ha":803,"x_min":28,"x_max":761,"o":"m 761 589 l 750 589 l 750 597 q 706 723 750 678 q 581 769 661 768 l 451 769 l 451 443 l 547 443 q 649 485 610 444 q 689 586 689 525 l 689 589 l 700 590 l 700 231 l 689 232 l 689 236 q 621 360 689 319 q 547 378 588 378 l 451 378 l 451 111 q 426 -37 451 28 q 361 -140 401 -101 q 263 -204 321 -179 q 28 -247 164 -247 l 28 -233 q 139 -117 110 -187 q 168 69 168 -46 l 168 747 q 147 801 168 779 q 96 822 125 822 l 82 822 l 82 833 l 622 833 q 700 840 657 833 q 761 854 743 847 l 761 589 z "},"Ș":{"ha":932,"x_min":19,"x_max":900,"o":"m 899 236 q 872 109 899 176 q 788 -15 846 42 q 638 -108 729 -72 q 438 -144 546 -144 q 243 -110 329 -144 q 33 114 82 -46 q 21 194 21 157 q 94 421 21 315 l 107 411 q 61 253 61 329 q 108 86 61 158 q 235 -26 156 14 q 397 -67 314 -67 q 536 -40 479 -67 q 619 31 593 -14 q 646 124 646 75 q 611 223 646 172 q 508 311 576 274 l 282 444 q 110 706 110 546 q 210 926 110 849 q 436 992 293 992 q 669 978 528 992 l 778 978 l 749 751 l 735 751 q 675 875 735 828 q 522 922 615 922 q 379 890 429 922 q 325 806 329 858 q 344 744 321 769 q 386 710 365 722 q 424 689 407 699 q 447 676 440 679 l 707 528 q 843 407 794 479 q 899 236 899 325 m 349 -503 q 393 -436 393 -483 q 369 -379 393 -407 q 346 -315 346 -351 q 379 -242 346 -265 q 422 -225 403 -225 q 519 -282 494 -225 q 533 -335 533 -312 q 528 -387 533 -358 q 499 -451 522 -415 q 441 -502 475 -486 q 386 -518 407 -518 q 351 -515 365 -518 l 349 -503 z "},"ș":{"ha":896,"x_min":61,"x_max":842,"o":"m 842 314 q 842 230 842 314 q 722 63 842 146 q 404 -19 603 -19 q 201 6 289 -19 q 75 71 114 32 q 63 137 63 101 q 68 206 63 172 q 119 333 83 288 l 132 333 q 131 315 131 325 q 212 131 131 213 q 433 50 293 50 q 578 90 528 50 q 629 180 629 129 q 594 267 629 231 q 482 339 560 303 l 256 444 q 117 565 160 488 q 82 700 82 626 q 183 928 82 850 q 408 992 268 992 q 643 978 500 992 l 751 978 l 721 751 l 707 751 q 647 875 707 828 q 495 922 588 922 q 352 890 403 922 q 297 806 301 858 q 381 694 292 740 q 421 676 396 686 l 681 556 q 842 314 842 482 m 350 -379 q 394 -322 394 -360 q 369 -255 394 -283 q 344 -190 344 -226 q 378 -118 344 -142 q 419 -101 400 -101 q 518 -158 492 -101 q 533 -212 533 -190 q 528 -263 533 -235 q 501 -327 524 -292 q 444 -378 478 -362 q 389 -394 410 -394 q 354 -392 368 -394 l 350 -379 z "},"Ț":{"ha":1042,"x_min":-92,"x_max":1029,"o":"m -6 617 q -90 778 -90 692 q -25 914 -90 858 q 156 974 44 974 l 865 974 q 958 982 908 974 q 1029 999 1008 990 l 1029 713 l 1015 714 l 1015 724 q 932 882 1015 836 q 836 904 892 903 l 700 904 l 700 100 q 727 39 701 64 q 789 14 753 14 l 807 14 l 807 0 l 308 0 l 308 14 l 326 14 q 388 39 363 14 q 415 99 414 64 l 415 904 l 156 904 q 26 867 78 904 q -33 759 -33 824 q 10 624 -33 694 l -6 617 m 474 -367 q 517 -309 517 -347 q 492 -242 517 -271 q 468 -178 468 -214 q 500 -106 468 -129 q 543 -89 522 -89 q 640 -146 614 -89 q 656 -200 656 -178 q 651 -251 656 -222 q 623 -315 646 -279 q 566 -366 600 -350 q 511 -382 532 -382 q 476 -379 490 -382 l 474 -367 z "},"ț":{"ha":969,"x_min":13,"x_max":957,"o":"m 628 904 l 628 100 q 655 39 629 64 q 717 14 681 14 l 735 14 l 735 0 l 236 0 l 236 14 l 254 14 q 316 39 290 14 q 343 99 342 64 l 343 904 l 206 904 q 75 855 122 903 q 28 724 28 807 l 28 714 l 14 713 l 14 999 q 84 982 33 990 q 178 974 135 974 l 793 974 q 886 982 836 974 q 957 999 936 990 l 957 713 l 943 714 l 943 724 q 860 882 943 836 q 764 904 819 903 l 628 904 m 401 -367 q 444 -309 444 -347 q 419 -242 444 -271 q 394 -178 394 -214 q 428 -106 394 -129 q 469 -89 450 -89 q 568 -146 542 -89 q 583 -200 583 -178 q 578 -251 583 -222 q 551 -315 574 -279 q 494 -366 528 -350 q 439 -382 460 -382 q 404 -379 418 -382 l 401 -367 z "},"ˆ":{"ha":833,"x_min":140,"x_max":640,"o":"m 375 1172 l 392 1172 l 640 929 l 629 918 l 383 1007 l 150 918 l 140 929 l 375 1172 z "},"ˇ":{"ha":833,"x_min":153,"x_max":628,"o":"m 406 932 l 389 932 l 154 1175 l 164 1186 l 397 1097 l 617 1186 l 626 1175 l 406 932 z "},"˘":{"ha":833,"x_min":107,"x_max":506,"o":"m 504 1171 q 458 1056 504 1107 q 305 986 399 986 q 153 1056 211 986 q 107 1171 107 1108 q 113 1214 107 1192 l 129 1214 q 195 1151 146 1176 q 295 1125 244 1125 q 382 1136 346 1125 q 482 1214 458 1161 l 500 1214 q 504 1171 504 1192 z "},"˙":{"ha":833,"x_min":306,"x_max":511,"o":"m 481 954 q 465 939 481 954 q 408 924 450 924 q 335 954 365 924 q 306 1027 306 985 q 335 1099 306 1069 q 408 1129 365 1129 q 481 1099 450 1129 q 511 1027 511 1069 q 481 954 511 985 z "},"˚":{"ha":833,"x_min":253,"x_max":581,"o":"m 253 1094 q 253 1120 253 1094 q 300 1183 253 1147 q 417 1218 347 1218 q 534 1183 488 1218 q 581 1095 581 1149 q 534 1006 581 1042 q 417 969 488 969 q 299 1005 346 969 q 253 1094 253 1040 m 489 1094 q 489 1111 489 1094 q 468 1153 489 1129 q 417 1176 447 1176 q 366 1153 386 1176 q 346 1094 346 1129 q 366 1035 346 1058 q 417 1013 386 1013 q 468 1035 447 1013 q 489 1094 489 1058 z "},"˛":{"ha":833,"x_min":313,"x_max":600,"o":"m 599 -157 q 454 -278 590 -278 q 375 -247 419 -278 q 314 -132 314 -204 q 351 -28 314 -64 q 423 15 389 7 q 478 24 457 24 q 511 22 499 24 l 525 18 q 435 -78 435 -1 q 490 -172 435 -151 q 529 -178 504 -178 q 590 -149 554 -178 l 599 -157 z "},"˜":{"ha":833,"x_min":126,"x_max":674,"o":"m 647 1110 l 664 1110 q 672 1058 672 1085 q 660 1004 672 1032 q 575 910 631 936 q 499 893 542 893 q 388 928 456 893 q 294 966 318 963 q 249 969 269 969 q 194 947 228 969 q 150 897 161 925 l 133 897 q 128 938 128 917 q 190 1081 128 1021 q 285 1122 232 1122 q 413 1085 338 1122 q 550 1047 488 1047 q 604 1067 571 1047 q 647 1110 638 1088 z "},"˝":{"ha":833,"x_min":185,"x_max":811,"o":"m 196 1032 l 186 1042 q 276 1176 213 1103 q 400 1300 340 1249 q 519 1161 489 1263 q 359 1078 450 1115 q 196 1032 268 1040 m 488 1032 l 478 1042 q 568 1176 504 1103 q 692 1300 632 1249 q 811 1161 781 1263 q 625 1067 714 1097 q 488 1032 536 1038 z "},"̦":{"ha":0,"x_min":40,"x_max":231,"o":"m 47 -278 q 92 -220 92 -258 q 67 -153 92 -182 q 42 -89 42 -125 q 74 -17 42 -40 q 117 0 96 0 q 214 -57 189 0 q 231 -111 231 -89 q 226 -162 231 -133 q 198 -226 221 -190 q 141 -277 175 -261 q 86 -293 107 -293 q 51 -290 65 -293 l 47 -278 z "},"Δ":{"ha":906,"x_min":7,"x_max":899,"o":"m 899 0 l 7 0 l 7 14 l 446 992 l 460 992 l 899 14 l 899 0 m 692 69 l 403 739 l 110 69 l 692 69 z "},"Ω":{"ha":1221,"x_min":26,"x_max":1194,"o":"m 893 596 q 813 829 893 736 q 612 922 733 922 q 409 827 490 922 q 328 592 328 732 q 393 365 328 451 q 576 243 458 279 l 549 0 l 94 0 l 28 361 l 42 361 q 112 267 79 292 q 204 243 144 243 l 465 243 q 253 285 350 243 q 96 408 156 326 q 36 599 36 489 q 111 801 36 710 q 317 942 186 892 q 611 992 449 992 q 905 940 774 992 q 1110 798 1036 889 q 1185 597 1185 707 q 1126 406 1185 488 q 969 284 1067 325 q 753 243 872 243 l 1017 243 q 1110 267 1078 243 q 1181 361 1142 292 l 1194 361 l 1128 0 l 669 0 l 642 243 q 893 596 893 326 z "},"μ":{"ha":1344,"x_min":-36,"x_max":1381,"o":"m 1358 14 l 1381 14 l 1381 0 l 888 0 l 888 13 l 910 13 q 949 31 932 13 q 964 72 967 50 l 911 478 l 675 128 q 633 47 651 94 q 617 -33 615 0 l 604 -33 l 243 465 l 194 72 q 209 31 192 50 q 249 13 226 13 l 271 13 l 271 0 l -35 0 l -35 14 l -12 14 q 55 38 26 14 q 89 101 83 61 l 211 992 l 224 992 l 690 354 l 1118 992 l 1131 992 l 1257 101 q 1292 38 1264 61 q 1358 14 1319 14 z "},"π":{"ha":1088,"x_min":33,"x_max":1054,"o":"m 601 14 q 656 36 633 14 q 679 89 678 58 l 679 689 q 642 754 678 732 q 604 764 624 764 l 485 764 q 433 742 454 764 q 410 690 411 721 l 410 88 q 433 35 411 57 q 488 14 456 14 l 501 14 l 503 0 l 35 0 l 35 14 l 50 14 q 104 36 82 14 q 126 89 126 58 l 126 744 q 88 810 126 788 q 50 819 71 819 l 35 819 l 35 833 l 1054 833 l 1054 819 l 1039 819 q 986 798 1008 819 q 963 746 964 776 l 963 88 q 1001 24 964 44 q 1039 14 1018 14 l 1054 14 l 1054 0 l 586 0 l 588 14 l 601 14 z "},"Ẁ":{"ha":1339,"x_min":-71,"x_max":1665,"o":"m 1489 1304 q 1589 1317 1549 1317 q 1664 1313 1629 1317 l 1664 1299 q 1286 964 1382 1278 l 1028 124 q 1008 -31 1008 56 l 994 -31 l 675 572 l 417 44 q 338 -86 376 -40 q 272 -160 300 -132 q 214 -207 243 -187 q 72 -257 135 -257 q 1 -250 39 -257 l 1 -236 q 165 -146 94 -219 q 271 -10 239 -68 q 343 132 315 71 l 61 879 q 9 939 42 919 q -58 958 -24 958 l -69 958 l -69 972 l 429 972 l 429 958 l 417 958 q 361 919 375 958 q 360 900 360 911 q 365 872 360 889 l 517 494 l 757 994 l 769 993 l 1044 485 l 1178 964 q 1285 1174 1211 1085 q 1489 1304 1372 1279 m 801 1071 l 792 1061 q 568 1133 692 1074 q 468 1190 514 1160 q 586 1329 497 1292 q 711 1205 647 1278 q 801 1071 775 1132 z "},"ẁ":{"ha":1339,"x_min":-69,"x_max":1396,"o":"m 792 1071 l 782 1061 q 618 1107 708 1069 q 458 1190 528 1144 q 576 1329 488 1292 q 701 1205 638 1278 q 792 1071 765 1132 m 1394 958 l 1383 958 q 1314 938 1349 958 q 1264 879 1279 918 l 1028 124 q 1021 94 1025 113 l 1011 51 q 1007 1 1007 21 q 1008 -31 1007 -18 l 994 -31 l 674 574 l 454 124 q 417 -31 418 46 l 404 -31 l 61 879 q 9 939 42 919 q -58 958 -24 958 l -69 958 l -69 972 l 429 972 l 429 958 l 417 958 q 361 919 375 958 q 360 900 360 911 q 365 872 360 889 l 517 494 l 757 994 l 769 993 l 1046 482 l 1157 872 q 1160 899 1160 888 q 1156 925 1160 911 q 1138 949 1153 939 q 1104 958 1124 958 l 1092 958 l 1092 972 l 1394 972 l 1394 958 z "},"Ẃ":{"ha":1339,"x_min":-71,"x_max":1665,"o":"m 1489 1304 q 1589 1317 1549 1317 q 1664 1313 1629 1317 l 1664 1299 q 1286 964 1382 1278 l 1028 124 q 1008 -31 1008 56 l 994 -31 l 675 572 l 417 44 q 338 -86 376 -40 q 272 -160 300 -132 q 214 -207 243 -187 q 72 -257 135 -257 q 1 -250 39 -257 l 1 -236 q 165 -146 94 -219 q 271 -10 239 -68 q 343 132 315 71 l 61 879 q 9 939 42 919 q -58 958 -24 958 l -69 958 l -69 972 l 429 972 l 429 958 l 417 958 q 361 919 375 958 q 360 900 360 911 q 365 872 360 889 l 517 494 l 757 994 l 769 993 l 1044 485 l 1178 964 q 1285 1174 1211 1085 q 1489 1304 1372 1279 m 740 1057 l 731 1067 q 822 1201 757 1128 q 946 1325 886 1274 q 1064 1186 1035 1288 q 879 1092 968 1122 q 740 1057 790 1063 z "},"ẃ":{"ha":1339,"x_min":-69,"x_max":1396,"o":"m 731 1057 l 721 1067 q 812 1201 747 1128 q 936 1325 876 1274 q 1054 1186 1025 1288 q 894 1103 985 1140 q 731 1057 804 1065 m 1394 958 l 1383 958 q 1296 925 1335 958 q 1264 879 1274 906 l 1028 124 q 1021 94 1025 113 l 1011 51 q 1007 1 1007 21 q 1008 -31 1007 -18 l 994 -31 l 674 574 l 454 124 q 417 -31 418 46 l 404 -31 l 61 879 q 9 939 42 919 q -58 958 -24 958 l -69 958 l -69 972 l 429 972 l 429 958 l 417 958 q 361 919 375 958 q 360 900 360 911 q 365 872 360 889 l 517 494 l 757 994 l 769 993 l 1046 482 l 1157 872 q 1161 904 1161 888 q 1148 940 1161 921 q 1104 958 1135 958 l 1092 958 l 1092 972 l 1394 972 l 1394 958 z "},"Ẅ":{"ha":1339,"x_min":-71,"x_max":1665,"o":"m 1489 1304 q 1589 1317 1549 1317 q 1664 1313 1629 1317 l 1664 1299 q 1286 964 1382 1278 l 1028 124 q 1008 -31 1008 56 l 994 -31 l 675 572 l 417 44 q 338 -86 376 -40 q 272 -160 300 -132 q 214 -207 243 -187 q 72 -257 135 -257 q 1 -250 39 -257 l 1 -236 q 165 -146 94 -219 q 271 -10 239 -68 q 343 132 315 71 l 61 879 q 9 939 42 919 q -58 958 -24 958 l -69 958 l -69 972 l 429 972 l 429 958 l 417 958 q 361 919 375 958 q 360 900 360 911 q 365 872 360 889 l 517 494 l 757 994 l 769 993 l 1044 485 l 1178 964 q 1285 1174 1211 1085 q 1489 1304 1372 1279 m 649 1079 q 634 1064 649 1079 q 577 1049 619 1049 q 505 1079 535 1049 q 475 1152 475 1110 q 505 1224 475 1194 q 577 1254 535 1254 q 649 1224 619 1254 q 679 1152 679 1194 q 649 1079 679 1110 m 1015 1079 q 1000 1064 1015 1079 q 942 1049 985 1049 q 869 1079 900 1049 q 839 1152 839 1110 q 869 1224 839 1194 q 942 1254 900 1254 q 1015 1224 985 1254 q 1044 1152 1044 1194 q 1015 1079 1044 1110 z "},"ẅ":{"ha":1339,"x_min":-69,"x_max":1396,"o":"m 640 1079 q 625 1064 640 1079 q 567 1049 610 1049 q 495 1079 525 1049 q 465 1152 465 1110 q 495 1224 465 1194 q 567 1254 525 1254 q 640 1224 610 1254 q 669 1152 669 1194 q 640 1079 669 1110 m 1005 1079 q 990 1064 1005 1079 q 933 1049 975 1049 q 860 1079 890 1049 q 829 1152 829 1110 q 860 1224 829 1194 q 933 1254 890 1254 q 1005 1224 975 1254 q 1035 1152 1035 1194 q 1005 1079 1035 1110 m 1394 958 l 1383 958 q 1296 925 1335 958 q 1264 879 1274 906 l 1028 124 q 1021 94 1025 113 l 1011 51 q 1007 1 1007 21 q 1008 -31 1007 -18 l 994 -31 l 674 574 l 454 124 q 417 -31 418 46 l 404 -31 l 61 879 q 9 939 42 919 q -58 958 -24 958 l -69 958 l -69 972 l 429 972 l 429 958 l 417 958 q 361 919 375 958 q 360 900 360 911 q 365 872 360 889 l 517 494 l 757 994 l 769 993 l 1046 482 l 1157 872 q 1161 904 1161 888 q 1148 940 1161 921 q 1104 958 1135 958 l 1092 958 l 1092 972 l 1394 972 l 1394 958 z "},"Ỳ":{"ha":971,"x_min":-118,"x_max":1028,"o":"m 544 1071 l 535 1061 q 371 1107 461 1069 q 211 1190 281 1144 q 329 1329 240 1292 q 471 1184 415 1256 q 544 1071 526 1113 m -40 1057 q 319 963 163 1057 q 581 640 504 850 q 757 931 636 804 q 881 1023 815 990 q 1008 1056 947 1056 q 1028 1054 1018 1056 l 1028 1040 q 894 973 964 1038 q 769 816 824 908 q 676 624 715 724 q 626 447 636 524 l 626 101 q 652 40 626 67 q 715 14 678 14 l 732 14 l 733 0 l 235 0 l 235 14 l 253 14 q 315 40 289 14 q 342 101 340 65 l 342 447 q 236 738 311 593 q 144 881 194 817 q 25 990 94 944 q -118 1040 -44 1035 l -118 1054 q -40 1057 -78 1057 z "},"ỳ":{"ha":1013,"x_min":-64,"x_max":1076,"o":"m 642 1071 l 632 1061 q 408 1133 532 1074 q 308 1190 353 1160 q 426 1329 338 1292 q 568 1184 513 1256 q 642 1071 624 1113 m 1076 958 l 1057 958 q 977 935 1015 958 q 917 876 939 911 l 644 447 l 644 101 q 670 40 644 65 q 733 14 696 14 l 750 14 l 750 0 l 253 0 l 253 14 l 271 14 q 333 39 307 14 q 360 100 358 64 l 360 447 l 94 879 q -1 951 60 933 q -43 958 -22 958 l -62 958 l -62 972 l 474 972 l 474 958 l 457 958 q 410 931 426 958 q 400 901 400 915 q 408 872 400 886 l 599 529 l 796 872 q 804 900 804 886 q 794 929 804 914 q 747 958 776 958 l 731 958 l 731 972 l 1076 972 l 1076 958 z "},"–":{"ha":694,"x_min":0,"x_max":694,"o":"m 0 363 l 0 446 l 694 446 l 694 363 l 0 363 z "},"—":{"ha":1111,"x_min":0,"x_max":1111,"o":"m 0 363 l 0 446 l 1111 446 l 1111 363 l 0 363 z "},"‘":{"ha":386,"x_min":47,"x_max":339,"o":"m 329 1150 q 290 1122 307 1140 q 267 1085 274 1104 q 260 1053 260 1067 q 299 960 260 1004 q 338 858 338 915 q 288 747 338 783 q 222 722 254 722 q 72 810 111 722 q 49 922 49 867 q 72 1025 49 976 q 219 1164 124 1132 q 277 1174 251 1174 q 324 1171 303 1174 l 329 1150 z "},"’":{"ha":372,"x_min":47,"x_max":325,"o":"m 111 821 q 122 851 121 839 q 122 874 122 863 q 85 952 122 910 q 49 1049 49 994 q 96 1154 49 1121 q 158 1179 129 1179 q 301 1096 264 1179 q 324 989 324 1042 q 301 890 324 936 q 163 758 253 789 q 107 749 132 749 q 63 751 82 749 l 57 771 q 111 821 93 786 z "},"‚":{"ha":386,"x_min":47,"x_max":339,"o":"m 57 -176 q 119 -111 104 -156 q 126 -78 126 -92 q 88 14 126 -31 q 49 115 49 58 q 99 226 49 190 q 164 253 133 253 q 315 164 275 253 q 338 53 338 108 q 314 -51 338 -1 q 168 -189 263 -157 q 110 -200 136 -200 q 64 -196 83 -200 l 57 -176 z "},"“":{"ha":721,"x_min":49,"x_max":674,"o":"m 329 1150 q 290 1122 307 1140 q 267 1085 274 1104 q 260 1053 260 1067 q 299 960 260 1004 q 339 858 339 915 q 288 747 339 783 q 222 722 254 722 q 72 810 113 722 q 49 922 49 867 q 72 1025 49 976 q 219 1164 124 1132 q 278 1174 251 1174 q 324 1171 304 1174 l 329 1150 m 664 1150 q 625 1122 642 1140 q 601 1085 608 1104 q 594 1053 594 1067 q 634 960 594 1004 q 674 858 674 915 q 622 747 674 783 q 557 722 589 722 q 407 810 447 722 q 383 922 383 867 q 407 1025 383 976 q 554 1164 460 1132 q 613 1174 586 1174 q 658 1171 639 1174 l 664 1150 z "},"”":{"ha":692,"x_min":47,"x_max":644,"o":"m 111 821 q 122 851 121 839 q 122 874 122 863 q 85 952 122 910 q 49 1049 49 994 q 96 1154 49 1121 q 158 1179 129 1179 q 301 1096 264 1179 q 324 989 324 1042 q 301 890 324 936 q 163 758 253 789 q 107 749 132 749 q 63 751 82 749 l 57 771 q 111 821 93 786 m 431 821 q 441 851 440 839 q 442 874 442 863 q 405 952 442 910 q 368 1049 368 994 q 415 1154 368 1121 q 478 1179 449 1179 q 621 1096 583 1179 q 643 989 643 1042 q 621 890 643 936 q 482 758 572 789 q 426 749 451 749 q 382 751 401 749 l 376 771 q 431 821 413 786 z "},"„":{"ha":719,"x_min":47,"x_max":672,"o":"m 57 -186 q 119 -121 104 -165 q 126 -87 126 -103 q 88 4 126 -40 q 49 106 49 49 q 99 217 49 181 q 164 243 133 243 q 315 154 275 243 q 338 44 338 99 q 314 -61 338 -11 q 168 -199 263 -167 q 110 -210 136 -210 q 64 -206 83 -210 l 57 -186 m 392 -186 q 453 -121 438 -165 q 460 -87 460 -103 q 421 4 460 -40 q 382 106 382 49 q 432 217 382 181 q 497 243 467 243 q 649 154 608 243 q 671 44 671 99 q 647 -61 671 -11 q 501 -199 596 -167 q 443 -210 469 -210 q 397 -206 417 -210 l 392 -186 z "},"†":{"ha":663,"x_min":28,"x_max":636,"o":"m 636 608 l 603 488 l 428 547 l 338 603 l 394 515 l 453 215 l 339 -250 l 325 -250 l 210 215 l 269 515 l 325 603 l 235 546 l 61 488 l 28 608 l 61 731 l 235 671 l 325 617 l 269 701 l 210 958 l 333 992 l 453 958 l 394 701 l 339 617 l 428 672 l 603 731 l 636 608 z "},"‡":{"ha":664,"x_min":28,"x_max":638,"o":"m 604 253 l 638 132 l 604 10 l 431 69 l 340 125 l 396 39 l 454 -218 l 332 -251 l 211 -218 l 271 39 l 326 125 l 236 69 l 63 10 l 29 132 l 63 253 l 236 194 l 326 139 l 271 225 l 211 371 l 269 515 l 325 603 l 235 546 l 61 488 l 28 608 l 61 731 l 235 671 l 325 617 l 269 701 l 210 958 l 333 992 l 453 958 l 394 701 l 339 617 l 428 672 l 603 731 l 636 608 l 603 488 l 428 547 l 338 603 l 394 515 l 454 371 l 396 225 l 340 139 l 431 194 l 604 253 z "},"•":{"ha":540,"x_min":69,"x_max":471,"o":"m 299 253 q 271 247 285 247 q 226 258 257 247 q 172 278 194 268 q 130 307 150 288 q 100 349 110 326 q 80 403 90 372 q 69 449 69 435 q 75 476 69 463 q 129 590 104 565 q 243 644 154 615 q 271 649 257 649 q 299 644 285 649 q 413 590 388 615 q 467 476 438 565 q 471 448 471 463 q 465 417 471 433 q 411 306 436 331 q 299 253 386 282 m 301 363 q 313 367 301 363 q 337 382 325 371 q 356 417 349 393 q 364 449 364 442 q 356 479 364 456 q 337 515 349 503 q 301 534 325 526 q 270 542 276 542 q 240 534 264 542 q 205 515 217 526 q 185 478 193 503 q 176 448 176 454 q 183 424 176 442 q 196 393 189 406 q 257 357 208 374 q 270 354 264 354 q 301 363 276 354 z "},"…":{"ha":1028,"x_min":49,"x_max":979,"o":"m 262 17 q 243 -1 262 17 q 174 -19 225 -19 q 85 17 122 -19 q 49 106 49 54 q 85 194 49 157 q 174 231 122 231 q 262 194 225 231 q 299 106 299 157 q 262 17 299 54 m 602 17 q 584 -1 602 17 q 514 -19 565 -19 q 426 17 463 -19 q 389 106 389 54 q 426 194 389 157 q 514 231 463 231 q 602 194 565 231 q 639 106 639 157 q 602 17 639 54 m 942 17 q 924 -1 942 17 q 854 -19 906 -19 q 766 17 803 -19 q 729 106 729 54 q 766 194 729 157 q 854 231 803 231 q 942 194 906 231 q 979 106 979 157 q 942 17 979 54 z "},"‰":{"ha":1621,"x_min":26,"x_max":1571,"o":"m 504 892 q 526 808 526 847 q 524 746 526 768 q 434 566 511 631 q 238 501 357 501 q 67 569 119 501 q 28 701 28 621 q 124 931 28 853 q 318 992 200 992 l 319 992 q 347 992 322 992 q 409 982 371 992 q 467 960 447 972 q 582 924 529 924 q 726 969 640 924 q 756 985 749 981 l 810 961 l 293 -26 l 231 0 l 711 907 q 607 874 660 874 q 504 892 554 874 m 217 656 q 217 606 217 656 q 252 558 217 557 q 312 608 288 558 q 344 725 336 657 q 351 831 351 793 q 313 936 351 936 q 246 849 274 936 q 217 656 217 754 m 625 410 q 814 471 701 471 q 976 411 926 471 q 1026 260 1026 351 q 943 50 1026 119 q 740 -19 860 -19 q 568 49 621 -19 q 529 179 529 100 q 625 410 529 331 m 1168 410 q 1357 471 1244 471 q 1519 411 1469 471 q 1569 260 1569 351 q 1486 50 1569 119 q 1283 -19 1403 -19 q 1111 49 1164 -19 q 1072 179 1072 100 q 1168 410 1072 331 m 708 131 q 746 36 708 36 q 803 85 779 36 q 836 203 828 135 q 844 310 844 272 q 804 415 844 415 q 752 365 775 415 q 719 243 729 315 q 708 131 708 171 m 1251 131 q 1289 36 1251 36 q 1347 85 1322 36 q 1379 203 1371 135 q 1388 310 1388 272 q 1347 415 1388 415 q 1295 365 1318 415 q 1262 243 1272 315 q 1251 131 1251 171 z "},"‹":{"ha":476,"x_min":56,"x_max":394,"o":"m 393 674 q 330 558 358 611 q 271 406 301 506 q 394 132 306 292 l 382 122 q 56 406 242 286 q 234 528 156 467 q 382 681 313 590 l 393 674 z "},"›":{"ha":476,"x_min":83,"x_max":422,"o":"m 83 132 q 147 249 118 194 q 207 406 175 303 q 176 494 193 447 q 85 674 158 542 l 96 681 q 244 528 165 590 q 422 406 322 467 q 96 122 235 286 l 83 132 z "},"⁄":{"ha":833,"x_min":26,"x_max":758,"o":"m 692 1004 l 757 960 l 94 -28 l 28 15 l 692 1004 z "},"€":{"ha":963,"x_min":-56,"x_max":940,"o":"m 621 -18 q 286 88 424 -18 q 110 367 149 193 l -56 367 l -29 436 l 99 436 q 99 533 94 485 l -56 533 l -31 603 l 108 603 q 202 804 133 717 q 381 942 271 892 q 604 992 490 992 q 813 971 718 992 q 939 910 907 950 l 865 694 l 851 694 q 853 732 853 701 q 836 806 853 763 q 789 875 819 850 q 649 922 729 922 q 401 603 435 922 l 835 603 l 810 533 l 396 533 l 396 436 l 778 436 l 756 367 l 401 367 q 668 51 436 51 q 831 112 769 51 q 926 297 892 172 l 939 297 l 939 68 q 806 4 899 26 q 621 -18 713 -18 z "},"™":{"ha":711,"x_min":14,"x_max":699,"o":"m 199 951 l 199 724 q 206 706 199 713 q 224 699 213 699 l 228 699 l 228 694 l 78 694 l 78 699 l 83 699 q 100 706 93 699 q 107 724 107 713 l 107 951 l 74 951 q 33 937 47 951 q 18 896 18 922 l 18 893 l 14 893 l 14 981 q 61 974 32 974 l 244 974 q 292 981 274 974 l 292 893 l 288 893 l 288 896 q 273 937 288 922 q 232 951 258 951 l 199 951 m 699 694 l 549 694 l 549 699 l 556 699 q 566 703 561 699 q 571 714 571 708 l 554 821 l 490 732 q 474 685 472 706 l 469 685 l 365 814 l 353 714 q 356 703 351 708 q 368 699 361 699 l 374 699 l 374 694 l 285 694 l 285 699 l 292 699 q 319 719 314 699 l 357 979 l 360 979 l 499 804 l 622 979 l 626 979 l 664 721 q 692 699 669 699 l 699 699 l 699 694 z "},"∂":{"ha":899,"x_min":40,"x_max":851,"o":"m 290 890 q 104 815 172 890 l 92 825 q 240 964 140 922 q 404 996 318 996 q 756 826 633 996 q 851 499 851 693 q 735 124 851 256 q 379 -21 606 -21 q 239 1 306 -21 q 63 171 113 43 q 42 282 42 225 q 69 417 42 347 q 167 542 97 488 q 336 611 236 597 q 376 614 356 614 q 554 569 460 614 q 438 846 539 776 q 290 890 374 890 m 506 510 q 342 321 379 510 q 333 237 333 269 q 336 165 333 204 q 361 88 339 125 q 411 50 383 50 q 511 168 472 50 q 556 463 550 286 l 556 504 q 506 510 529 510 z "},"∏":{"ha":1185,"x_min":47,"x_max":1138,"o":"m 685 -264 q 739 -242 717 -264 q 763 -189 761 -221 l 763 828 q 740 881 761 858 q 688 903 718 903 l 499 903 q 447 881 468 903 q 424 829 425 860 l 424 -190 q 447 -242 425 -221 q 501 -264 469 -264 l 515 -264 l 517 -278 l 49 -278 l 49 -264 l 64 -264 q 118 -242 96 -264 q 140 -189 140 -221 l 140 883 q 101 949 140 926 q 64 958 85 958 l 49 958 l 49 972 l 1138 972 l 1138 958 l 1122 958 q 1069 937 1092 958 q 1046 885 1047 915 l 1046 -190 q 1069 -242 1046 -221 q 1122 -264 1092 -264 l 1138 -264 l 1138 -278 l 669 -278 l 671 -264 l 685 -264 z "},"∑":{"ha":885,"x_min":35,"x_max":858,"o":"m 35 -251 l 35 -236 l 419 322 l 43 958 l 43 972 l 633 972 q 740 982 693 972 q 799 997 786 992 l 799 711 l 785 713 l 785 722 q 738 853 785 806 q 607 903 690 901 l 386 903 l 633 478 l 293 -8 l 575 -8 q 742 65 669 -1 q 844 243 814 131 l 858 243 l 806 -251 l 35 -251 z "},"−":{"ha":668,"x_min":56,"x_max":614,"o":"m 56 385 l 56 475 l 614 475 l 614 385 l 56 385 z "},"√":{"ha":821,"x_min":13,"x_max":814,"o":"m 32 525 l 14 597 l 340 679 l 446 322 l 736 1171 l 813 1168 l 358 -204 l 117 546 l 32 525 z "},"∞":{"ha":879,"x_min":42,"x_max":839,"o":"m 439 340 q 344 251 401 286 q 217 215 288 215 q 94 272 147 215 q 42 411 42 328 q 95 552 42 494 q 215 610 149 610 q 440 486 338 610 q 540 575 483 540 q 664 610 597 610 q 784 552 731 610 q 838 410 838 494 q 814 312 838 357 q 748 241 790 267 q 649 215 706 215 q 535 251 592 215 q 439 340 478 286 m 145 358 q 152 345 145 358 q 180 317 158 332 q 235 303 201 303 q 310 334 268 303 q 385 413 353 365 q 225 522 300 522 q 160 490 188 522 q 132 420 132 457 q 145 358 132 383 m 654 303 q 719 335 692 303 q 747 413 747 368 q 719 490 747 457 q 654 522 692 522 q 494 413 579 522 q 654 303 571 303 z "},"∫":{"ha":890,"x_min":0,"x_max":892,"o":"m 390 992 q 404 1009 390 992 q 456 1050 418 1026 q 543 1089 494 1074 q 647 1104 592 1104 q 890 993 872 1104 q 890 981 890 986 q 863 918 890 946 q 801 894 832 894 q 722 935 754 894 q 701 972 710 949 q 685 1008 693 996 q 657 1019 676 1021 q 627 999 638 1018 q 614 922 617 981 q 563 40 567 96 q 539 -72 558 -15 q 492 -163 519 -129 q 428 -219 465 -197 q 222 -269 346 -269 q 11 -187 54 -269 q 0 -154 0 -168 q 25 -86 0 -111 q 89 -57 56 -57 q 181 -128 153 -57 q 192 -157 188 -146 q 225 -185 201 -186 q 258 -162 249 -183 q 273 -28 267 -142 q 292 288 279 85 q 319 781 315 715 q 342 901 322 846 q 390 992 363 957 z "},"≈":{"ha":669,"x_min":26,"x_max":643,"o":"m 106 592 q 153 611 126 604 q 195 618 179 618 q 234 615 211 618 q 304 592 257 613 q 391 553 351 572 q 449 533 431 535 q 483 537 467 532 q 519 556 499 542 q 579 600 546 574 l 642 540 q 627 524 640 538 q 600 499 614 511 q 465 442 533 442 q 425 445 453 442 q 319 486 397 449 q 210 526 236 526 q 166 517 185 526 q 137 499 147 508 q 94 458 126 489 l 28 518 q 106 592 54 560 m 106 356 q 153 375 126 368 q 194 382 179 382 q 342 340 254 382 q 448 297 429 299 q 483 301 467 296 q 519 319 499 306 q 579 364 546 338 l 642 304 q 627 288 640 301 q 600 263 614 275 q 465 206 533 206 q 425 209 453 206 q 319 250 397 213 q 206 290 235 290 q 158 278 178 290 q 120 248 139 267 q 100 228 101 229 q 94 222 97 225 l 28 282 q 106 356 54 324 z "},"≠":{"ha":668,"x_min":56,"x_max":614,"o":"m 614 492 l 444 492 l 371 339 l 614 339 l 614 249 l 328 249 l 247 81 l 163 118 l 225 249 l 56 249 l 56 339 l 268 339 l 342 492 l 56 492 l 56 582 l 386 582 l 460 735 l 543 696 l 488 582 l 614 582 l 614 492 z "},"≤":{"ha":696,"x_min":56,"x_max":614,"o":"m 614 814 l 614 715 l 185 514 l 614 311 l 614 213 l 56 472 l 56 554 l 614 814 m 56 46 l 56 136 l 614 136 l 614 46 l 56 46 z "},"≥":{"ha":833,"x_min":56,"x_max":614,"o":"m 56 814 l 614 554 l 614 472 l 56 213 l 56 311 l 485 514 l 56 715 l 56 814 m 56 46 l 56 136 l 614 136 l 614 46 l 56 46 z "},"◊":{"ha":708,"x_min":54,"x_max":654,"o":"m 654 486 l 346 -19 l 56 486 l 346 992 l 654 486 m 147 486 l 347 132 l 561 486 l 347 840 l 147 486 z "},"ﬁ":{"ha":1457,"x_min":40,"x_max":1417,"o":"m 433 901 l 433 514 l 585 514 q 693 558 651 515 q 735 665 735 600 l 735 672 l 749 672 l 749 286 l 735 286 l 735 293 q 693 401 735 358 q 586 444 651 443 l 433 444 l 433 101 q 460 40 433 65 q 522 14 486 14 l 540 14 l 540 0 l 42 0 l 42 14 l 60 14 q 122 40 96 14 q 149 101 147 65 l 149 871 q 122 933 147 907 q 60 958 96 958 l 42 958 l 42 972 l 657 972 q 763 982 717 972 q 822 997 808 992 l 822 711 l 808 711 l 808 722 q 728 878 808 833 q 635 901 689 900 l 433 901 m 936 14 q 1013 57 986 14 q 1025 101 1025 78 l 1025 872 q 998 933 1024 908 q 936 958 972 958 l 918 958 l 918 972 l 1417 972 l 1417 958 l 1399 958 q 1337 933 1363 958 q 1310 872 1311 908 l 1310 101 q 1354 25 1311 50 q 1399 14 1375 14 l 1417 14 l 1417 0 l 918 0 l 918 14 l 936 14 z "},"ﬂ":{"ha":1782,"x_min":40,"x_max":1783,"o":"m 433 901 l 433 514 l 585 514 q 693 558 651 515 q 735 665 735 600 l 735 672 l 749 672 l 749 286 l 735 286 l 735 293 q 693 401 735 358 q 586 444 651 443 l 433 444 l 433 101 q 460 40 433 65 q 522 14 486 14 l 540 14 l 540 0 l 42 0 l 42 14 l 60 14 q 122 40 96 14 q 149 101 147 65 l 149 871 q 122 933 147 907 q 60 958 96 958 l 42 958 l 42 972 l 657 972 q 763 982 717 972 q 822 997 808 992 l 822 711 l 808 711 l 808 722 q 728 878 808 833 q 635 901 689 900 l 433 901 m 936 14 q 1013 57 986 14 q 1025 101 1025 78 l 1025 871 q 998 933 1024 907 q 936 958 972 958 l 918 958 l 918 972 l 1417 972 l 1417 958 l 1399 958 q 1336 933 1363 958 q 1310 871 1310 907 l 1310 71 l 1481 71 q 1660 138 1582 71 q 1769 322 1738 204 l 1783 322 l 1731 0 l 918 0 l 918 14 l 936 14 z "}}}
